<svg xmlns="http://www.w3.org/2000/svg" xmlns:xlink="http://www.w3.org/1999/xlink" width="111.036pt" height="102.307pt" viewBox="0 0 111.036 102.307" version="1.1">
<defs>
<g>
<symbol overflow="visible" id="glyph0-0">
<path style="stroke:none;" d=""/>
</symbol>
<symbol overflow="visible" id="glyph0-1">
<path style="stroke:none;" d="M 6.09375 -0.15625 C 6.09375 -0.265625 5.984375 -0.265625 5.859375 -0.265625 C 5.421875 -0.265625 5.40625 -0.328125 5.390625 -0.53125 L 4.75 -5.453125 C 4.734375 -5.640625 4.71875 -5.6875 4.59375 -5.6875 C 4.453125 -5.6875 4.40625 -5.609375 4.34375 -5.53125 L 1.46875 -0.953125 C 1.109375 -0.359375 0.78125 -0.28125 0.5 -0.265625 C 0.421875 -0.25 0.3125 -0.25 0.3125 -0.109375 C 0.3125 -0.09375 0.328125 0 0.4375 0 C 0.5 0 0.546875 -0.03125 1.109375 -0.03125 C 1.65625 -0.03125 1.828125 0 1.875 0 C 1.90625 0 2.03125 0 2.03125 -0.15625 C 2.03125 -0.25 1.921875 -0.265625 1.890625 -0.265625 C 1.71875 -0.265625 1.546875 -0.328125 1.546875 -0.515625 C 1.546875 -0.625 1.625 -0.734375 1.765625 -0.96875 L 2.3125 -1.84375 L 4.5 -1.84375 L 4.65625 -0.5 C 4.65625 -0.375 4.515625 -0.265625 4.140625 -0.265625 C 4.03125 -0.265625 3.921875 -0.265625 3.921875 -0.109375 C 3.921875 -0.109375 3.921875 0 4.0625 0 C 4.140625 0 4.4375 -0.015625 4.515625 -0.03125 L 5.015625 -0.03125 C 5.734375 -0.03125 5.859375 0 5.921875 0 C 5.953125 0 6.09375 0 6.09375 -0.15625 Z M 4.46875 -2.109375 L 2.484375 -2.109375 L 4.125 -4.71875 Z M 4.46875 -2.109375 "/>
</symbol>
<symbol overflow="visible" id="glyph0-2">
<path style="stroke:none;" d="M 5.90625 -1.703125 C 5.90625 -2.28125 5.40625 -2.75 4.609375 -2.84375 C 5.53125 -3.015625 6.328125 -3.625 6.328125 -4.328125 C 6.328125 -4.921875 5.75 -5.4375 4.75 -5.4375 L 1.96875 -5.4375 C 1.828125 -5.4375 1.71875 -5.4375 1.71875 -5.296875 C 1.71875 -5.171875 1.8125 -5.171875 1.953125 -5.171875 C 2.21875 -5.171875 2.453125 -5.171875 2.453125 -5.046875 C 2.453125 -5.015625 2.4375 -5.015625 2.421875 -4.90625 L 1.34375 -0.625 C 1.28125 -0.328125 1.265625 -0.265625 0.671875 -0.265625 C 0.515625 -0.265625 0.421875 -0.265625 0.421875 -0.109375 C 0.421875 0 0.53125 0 0.65625 0 L 3.625 0 C 4.9375 0 5.90625 -0.9375 5.90625 -1.703125 Z M 5.59375 -4.34375 C 5.59375 -3.671875 4.859375 -2.9375 3.84375 -2.9375 L 2.59375 -2.9375 L 3.078125 -4.890625 C 3.140625 -5.15625 3.15625 -5.171875 3.484375 -5.171875 L 4.625 -5.171875 C 5.40625 -5.171875 5.59375 -4.671875 5.59375 -4.34375 Z M 5.140625 -1.765625 C 5.140625 -0.984375 4.375 -0.265625 3.421875 -0.265625 L 2.046875 -0.265625 C 1.96875 -0.28125 1.9375 -0.28125 1.9375 -0.328125 C 1.9375 -0.390625 1.953125 -0.46875 1.96875 -0.515625 L 2.53125 -2.71875 L 4.15625 -2.71875 C 4.890625 -2.71875 5.140625 -2.21875 5.140625 -1.765625 Z M 5.140625 -1.765625 "/>
</symbol>
<symbol overflow="visible" id="glyph0-3">
<path style="stroke:none;" d="M 6.34375 -5.390625 C 6.34375 -5.421875 6.359375 -5.46875 6.359375 -5.515625 C 6.359375 -5.5625 6.3125 -5.609375 6.265625 -5.609375 C 6.203125 -5.609375 6.1875 -5.59375 6.125 -5.515625 L 5.5625 -4.90625 C 5.484375 -5 5.0625 -5.609375 4.140625 -5.609375 C 2.28125 -5.609375 0.421875 -3.890625 0.421875 -2.0625 C 0.421875 -0.671875 1.46875 0.171875 2.734375 0.171875 C 3.78125 0.171875 4.671875 -0.46875 5.09375 -1.09375 C 5.359375 -1.484375 5.46875 -1.859375 5.46875 -1.90625 C 5.46875 -1.984375 5.421875 -2.015625 5.34375 -2.015625 C 5.25 -2.015625 5.234375 -1.96875 5.21875 -1.890625 C 4.875 -0.78125 3.796875 -0.09375 2.84375 -0.09375 C 2.03125 -0.09375 1.171875 -0.578125 1.171875 -1.796875 C 1.171875 -2.046875 1.265625 -3.375 2.15625 -4.375 C 2.75 -5.046875 3.5625 -5.34375 4.1875 -5.34375 C 5.203125 -5.34375 5.609375 -4.546875 5.609375 -3.78125 C 5.609375 -3.671875 5.578125 -3.515625 5.578125 -3.421875 C 5.578125 -3.328125 5.6875 -3.328125 5.71875 -3.328125 C 5.8125 -3.328125 5.828125 -3.359375 5.859375 -3.5 Z M 6.34375 -5.390625 "/>
</symbol>
<symbol overflow="visible" id="glyph1-0">
<path style="stroke:none;" d=""/>
</symbol>
<symbol overflow="visible" id="glyph1-1">
<path style="stroke:none;" d="M 4.109375 -5.125 L 2.078125 -5.125 C 1.875 -5.125 1.640625 -5.140625 1.4375 -5.15625 C 1.015625 -5.1875 1.015625 -5.265625 0.984375 -5.390625 L 0.734375 -5.390625 L 0.46875 -3.703125 L 0.71875 -3.703125 C 0.734375 -3.828125 0.828125 -4.375 0.9375 -4.4375 C 1.015625 -4.484375 1.625 -4.484375 1.734375 -4.484375 L 3.421875 -4.484375 L 2.609375 -3.375 C 1.703125 -2.171875 1.5 -0.90625 1.5 -0.28125 C 1.5 -0.203125 1.5 0.171875 1.875 0.171875 C 2.25 0.171875 2.25 -0.1875 2.25 -0.28125 L 2.25 -0.671875 C 2.25 -1.8125 2.453125 -2.75 2.84375 -3.28125 L 4.03125 -4.859375 C 4.109375 -4.9375 4.109375 -4.953125 4.109375 -5.125 Z M 4.109375 -5.125 "/>
</symbol>
<symbol overflow="visible" id="glyph1-2">
<path style="stroke:none;" d="M 3.984375 -1.3125 L 3.984375 -1.5625 L 3.140625 -1.5625 L 3.140625 -5.15625 C 3.140625 -5.3125 3.140625 -5.375 2.96875 -5.375 C 2.875 -5.375 2.859375 -5.375 2.78125 -5.265625 L 0.234375 -1.5625 L 0.234375 -1.3125 L 2.484375 -1.3125 L 2.484375 -0.640625 C 2.484375 -0.34375 2.46875 -0.265625 1.84375 -0.265625 L 1.671875 -0.265625 L 1.671875 0 L 2.8125 -0.03125 L 3.953125 0 L 3.953125 -0.265625 L 3.78125 -0.265625 C 3.15625 -0.265625 3.140625 -0.34375 3.140625 -0.640625 L 3.140625 -1.3125 Z M 2.546875 -1.5625 L 0.515625 -1.5625 L 2.546875 -4.515625 Z M 2.546875 -1.5625 "/>
</symbol>
<symbol overflow="visible" id="glyph1-3">
<path style="stroke:none;" d="M 3.796875 -1.59375 C 3.796875 -2.515625 3.125 -3.34375 2.1875 -3.34375 C 1.796875 -3.34375 1.421875 -3.21875 1.109375 -2.9375 L 1.109375 -4.484375 C 1.21875 -4.453125 1.53125 -4.359375 1.875 -4.359375 C 2.875 -4.359375 3.46875 -5.0625 3.46875 -5.1875 C 3.46875 -5.28125 3.421875 -5.296875 3.375 -5.296875 C 3.375 -5.296875 3.34375 -5.296875 3.28125 -5.265625 C 2.96875 -5.140625 2.59375 -5.046875 2.171875 -5.046875 C 1.703125 -5.046875 1.3125 -5.15625 1.0625 -5.265625 C 0.984375 -5.296875 0.953125 -5.296875 0.953125 -5.296875 C 0.859375 -5.296875 0.859375 -5.21875 0.859375 -5.0625 L 0.859375 -2.734375 C 0.859375 -2.59375 0.859375 -2.5 0.984375 -2.5 C 1.046875 -2.5 1.0625 -2.53125 1.109375 -2.59375 C 1.203125 -2.703125 1.5 -3.109375 2.1875 -3.109375 C 2.625 -3.109375 2.84375 -2.75 2.921875 -2.59375 C 3.046875 -2.3125 3.0625 -1.9375 3.0625 -1.640625 C 3.0625 -1.34375 3.0625 -0.90625 2.84375 -0.5625 C 2.6875 -0.3125 2.359375 -0.078125 1.9375 -0.078125 C 1.421875 -0.078125 0.921875 -0.390625 0.734375 -0.921875 C 0.75 -0.90625 0.8125 -0.90625 0.8125 -0.90625 C 1.03125 -0.90625 1.21875 -1.046875 1.21875 -1.296875 C 1.21875 -1.59375 0.984375 -1.703125 0.828125 -1.703125 C 0.671875 -1.703125 0.421875 -1.625 0.421875 -1.28125 C 0.421875 -0.5625 1.046875 0.171875 1.953125 0.171875 C 2.953125 0.171875 3.796875 -0.609375 3.796875 -1.59375 Z M 3.796875 -1.59375 "/>
</symbol>
<symbol overflow="visible" id="glyph2-0">
<path style="stroke:none;" d=""/>
</symbol>
<symbol overflow="visible" id="glyph2-1">
<path style="stroke:none;" d="M 3.265625 -1.5 C 3.265625 -2.25 2.65625 -2.859375 1.90625 -2.859375 C 1.171875 -2.859375 0.5625 -2.25 0.5625 -1.5 C 0.5625 -0.734375 1.171875 -0.140625 1.90625 -0.140625 C 2.65625 -0.140625 3.265625 -0.734375 3.265625 -1.5 Z M 2.953125 -1.5 C 2.953125 -0.921875 2.484375 -0.453125 1.90625 -0.453125 C 1.328125 -0.453125 0.875 -0.921875 0.875 -1.5 C 0.875 -2.078125 1.328125 -2.546875 1.90625 -2.546875 C 2.484375 -2.546875 2.953125 -2.078125 2.953125 -1.5 Z M 2.953125 -1.5 "/>
</symbol>
</g>
</defs>
<g id="surface1">
<path style="fill:none;stroke-width:0.3985;stroke-linecap:round;stroke-linejoin:round;stroke:rgb(0%,0%,0%);stroke-opacity:1;stroke-miterlimit:10;" d="M 0.00115625 -0.00078125 L 68.036313 -0.00078125 L 0.00115625 68.038281 Z M 0.00115625 -0.00078125 " transform="matrix(1,0,0,-1,21.409,82.05)"/>
<path style="fill:none;stroke-width:0.3985;stroke-linecap:round;stroke-linejoin:round;stroke:rgb(0%,0%,0%);stroke-opacity:1;stroke-miterlimit:10;" d="M 5.102719 -0.00078125 L 5.102719 5.100781 L 0.00115625 5.100781 " transform="matrix(1,0,0,-1,21.409,82.05)"/>
<path style=" stroke:none;fill-rule:nonzero;fill:rgb(0%,0%,0%);fill-opacity:1;" d="M 22.304688 82.050781 C 22.304688 81.554688 21.902344 81.152344 21.410156 81.152344 C 20.914062 81.152344 20.511719 81.554688 20.511719 82.050781 C 20.511719 82.546875 20.914062 82.945312 21.410156 82.945312 C 21.902344 82.945312 22.304688 82.546875 22.304688 82.050781 Z M 22.304688 82.050781 "/>
<g style="fill:rgb(0%,0%,0%);fill-opacity:1;">
  <use xlink:href="#glyph0-1" x="18.238" y="91.016"/>
</g>
<path style=" stroke:none;fill-rule:nonzero;fill:rgb(0%,0%,0%);fill-opacity:1;" d="M 90.34375 82.050781 C 90.34375 81.554688 89.941406 81.152344 89.445312 81.152344 C 88.949219 81.152344 88.550781 81.554688 88.550781 82.050781 C 88.550781 82.546875 88.949219 82.945312 89.445312 82.945312 C 89.941406 82.945312 90.34375 82.546875 90.34375 82.050781 Z M 90.34375 82.050781 "/>
<g style="fill:rgb(0%,0%,0%);fill-opacity:1;">
  <use xlink:href="#glyph0-2" x="92.965" y="91.016"/>
</g>
<path style=" stroke:none;fill-rule:nonzero;fill:rgb(0%,0%,0%);fill-opacity:1;" d="M 22.304688 14.011719 C 22.304688 13.519531 21.902344 13.117188 21.410156 13.117188 C 20.914062 13.117188 20.511719 13.519531 20.511719 14.011719 C 20.511719 14.507812 20.914062 14.910156 21.410156 14.910156 C 21.902344 14.910156 22.304688 14.507812 22.304688 14.011719 Z M 22.304688 14.011719 "/>
<g style="fill:rgb(0%,0%,0%);fill-opacity:1;">
  <use xlink:href="#glyph0-3" x="11.291" y="16.737"/>
</g>
<g style="fill:rgb(0%,0%,0%);fill-opacity:1;">
  <use xlink:href="#glyph1-1" x="58.945" y="44.514"/>
</g>
<path style="fill:none;stroke-width:0.3985;stroke-linecap:round;stroke-linejoin:round;stroke:rgb(0%,0%,0%);stroke-opacity:1;stroke-miterlimit:10;" d="M 56.126156 -0.00078125 C 56.126156 3.155469 57.383969 6.186719 59.614438 8.417187 " transform="matrix(1,0,0,-1,21.409,82.05)"/>
<g style="fill:rgb(0%,0%,0%);fill-opacity:1;">
  <use xlink:href="#glyph1-2" x="66.041" y="79.779"/>
  <use xlink:href="#glyph1-3" x="70.275514" y="79.779"/>
</g>
<g style="fill:rgb(0%,0%,0%);fill-opacity:1;">
  <use xlink:href="#glyph2-1" x="74.509" y="76.967"/>
</g>
</g>
</svg>