<svg xmlns="http://www.w3.org/2000/svg" xmlns:xlink="http://www.w3.org/1999/xlink" width="232.011pt" height="157.678pt" viewBox="0 0 232.011 157.678" version="1.1">
<defs>
<g>
<symbol overflow="visible" id="glyph0-0">
<path style="stroke:none;" d=""/>
</symbol>
<symbol overflow="visible" id="glyph0-1">
<path style="stroke:none;" d="M 1.765625 -3.171875 L 2.546875 -3.171875 C 2.6875 -3.171875 2.78125 -3.171875 2.78125 -3.328125 C 2.78125 -3.4375 2.6875 -3.4375 2.546875 -3.4375 L 1.828125 -3.4375 L 2.109375 -4.5625 C 2.140625 -4.6875 2.140625 -4.71875 2.140625 -4.734375 C 2.140625 -4.90625 2.015625 -4.984375 1.875 -4.984375 C 1.609375 -4.984375 1.546875 -4.765625 1.46875 -4.40625 L 1.21875 -3.4375 L 0.453125 -3.4375 C 0.296875 -3.4375 0.203125 -3.4375 0.203125 -3.28125 C 0.203125 -3.171875 0.296875 -3.171875 0.4375 -3.171875 L 1.15625 -3.171875 L 0.671875 -1.265625 C 0.625 -1.0625 0.5625 -0.78125 0.5625 -0.671875 C 0.5625 -0.1875 0.953125 0.078125 1.375 0.078125 C 2.21875 0.078125 2.703125 -1.046875 2.703125 -1.140625 C 2.703125 -1.234375 2.640625 -1.25 2.59375 -1.25 C 2.5 -1.25 2.5 -1.21875 2.4375 -1.09375 C 2.28125 -0.703125 1.875 -0.140625 1.390625 -0.140625 C 1.234375 -0.140625 1.125 -0.25 1.125 -0.515625 C 1.125 -0.671875 1.15625 -0.75 1.171875 -0.859375 Z M 1.765625 -3.171875 "/>
</symbol>
<symbol overflow="visible" id="glyph0-2">
<path style="stroke:none;" d="M 3.953125 -2.90625 C 3.953125 -3.515625 3.609375 -3.515625 3.5625 -3.515625 C 3.375 -3.515625 3.15625 -3.3125 3.15625 -3.109375 C 3.15625 -2.984375 3.21875 -2.921875 3.296875 -2.859375 C 3.46875 -2.703125 3.578125 -2.484375 3.578125 -2.21875 C 3.578125 -1.859375 3.0625 -0.140625 2.140625 -0.140625 C 1.796875 -0.140625 1.515625 -0.328125 1.515625 -0.828125 C 1.515625 -1.265625 1.765625 -1.890625 1.953125 -2.375 C 2.046875 -2.625 2.078125 -2.6875 2.078125 -2.84375 C 2.078125 -3.265625 1.71875 -3.515625 1.359375 -3.515625 C 0.5625 -3.515625 0.234375 -2.390625 0.234375 -2.296875 C 0.234375 -2.21875 0.296875 -2.1875 0.359375 -2.1875 C 0.46875 -2.1875 0.46875 -2.234375 0.5 -2.3125 C 0.703125 -3.015625 1.046875 -3.296875 1.328125 -3.296875 C 1.453125 -3.296875 1.515625 -3.21875 1.515625 -3.03125 C 1.515625 -2.84375 1.453125 -2.65625 1.375 -2.46875 C 0.984375 -1.453125 0.953125 -1.1875 0.953125 -0.953125 C 0.953125 -0.078125 1.65625 0.078125 2.109375 0.078125 C 3.4375 0.078125 3.953125 -2.296875 3.953125 -2.90625 Z M 3.953125 -2.90625 "/>
</symbol>
<symbol overflow="visible" id="glyph0-3">
<path style="stroke:none;" d="M 6.21875 -3.421875 C 6.21875 -4.734375 5.3125 -5.609375 4.046875 -5.609375 C 2.1875 -5.609375 0.40625 -3.765625 0.40625 -1.984375 C 0.40625 -0.765625 1.265625 0.171875 2.609375 0.171875 C 4.390625 0.171875 6.21875 -1.546875 6.21875 -3.421875 Z M 2.671875 -0.09375 C 1.859375 -0.09375 1.1875 -0.671875 1.1875 -1.8125 C 1.1875 -1.9375 1.1875 -3.28125 2.109375 -4.40625 C 2.40625 -4.765625 3.125 -5.359375 3.984375 -5.359375 C 4.78125 -5.359375 5.484375 -4.8125 5.484375 -3.703125 C 5.484375 -3.265625 5.3125 -2.03125 4.5 -1.046875 C 4.03125 -0.5 3.34375 -0.09375 2.671875 -0.09375 Z M 2.671875 -0.09375 "/>
</symbol>
<symbol overflow="visible" id="glyph1-0">
<path style="stroke:none;" d=""/>
</symbol>
<symbol overflow="visible" id="glyph1-1">
<path style="stroke:none;" d="M 2.65625 1.984375 C 2.71875 1.984375 2.8125 1.984375 2.8125 1.890625 C 2.8125 1.859375 2.8125 1.859375 2.703125 1.75 C 1.609375 0.71875 1.34375 -0.75 1.34375 -1.984375 C 1.34375 -4.28125 2.28125 -5.359375 2.6875 -5.734375 C 2.8125 -5.828125 2.8125 -5.84375 2.8125 -5.875 C 2.8125 -5.921875 2.78125 -5.96875 2.703125 -5.96875 C 2.578125 -5.96875 2.171875 -5.5625 2.109375 -5.5 C 1.046875 -4.375 0.828125 -2.953125 0.828125 -1.984375 C 0.828125 -0.203125 1.5625 1.234375 2.65625 1.984375 Z M 2.65625 1.984375 "/>
</symbol>
<symbol overflow="visible" id="glyph1-2">
<path style="stroke:none;" d="M 2.84375 -3.34375 C 2.84375 -3.46875 2.84375 -3.546875 2.734375 -3.546875 C 2.6875 -3.546875 2.671875 -3.546875 2.546875 -3.421875 C 2.53125 -3.421875 2.453125 -3.34375 2.4375 -3.34375 C 2.421875 -3.34375 2.40625 -3.34375 2.359375 -3.375 C 2.234375 -3.46875 2 -3.546875 1.640625 -3.546875 C 0.53125 -3.546875 0.28125 -2.953125 0.28125 -2.5625 C 0.28125 -2.171875 0.578125 -1.9375 0.59375 -1.90625 C 0.921875 -1.671875 1.09375 -1.640625 1.640625 -1.546875 C 2.015625 -1.46875 2.625 -1.359375 2.625 -0.828125 C 2.625 -0.515625 2.421875 -0.140625 1.6875 -0.140625 C 0.875 -0.140625 0.640625 -0.765625 0.546875 -1.1875 C 0.515625 -1.296875 0.5 -1.328125 0.40625 -1.328125 C 0.28125 -1.328125 0.28125 -1.265625 0.28125 -1.109375 L 0.28125 -0.125 C 0.28125 0 0.28125 0.078125 0.375 0.078125 C 0.4375 0.078125 0.4375 0.078125 0.578125 -0.078125 C 0.625 -0.125 0.703125 -0.21875 0.75 -0.265625 C 1.109375 0.0625 1.484375 0.078125 1.6875 0.078125 C 2.703125 0.078125 3.046875 -0.5 3.046875 -1.03125 C 3.046875 -1.40625 2.828125 -1.96875 1.875 -2.140625 C 1.8125 -2.15625 1.359375 -2.234375 1.328125 -2.234375 C 1.078125 -2.296875 0.703125 -2.46875 0.703125 -2.78125 C 0.703125 -3.015625 0.890625 -3.359375 1.640625 -3.359375 C 2.53125 -3.359375 2.578125 -2.703125 2.59375 -2.484375 C 2.59375 -2.421875 2.65625 -2.390625 2.703125 -2.390625 C 2.84375 -2.390625 2.84375 -2.453125 2.84375 -2.59375 Z M 2.84375 -3.34375 "/>
</symbol>
<symbol overflow="visible" id="glyph1-3">
<path style="stroke:none;" d="M 2.46875 -1.984375 C 2.46875 -2.75 2.328125 -3.65625 1.84375 -4.59375 C 1.453125 -5.328125 0.71875 -5.96875 0.578125 -5.96875 C 0.5 -5.96875 0.484375 -5.921875 0.484375 -5.875 C 0.484375 -5.84375 0.484375 -5.828125 0.578125 -5.734375 C 1.6875 -4.671875 1.9375 -3.21875 1.9375 -1.984375 C 1.9375 0.296875 1 1.375 0.59375 1.75 C 0.484375 1.84375 0.484375 1.859375 0.484375 1.890625 C 0.484375 1.9375 0.5 1.984375 0.578125 1.984375 C 0.703125 1.984375 1.109375 1.578125 1.171875 1.515625 C 2.234375 0.390625 2.46875 -1.03125 2.46875 -1.984375 Z M 2.46875 -1.984375 "/>
</symbol>
<symbol overflow="visible" id="glyph1-4">
<path style="stroke:none;" d="M 6.21875 -2.421875 C 6.21875 -3.0625 5.9375 -3.515625 5.078125 -3.515625 C 4.34375 -3.515625 3.96875 -3.015625 3.84375 -2.78125 C 3.703125 -3.359375 3.25 -3.515625 2.734375 -3.515625 C 1.953125 -3.515625 1.59375 -2.96875 1.484375 -2.75 L 1.484375 -3.515625 L 0.328125 -3.421875 L 0.328125 -3.15625 C 0.875 -3.15625 0.9375 -3.109375 0.9375 -2.71875 L 0.9375 -0.625 C 0.9375 -0.265625 0.84375 -0.265625 0.328125 -0.265625 L 0.328125 0 C 0.671875 -0.03125 1.015625 -0.03125 1.234375 -0.03125 C 1.46875 -0.03125 1.796875 -0.03125 2.140625 0 L 2.140625 -0.265625 C 1.640625 -0.265625 1.53125 -0.265625 1.53125 -0.625 L 1.53125 -2.0625 C 1.53125 -2.90625 2.171875 -3.296875 2.671875 -3.296875 C 3.1875 -3.296875 3.28125 -2.890625 3.28125 -2.453125 L 3.28125 -0.625 C 3.28125 -0.265625 3.171875 -0.265625 2.671875 -0.265625 L 2.671875 0 C 3.015625 -0.03125 3.359375 -0.03125 3.578125 -0.03125 C 3.8125 -0.03125 4.140625 -0.03125 4.484375 0 L 4.484375 -0.265625 C 3.96875 -0.265625 3.875 -0.265625 3.875 -0.625 L 3.875 -2.0625 C 3.875 -2.90625 4.515625 -3.296875 5.015625 -3.296875 C 5.53125 -3.296875 5.625 -2.890625 5.625 -2.453125 L 5.625 -0.625 C 5.625 -0.265625 5.515625 -0.265625 5.015625 -0.265625 L 5.015625 0 C 5.359375 -0.03125 5.703125 -0.03125 5.921875 -0.03125 C 6.15625 -0.03125 6.484375 -0.03125 6.828125 0 L 6.828125 -0.265625 C 6.3125 -0.265625 6.21875 -0.265625 6.21875 -0.625 Z M 6.21875 -2.421875 "/>
</symbol>
<symbol overflow="visible" id="glyph1-5">
<path style="stroke:none;" d="M 3.71875 -5.65625 C 3.75 -5.75 3.75 -5.78125 3.75 -5.796875 C 3.75 -5.890625 3.671875 -5.96875 3.5625 -5.96875 C 3.4375 -5.96875 3.40625 -5.875 3.375 -5.78125 L 0.515625 1.671875 C 0.46875 1.765625 0.46875 1.796875 0.46875 1.8125 C 0.46875 1.90625 0.546875 1.984375 0.65625 1.984375 C 0.78125 1.984375 0.8125 1.890625 0.859375 1.796875 Z M 3.71875 -5.65625 "/>
</symbol>
<symbol overflow="visible" id="glyph1-6">
<path style="stroke:none;" d="M 2.25 -1.625 C 2.375 -1.75 2.703125 -2.015625 2.84375 -2.125 C 3.328125 -2.578125 3.796875 -3.015625 3.796875 -3.734375 C 3.796875 -4.6875 3 -5.296875 2.015625 -5.296875 C 1.046875 -5.296875 0.421875 -4.578125 0.421875 -3.859375 C 0.421875 -3.46875 0.734375 -3.421875 0.84375 -3.421875 C 1.015625 -3.421875 1.265625 -3.53125 1.265625 -3.84375 C 1.265625 -4.25 0.859375 -4.25 0.765625 -4.25 C 1 -4.84375 1.53125 -5.03125 1.921875 -5.03125 C 2.65625 -5.03125 3.046875 -4.40625 3.046875 -3.734375 C 3.046875 -2.90625 2.46875 -2.296875 1.515625 -1.34375 L 0.515625 -0.296875 C 0.421875 -0.21875 0.421875 -0.203125 0.421875 0 L 3.5625 0 L 3.796875 -1.421875 L 3.546875 -1.421875 C 3.53125 -1.265625 3.46875 -0.875 3.375 -0.71875 C 3.328125 -0.65625 2.71875 -0.65625 2.59375 -0.65625 L 1.171875 -0.65625 Z M 2.25 -1.625 "/>
</symbol>
<symbol overflow="visible" id="glyph1-7">
<path style="stroke:none;" d="M 2.015625 -2.65625 C 2.640625 -2.65625 3.046875 -2.203125 3.046875 -1.359375 C 3.046875 -0.359375 2.484375 -0.078125 2.0625 -0.078125 C 1.625 -0.078125 1.015625 -0.234375 0.734375 -0.65625 C 1.03125 -0.65625 1.234375 -0.84375 1.234375 -1.09375 C 1.234375 -1.359375 1.046875 -1.53125 0.78125 -1.53125 C 0.578125 -1.53125 0.34375 -1.40625 0.34375 -1.078125 C 0.34375 -0.328125 1.15625 0.171875 2.078125 0.171875 C 3.125 0.171875 3.875 -0.5625 3.875 -1.359375 C 3.875 -2.03125 3.34375 -2.625 2.53125 -2.8125 C 3.15625 -3.03125 3.640625 -3.5625 3.640625 -4.203125 C 3.640625 -4.84375 2.921875 -5.296875 2.09375 -5.296875 C 1.234375 -5.296875 0.59375 -4.84375 0.59375 -4.234375 C 0.59375 -3.9375 0.78125 -3.8125 1 -3.8125 C 1.25 -3.8125 1.40625 -3.984375 1.40625 -4.21875 C 1.40625 -4.515625 1.140625 -4.625 0.96875 -4.625 C 1.3125 -5.0625 1.921875 -5.09375 2.0625 -5.09375 C 2.265625 -5.09375 2.875 -5.03125 2.875 -4.203125 C 2.875 -3.65625 2.640625 -3.3125 2.53125 -3.1875 C 2.296875 -2.9375 2.109375 -2.921875 1.625 -2.890625 C 1.46875 -2.890625 1.40625 -2.875 1.40625 -2.765625 C 1.40625 -2.65625 1.484375 -2.65625 1.625 -2.65625 Z M 2.015625 -2.65625 "/>
</symbol>
<symbol overflow="visible" id="glyph1-8">
<path style="stroke:none;" d="M 1.109375 -4.484375 C 1.21875 -4.453125 1.53125 -4.359375 1.875 -4.359375 C 2.875 -4.359375 3.46875 -5.0625 3.46875 -5.1875 C 3.46875 -5.28125 3.421875 -5.296875 3.375 -5.296875 C 3.359375 -5.296875 3.34375 -5.296875 3.28125 -5.265625 C 2.96875 -5.140625 2.59375 -5.046875 2.171875 -5.046875 C 1.703125 -5.046875 1.3125 -5.15625 1.0625 -5.265625 C 0.984375 -5.296875 0.96875 -5.296875 0.953125 -5.296875 C 0.859375 -5.296875 0.859375 -5.21875 0.859375 -5.0625 L 0.859375 -2.734375 C 0.859375 -2.59375 0.859375 -2.5 0.984375 -2.5 C 1.046875 -2.5 1.0625 -2.53125 1.109375 -2.59375 C 1.203125 -2.703125 1.5 -3.109375 2.1875 -3.109375 C 2.625 -3.109375 2.84375 -2.75 2.921875 -2.59375 C 3.046875 -2.3125 3.0625 -1.9375 3.0625 -1.640625 C 3.0625 -1.34375 3.0625 -0.90625 2.84375 -0.5625 C 2.6875 -0.3125 2.359375 -0.078125 1.9375 -0.078125 C 1.421875 -0.078125 0.921875 -0.390625 0.734375 -0.921875 C 0.75 -0.90625 0.8125 -0.90625 0.8125 -0.90625 C 1.03125 -0.90625 1.21875 -1.046875 1.21875 -1.296875 C 1.21875 -1.59375 0.984375 -1.703125 0.828125 -1.703125 C 0.671875 -1.703125 0.421875 -1.625 0.421875 -1.28125 C 0.421875 -0.5625 1.046875 0.171875 1.953125 0.171875 C 2.953125 0.171875 3.796875 -0.609375 3.796875 -1.59375 C 3.796875 -2.515625 3.125 -3.34375 2.1875 -3.34375 C 1.796875 -3.34375 1.421875 -3.21875 1.109375 -2.9375 Z M 1.109375 -4.484375 "/>
</symbol>
<symbol overflow="visible" id="glyph1-9">
<path style="stroke:none;" d="M 4.03125 -4.859375 C 4.109375 -4.9375 4.109375 -4.953125 4.109375 -5.125 L 2.078125 -5.125 C 1.875 -5.125 1.640625 -5.140625 1.4375 -5.15625 C 1.015625 -5.1875 1.015625 -5.265625 0.984375 -5.390625 L 0.734375 -5.390625 L 0.46875 -3.703125 L 0.71875 -3.703125 C 0.734375 -3.828125 0.828125 -4.375 0.9375 -4.4375 C 1.015625 -4.484375 1.625 -4.484375 1.734375 -4.484375 L 3.421875 -4.484375 L 2.609375 -3.375 C 1.703125 -2.171875 1.5 -0.90625 1.5 -0.28125 C 1.5 -0.203125 1.5 0.171875 1.875 0.171875 C 2.25 0.171875 2.25 -0.1875 2.25 -0.28125 L 2.25 -0.671875 C 2.25 -1.8125 2.453125 -2.75 2.84375 -3.28125 Z M 4.03125 -4.859375 "/>
</symbol>
<symbol overflow="visible" id="glyph1-10">
<path style="stroke:none;" d="M 3.140625 -5.15625 C 3.140625 -5.3125 3.140625 -5.375 2.96875 -5.375 C 2.875 -5.375 2.859375 -5.375 2.78125 -5.265625 L 0.234375 -1.5625 L 0.234375 -1.3125 L 2.484375 -1.3125 L 2.484375 -0.640625 C 2.484375 -0.34375 2.46875 -0.265625 1.84375 -0.265625 L 1.671875 -0.265625 L 1.671875 0 C 2.34375 -0.03125 2.359375 -0.03125 2.8125 -0.03125 C 3.265625 -0.03125 3.28125 -0.03125 3.953125 0 L 3.953125 -0.265625 L 3.78125 -0.265625 C 3.15625 -0.265625 3.140625 -0.34375 3.140625 -0.640625 L 3.140625 -1.3125 L 3.984375 -1.3125 L 3.984375 -1.5625 L 3.140625 -1.5625 Z M 2.546875 -4.515625 L 2.546875 -1.5625 L 0.515625 -1.5625 Z M 2.546875 -4.515625 "/>
</symbol>
<symbol overflow="visible" id="glyph1-11">
<path style="stroke:none;" d="M 2.640625 -2.875 C 3.09375 -3.09375 3.640625 -3.484375 3.640625 -4.109375 C 3.640625 -4.875 2.859375 -5.296875 2.125 -5.296875 C 1.28125 -5.296875 0.59375 -4.71875 0.59375 -3.96875 C 0.59375 -3.671875 0.6875 -3.40625 0.890625 -3.171875 C 1.03125 -3 1.0625 -2.984375 1.546875 -2.671875 C 0.5625 -2.234375 0.34375 -1.65625 0.34375 -1.21875 C 0.34375 -0.328125 1.234375 0.171875 2.109375 0.171875 C 3.078125 0.171875 3.875 -0.5 3.875 -1.34375 C 3.875 -1.84375 3.609375 -2.171875 3.46875 -2.3125 C 3.34375 -2.4375 3.328125 -2.453125 2.640625 -2.875 Z M 1.40625 -3.625 C 1.171875 -3.765625 0.984375 -4 0.984375 -4.265625 C 0.984375 -4.765625 1.53125 -5.09375 2.109375 -5.09375 C 2.71875 -5.09375 3.234375 -4.671875 3.234375 -4.109375 C 3.234375 -3.65625 2.875 -3.265625 2.40625 -3.03125 Z M 1.796875 -2.53125 C 1.828125 -2.515625 2.734375 -1.953125 2.875 -1.875 C 3 -1.796875 3.421875 -1.546875 3.421875 -1.0625 C 3.421875 -0.453125 2.765625 -0.078125 2.125 -0.078125 C 1.40625 -0.078125 0.8125 -0.5625 0.8125 -1.21875 C 0.8125 -1.8125 1.25 -2.28125 1.796875 -2.53125 Z M 1.796875 -2.53125 "/>
</symbol>
</g>
</defs>
<g id="surface1">
<path style="fill:none;stroke-width:0.3985;stroke-linecap:butt;stroke-linejoin:miter;stroke:rgb(0%,0%,0%);stroke-opacity:1;stroke-miterlimit:10;" d="M -11.338188 -0.00103125 L 190.767281 -0.00103125 " transform="matrix(1,0,0,-1,21.471,136.456)"/>
<path style=" stroke:none;fill-rule:nonzero;fill:rgb(0%,0%,0%);fill-opacity:1;" d="M 214.230469 136.457031 L 211.042969 134.863281 L 212.238281 136.457031 L 211.042969 138.050781 "/>
<g style="fill:rgb(0%,0%,0%);fill-opacity:1;">
  <use xlink:href="#glyph0-1" x="207.735" y="130.943"/>
</g>
<g style="fill:rgb(0%,0%,0%);fill-opacity:1;">
  <use xlink:href="#glyph1-1" x="210.793" y="130.943"/>
  <use xlink:href="#glyph1-2" x="214.086245" y="130.943"/>
  <use xlink:href="#glyph1-3" x="217.426514" y="130.943"/>
</g>
<path style="fill:none;stroke-width:0.3985;stroke-linecap:butt;stroke-linejoin:miter;stroke:rgb(0%,0%,0%);stroke-opacity:1;stroke-miterlimit:10;" d="M 0.00165625 -12.754938 L 0.00165625 119.190375 " transform="matrix(1,0,0,-1,21.471,136.456)"/>
<path style=" stroke:none;fill-rule:nonzero;fill:rgb(0%,0%,0%);fill-opacity:1;" d="M 21.472656 15.273438 L 19.878906 18.460938 L 21.472656 17.265625 L 23.066406 18.460938 "/>
<g style="fill:rgb(0%,0%,0%);fill-opacity:1;">
  <use xlink:href="#glyph0-2" x="24.991" y="17.268"/>
</g>
<g style="fill:rgb(0%,0%,0%);fill-opacity:1;">
  <use xlink:href="#glyph1-1" x="29.4" y="17.268"/>
  <use xlink:href="#glyph1-4" x="32.693245" y="17.268"/>
  <use xlink:href="#glyph1-5" x="39.749972" y="17.268"/>
  <use xlink:href="#glyph1-2" x="43.984486" y="17.268"/>
  <use xlink:href="#glyph1-3" x="47.324755" y="17.268"/>
</g>
<g style="fill:rgb(0%,0%,0%);fill-opacity:1;">
  <use xlink:href="#glyph0-3" x="11.291" y="145.422"/>
</g>
<path style="fill:none;stroke-width:0.3985;stroke-linecap:butt;stroke-linejoin:miter;stroke:rgb(0%,0%,0%);stroke-opacity:1;stroke-miterlimit:10;" d="M 45.353219 1.276312 L 45.353219 -1.274469 " transform="matrix(1,0,0,-1,21.471,136.456)"/>
<g style="fill:rgb(0%,0%,0%);fill-opacity:1;">
  <use xlink:href="#glyph1-6" x="64.708" y="146.387"/>
</g>
<path style="fill:none;stroke-width:0.3985;stroke-linecap:butt;stroke-linejoin:miter;stroke:rgb(0%,0%,0%);stroke-opacity:1;stroke-miterlimit:10;" d="M 68.032906 1.276312 L 68.032906 -1.274469 " transform="matrix(1,0,0,-1,21.471,136.456)"/>
<g style="fill:rgb(0%,0%,0%);fill-opacity:1;">
  <use xlink:href="#glyph1-7" x="87.386" y="146.387"/>
</g>
<path style="fill:none;stroke-width:0.3985;stroke-linecap:butt;stroke-linejoin:miter;stroke:rgb(0%,0%,0%);stroke-opacity:1;stroke-miterlimit:10;" d="M 113.388375 1.276312 L 113.388375 -1.274469 " transform="matrix(1,0,0,-1,21.471,136.456)"/>
<g style="fill:rgb(0%,0%,0%);fill-opacity:1;">
  <use xlink:href="#glyph1-8" x="132.74" y="146.387"/>
</g>
<path style="fill:none;stroke-width:0.3985;stroke-linecap:butt;stroke-linejoin:miter;stroke:rgb(0%,0%,0%);stroke-opacity:1;stroke-miterlimit:10;" d="M 158.743844 1.276312 L 158.743844 -1.274469 " transform="matrix(1,0,0,-1,21.471,136.456)"/>
<g style="fill:rgb(0%,0%,0%);fill-opacity:1;">
  <use xlink:href="#glyph1-9" x="178.095" y="146.387"/>
</g>
<path style="fill:none;stroke-width:0.3985;stroke-linecap:butt;stroke-linejoin:miter;stroke:rgb(0%,0%,0%);stroke-opacity:1;stroke-miterlimit:10;" d="M 2.267281 51.022406 L -2.267875 51.022406 " transform="matrix(1,0,0,-1,21.471,136.456)"/>
<g style="fill:rgb(0%,0%,0%);fill-opacity:1;">
  <use xlink:href="#glyph1-10" x="11.449" y="88.001"/>
</g>
<path style="fill:none;stroke-width:0.3985;stroke-linecap:butt;stroke-linejoin:miter;stroke:rgb(0%,0%,0%);stroke-opacity:1;stroke-miterlimit:10;" d="M 2.267281 63.780219 L -2.267875 63.780219 " transform="matrix(1,0,0,-1,21.471,136.456)"/>
<g style="fill:rgb(0%,0%,0%);fill-opacity:1;">
  <use xlink:href="#glyph1-8" x="11.449" y="75.245"/>
</g>
<path style="fill:none;stroke-width:0.3985;stroke-linecap:butt;stroke-linejoin:miter;stroke:rgb(0%,0%,0%);stroke-opacity:1;stroke-miterlimit:10;" d="M 2.267281 102.04975 L -2.267875 102.04975 " transform="matrix(1,0,0,-1,21.471,136.456)"/>
<g style="fill:rgb(0%,0%,0%);fill-opacity:1;">
  <use xlink:href="#glyph1-11" x="11.449" y="36.977"/>
</g>
<path style="fill:none;stroke-width:0.3985;stroke-linecap:butt;stroke-linejoin:miter;stroke:rgb(0%,0%,0%);stroke-opacity:1;stroke-dasharray:2.98883,2.98883;stroke-miterlimit:10;" d="M 45.353219 -0.00103125 L 45.353219 63.780219 L 0.00165625 63.780219 " transform="matrix(1,0,0,-1,21.471,136.456)"/>
<path style="fill:none;stroke-width:0.3985;stroke-linecap:butt;stroke-linejoin:miter;stroke:rgb(0%,0%,0%);stroke-opacity:1;stroke-dasharray:2.98883,2.98883;stroke-miterlimit:10;" d="M 68.032906 -0.00103125 L 68.032906 51.022406 L 0.00165625 51.022406 " transform="matrix(1,0,0,-1,21.471,136.456)"/>
<path style="fill:none;stroke-width:0.3985;stroke-linecap:butt;stroke-linejoin:miter;stroke:rgb(0%,0%,0%);stroke-opacity:1;stroke-dasharray:2.98883,2.98883;stroke-miterlimit:10;" d="M 113.388375 -0.00103125 L 113.388375 102.04975 L 0.00165625 102.04975 " transform="matrix(1,0,0,-1,21.471,136.456)"/>
<path style="fill:none;stroke-width:0.79701;stroke-linecap:butt;stroke-linejoin:miter;stroke:rgb(0%,0%,0%);stroke-opacity:1;stroke-miterlimit:10;" d="M 0.00165625 63.780219 L 45.353219 63.780219 " transform="matrix(1,0,0,-1,21.471,136.456)"/>
<path style="fill:none;stroke-width:0.79701;stroke-linecap:butt;stroke-linejoin:miter;stroke:rgb(0%,0%,0%);stroke-opacity:1;stroke-miterlimit:10;" d="M 45.353219 63.780219 C 45.353219 63.780219 45.853219 63.225531 46.040719 63.0185 C 46.232125 62.811469 46.536812 62.483344 46.728219 62.280219 C 46.919625 62.081 47.224312 61.760687 47.415719 61.565375 C 47.607125 61.373969 47.911812 61.065375 48.103219 60.877875 C 48.294625 60.686469 48.599312 60.389594 48.790719 60.209906 C 48.978219 60.026312 49.286812 59.741156 49.478219 59.565375 C 49.665719 59.389594 49.974312 59.11225 50.161812 58.944281 C 50.353219 58.776312 50.657906 58.510687 50.849312 58.346625 C 51.040719 58.182562 51.345406 57.928656 51.536812 57.772406 C 51.728219 57.616156 52.032906 57.373969 52.224312 57.221625 C 52.415719 57.073187 52.720406 56.838812 52.911812 56.694281 C 53.099312 56.553656 53.407906 56.327094 53.599312 56.190375 C 53.786812 56.057562 54.095406 55.842719 54.282906 55.713812 C 54.474312 55.581 54.779 55.377875 54.970406 55.256781 C 55.161812 55.131781 55.4665 54.940375 55.657906 54.823187 C 55.849312 54.706 56.154 54.522406 56.345406 54.413031 C 56.536812 54.29975 56.8415 54.127875 57.032906 54.026312 C 57.224312 53.920844 57.529 53.760687 57.720406 53.663031 C 57.907906 53.565375 58.2165 53.413031 58.404 53.323187 C 58.595406 53.233344 58.900094 53.092719 59.0915 53.006781 C 59.282906 52.920844 59.587594 52.791937 59.779 52.713812 C 59.970406 52.635687 60.275094 52.514594 60.4665 52.444281 C 60.657906 52.373969 60.962594 52.264594 61.154 52.198187 C 61.345406 52.131781 61.650094 52.034125 61.8415 51.975531 C 62.029 51.916937 62.337594 51.827094 62.525094 51.776312 C 62.7165 51.721625 63.025094 51.6435 63.212594 51.600531 C 63.404 51.553656 63.708687 51.48725 63.900094 51.448187 C 64.0915 51.409125 64.396187 51.350531 64.587594 51.319281 C 64.779 51.284125 65.083687 51.23725 65.275094 51.213812 C 65.4665 51.186469 65.771187 51.151312 65.962594 51.131781 C 66.150094 51.11225 66.458687 51.084906 66.646187 51.073187 C 66.837594 51.057562 67.146187 51.041937 67.333687 51.034125 C 67.525094 51.030219 67.829781 51.022406 68.021187 51.022406 C 68.212594 51.022406 68.517281 51.030219 68.708687 51.034125 C 68.900094 51.041937 69.204781 51.057562 69.396187 51.069281 C 69.587594 51.081 69.892281 51.108344 70.083687 51.127875 C 70.271187 51.147406 70.579781 51.182562 70.771187 51.209906 C 70.958687 51.23725 71.267281 51.280219 71.454781 51.315375 C 71.646187 51.346625 71.950875 51.405219 72.142281 51.444281 C 72.333687 51.483344 72.638375 51.54975 72.829781 51.592719 C 73.021187 51.639594 73.325875 51.717719 73.517281 51.7685 C 73.708687 51.823187 74.013375 51.909125 74.204781 51.967719 C 74.396187 52.026312 74.700875 52.123969 74.892281 52.190375 C 75.079781 52.256781 75.388375 52.366156 75.575875 52.436469 C 75.767281 52.506781 76.071969 52.627875 76.263375 52.706 C 76.454781 52.784125 76.759469 52.913031 76.950875 52.995062 C 77.142281 53.081 77.446969 53.221625 77.638375 53.311469 C 77.829781 53.401312 78.134469 53.553656 78.325875 53.651312 C 78.517281 53.748969 78.821969 53.909125 79.013375 54.014594 C 79.200875 54.116156 79.509469 54.288031 79.696969 54.401312 C 79.888375 54.510687 80.193062 54.690375 80.384469 54.807562 C 80.575875 54.92475 80.880562 55.116156 81.071969 55.241156 C 81.263375 55.366156 81.568062 55.569281 81.759469 55.698187 C 81.950875 55.827094 82.255562 56.041937 82.446969 56.178656 C 82.638375 56.311469 82.943062 56.538031 83.134469 56.678656 C 83.321969 56.823187 83.630562 57.057562 83.818062 57.206 C 84.009469 57.354437 84.318062 57.600531 84.505562 57.756781 C 84.696969 57.913031 85.001656 58.166937 85.193062 58.327094 C 85.384469 58.491156 85.689156 58.756781 85.880562 58.92475 C 86.071969 59.092719 86.376656 59.370062 86.568062 59.545844 C 86.759469 59.721625 87.064156 60.006781 87.255562 60.186469 C 87.443062 60.370062 87.751656 60.666937 87.943062 60.854437 C 88.130562 61.041937 88.439156 61.350531 88.626656 61.545844 C 88.818062 61.741156 89.12275 62.057562 89.314156 62.256781 C 89.505562 62.459906 89.81025 62.788031 90.001656 62.995062 C 90.193062 63.202094 90.49775 63.541937 90.689156 63.756781 C 90.880562 63.971625 91.18525 64.319281 91.376656 64.538031 C 91.568062 64.760687 91.87275 65.120062 92.064156 65.346625 C 92.251656 65.573187 92.56025 65.944281 92.74775 66.178656 C 92.939156 66.409125 93.243844 66.791937 93.43525 67.030219 C 93.626656 67.272406 93.931344 67.663031 94.12275 67.909125 C 94.314156 68.155219 94.618844 68.557562 94.81025 68.807562 C 95.001656 69.061469 95.306344 69.471625 95.49775 69.733344 C 95.689156 69.991156 95.993844 70.413031 96.18525 70.678656 C 96.37275 70.948187 96.681344 71.377875 96.868844 71.651312 C 97.06025 71.92475 97.364937 72.366156 97.556344 72.647406 C 97.74775 72.92475 98.052437 73.377875 98.243844 73.663031 C 98.43525 73.948187 98.739937 74.413031 98.931344 74.706 C 99.12275 74.995062 99.427437 75.471625 99.618844 75.7685 C 99.81025 76.069281 100.114937 76.553656 100.306344 76.858344 C 100.493844 77.163031 100.802437 77.655219 100.989937 77.967719 C 101.181344 78.280219 101.489937 78.784125 101.677437 79.104437 C 101.868844 79.420844 102.173531 79.936469 102.364937 80.260687 C 102.556344 80.584906 102.861031 81.11225 103.052437 81.444281 C 103.243844 81.772406 103.548531 82.311469 103.739937 82.647406 C 103.931344 82.98725 104.236031 83.534125 104.427437 83.877875 C 104.614937 84.221625 104.923531 84.776312 105.114937 85.127875 C 105.302437 85.479437 105.611031 86.045844 105.798531 86.405219 C 105.989937 86.760687 106.294625 87.338812 106.486031 87.702094 C 106.677437 88.065375 106.982125 88.655219 107.173531 89.022406 C 107.364937 89.3935 107.669625 89.991156 107.861031 90.370062 C 108.052437 90.745062 108.357125 91.354437 108.548531 91.73725 C 108.736031 92.120062 109.044625 92.741156 109.236031 93.131781 C 109.423531 93.5185 109.732125 94.151312 109.919625 94.545844 C 110.111031 94.940375 110.415719 95.581 110.607125 95.983344 C 110.798531 96.389594 111.103219 97.038031 111.294625 97.448187 C 111.486031 97.858344 111.790719 98.5185 111.982125 98.932562 C 112.173531 99.350531 112.478219 100.022406 112.669625 100.444281 C 112.861031 100.866156 113.357125 101.975531 113.357125 101.975531 " transform="matrix(1,0,0,-1,21.471,136.456)"/>
<path style="fill:none;stroke-width:0.79701;stroke-linecap:butt;stroke-linejoin:miter;stroke:rgb(0%,0%,0%);stroke-opacity:1;stroke-miterlimit:10;" d="M 113.388375 102.04975 L 158.743844 -0.00103125 " transform="matrix(1,0,0,-1,21.471,136.456)"/>
<path style=" stroke:none;fill-rule:nonzero;fill:rgb(0%,0%,0%);fill-opacity:1;" d="M 68.023438 72.675781 C 68.023438 72.304688 67.484375 72.003906 66.824219 72.003906 C 66.164062 72.003906 65.628906 72.304688 65.628906 72.675781 C 65.628906 73.046875 66.164062 73.347656 66.824219 73.347656 C 67.484375 73.347656 68.023438 73.046875 68.023438 72.675781 Z M 68.023438 72.675781 "/>
<path style=" stroke:none;fill-rule:nonzero;fill:rgb(0%,0%,0%);fill-opacity:1;" d="M 90.699219 85.433594 C 90.699219 85.0625 90.164062 84.757812 89.503906 84.757812 C 88.84375 84.757812 88.308594 85.0625 88.308594 85.433594 C 88.308594 85.804688 88.84375 86.105469 89.503906 86.105469 C 90.164062 86.105469 90.699219 85.804688 90.699219 85.433594 Z M 90.699219 85.433594 "/>
<path style=" stroke:none;fill-rule:nonzero;fill:rgb(0%,0%,0%);fill-opacity:1;" d="M 136.054688 34.40625 C 136.054688 34.035156 135.519531 33.734375 134.859375 33.734375 C 134.199219 33.734375 133.664062 34.035156 133.664062 34.40625 C 133.664062 34.78125 134.199219 35.082031 134.859375 35.082031 C 135.519531 35.082031 136.054688 34.78125 136.054688 34.40625 Z M 136.054688 34.40625 "/>
<path style=" stroke:none;fill-rule:nonzero;fill:rgb(0%,0%,0%);fill-opacity:1;" d="M 181.410156 136.457031 C 181.410156 136.085938 180.875 135.785156 180.214844 135.785156 C 179.554688 135.785156 179.019531 136.085938 179.019531 136.457031 C 179.019531 136.828125 179.554688 137.128906 180.214844 137.128906 C 180.875 137.128906 181.410156 136.828125 181.410156 136.457031 Z M 181.410156 136.457031 "/>
</g>
</svg>