<svg xmlns="http://www.w3.org/2000/svg" xmlns:xlink="http://www.w3.org/1999/xlink" width="133.713pt" height="108.549pt" viewBox="0 0 133.713 108.549" version="1.1">
<defs>
<g>
<symbol overflow="visible" id="glyph0-0">
<path style="stroke:none;" d=""/>
</symbol>
<symbol overflow="visible" id="glyph0-1">
<path style="stroke:none;" d="M 6.09375 -0.15625 C 6.09375 -0.265625 5.984375 -0.265625 5.859375 -0.265625 C 5.421875 -0.265625 5.40625 -0.328125 5.390625 -0.53125 L 4.75 -5.453125 C 4.734375 -5.640625 4.71875 -5.6875 4.59375 -5.6875 C 4.453125 -5.6875 4.40625 -5.609375 4.34375 -5.53125 L 1.46875 -0.953125 C 1.109375 -0.359375 0.78125 -0.28125 0.5 -0.265625 C 0.421875 -0.25 0.3125 -0.25 0.3125 -0.109375 C 0.3125 -0.09375 0.328125 0 0.4375 0 C 0.5 0 0.546875 -0.03125 1.109375 -0.03125 C 1.65625 -0.03125 1.828125 0 1.875 0 C 1.90625 0 2.03125 0 2.03125 -0.15625 C 2.03125 -0.25 1.921875 -0.265625 1.890625 -0.265625 C 1.71875 -0.265625 1.546875 -0.328125 1.546875 -0.515625 C 1.546875 -0.625 1.625 -0.734375 1.765625 -0.96875 L 2.3125 -1.84375 L 4.5 -1.84375 L 4.65625 -0.5 C 4.65625 -0.375 4.515625 -0.265625 4.140625 -0.265625 C 4.03125 -0.265625 3.921875 -0.265625 3.921875 -0.109375 C 3.921875 -0.109375 3.921875 0 4.0625 0 C 4.140625 0 4.4375 -0.015625 4.515625 -0.03125 L 5.015625 -0.03125 C 5.734375 -0.03125 5.859375 0 5.921875 0 C 5.953125 0 6.09375 0 6.09375 -0.15625 Z M 4.46875 -2.109375 L 2.484375 -2.109375 L 4.125 -4.71875 Z M 4.46875 -2.109375 "/>
</symbol>
<symbol overflow="visible" id="glyph0-2">
<path style="stroke:none;" d="M 5.90625 -1.703125 C 5.90625 -2.28125 5.40625 -2.75 4.609375 -2.84375 C 5.53125 -3.015625 6.328125 -3.625 6.328125 -4.328125 C 6.328125 -4.921875 5.75 -5.4375 4.75 -5.4375 L 1.96875 -5.4375 C 1.828125 -5.4375 1.71875 -5.4375 1.71875 -5.296875 C 1.71875 -5.171875 1.8125 -5.171875 1.953125 -5.171875 C 2.21875 -5.171875 2.453125 -5.171875 2.453125 -5.046875 C 2.453125 -5.015625 2.4375 -5.015625 2.421875 -4.90625 L 1.34375 -0.625 C 1.28125 -0.328125 1.265625 -0.265625 0.671875 -0.265625 C 0.515625 -0.265625 0.421875 -0.265625 0.421875 -0.109375 C 0.421875 0 0.53125 0 0.65625 0 L 3.625 0 C 4.9375 0 5.90625 -0.9375 5.90625 -1.703125 Z M 5.59375 -4.34375 C 5.59375 -3.671875 4.859375 -2.9375 3.84375 -2.9375 L 2.59375 -2.9375 L 3.078125 -4.890625 C 3.140625 -5.15625 3.15625 -5.171875 3.484375 -5.171875 L 4.625 -5.171875 C 5.40625 -5.171875 5.59375 -4.671875 5.59375 -4.34375 Z M 5.140625 -1.765625 C 5.140625 -0.984375 4.375 -0.265625 3.421875 -0.265625 L 2.046875 -0.265625 C 1.96875 -0.28125 1.9375 -0.28125 1.9375 -0.328125 C 1.9375 -0.390625 1.953125 -0.46875 1.96875 -0.515625 L 2.53125 -2.71875 L 4.15625 -2.71875 C 4.890625 -2.71875 5.140625 -2.21875 5.140625 -1.765625 Z M 5.140625 -1.765625 "/>
</symbol>
<symbol overflow="visible" id="glyph0-3">
<path style="stroke:none;" d="M 6.34375 -5.390625 C 6.34375 -5.421875 6.359375 -5.46875 6.359375 -5.515625 C 6.359375 -5.5625 6.3125 -5.609375 6.265625 -5.609375 C 6.203125 -5.609375 6.1875 -5.59375 6.125 -5.515625 L 5.5625 -4.90625 C 5.484375 -5 5.0625 -5.609375 4.140625 -5.609375 C 2.28125 -5.609375 0.421875 -3.890625 0.421875 -2.0625 C 0.421875 -0.671875 1.46875 0.171875 2.734375 0.171875 C 3.78125 0.171875 4.671875 -0.46875 5.09375 -1.09375 C 5.359375 -1.484375 5.46875 -1.859375 5.46875 -1.90625 C 5.46875 -1.984375 5.421875 -2.015625 5.34375 -2.015625 C 5.25 -2.015625 5.234375 -1.96875 5.21875 -1.890625 C 4.875 -0.78125 3.796875 -0.09375 2.84375 -0.09375 C 2.03125 -0.09375 1.171875 -0.578125 1.171875 -1.796875 C 1.171875 -2.046875 1.265625 -3.375 2.15625 -4.375 C 2.75 -5.046875 3.5625 -5.34375 4.1875 -5.34375 C 5.203125 -5.34375 5.609375 -4.546875 5.609375 -3.78125 C 5.609375 -3.671875 5.578125 -3.515625 5.578125 -3.421875 C 5.578125 -3.328125 5.6875 -3.328125 5.71875 -3.328125 C 5.8125 -3.328125 5.828125 -3.359375 5.859375 -3.5 Z M 6.34375 -5.390625 "/>
</symbol>
<symbol overflow="visible" id="glyph0-4">
<path style="stroke:none;" d="M 7.296875 -5.328125 C 7.296875 -5.328125 7.296875 -5.4375 7.15625 -5.4375 C 7.015625 -5.4375 6.828125 -5.421875 6.671875 -5.421875 L 6.171875 -5.421875 C 5.40625 -5.421875 5.203125 -5.4375 5.140625 -5.4375 C 5.109375 -5.4375 4.984375 -5.4375 4.984375 -5.296875 C 4.984375 -5.171875 5.078125 -5.171875 5.21875 -5.171875 C 5.46875 -5.171875 5.703125 -5.171875 5.703125 -5.046875 C 5.703125 -5.015625 5.703125 -5.015625 5.671875 -4.90625 L 5.203125 -2.96875 L 2.625 -2.96875 L 3.09375 -4.828125 C 3.15625 -5.109375 3.171875 -5.171875 3.765625 -5.171875 C 3.921875 -5.171875 4.015625 -5.171875 4.015625 -5.328125 C 4.015625 -5.328125 4.015625 -5.4375 3.875 -5.4375 C 3.734375 -5.4375 3.53125 -5.421875 3.390625 -5.421875 L 2.890625 -5.421875 C 2.125 -5.421875 1.90625 -5.4375 1.859375 -5.4375 C 1.828125 -5.4375 1.703125 -5.4375 1.703125 -5.296875 C 1.703125 -5.171875 1.796875 -5.171875 1.921875 -5.171875 C 2.1875 -5.171875 2.421875 -5.171875 2.421875 -5.046875 C 2.421875 -5.015625 2.421875 -5.015625 2.390625 -4.90625 L 1.328125 -0.625 C 1.25 -0.328125 1.234375 -0.265625 0.640625 -0.265625 C 0.5 -0.265625 0.390625 -0.265625 0.390625 -0.109375 C 0.390625 -0.078125 0.421875 0 0.53125 0 C 0.671875 0 0.875 -0.015625 1.015625 -0.03125 L 1.53125 -0.03125 C 2.296875 -0.03125 2.5 0 2.5625 0 C 2.609375 0 2.71875 0 2.71875 -0.15625 C 2.71875 -0.265625 2.609375 -0.265625 2.484375 -0.265625 C 2.453125 -0.265625 2.3125 -0.265625 2.171875 -0.28125 C 2.015625 -0.296875 1.984375 -0.3125 1.984375 -0.390625 C 1.984375 -0.4375 2.015625 -0.484375 2.015625 -0.515625 L 2.5625 -2.703125 L 5.125 -2.703125 L 4.578125 -0.515625 C 4.5 -0.265625 4.359375 -0.265625 3.875 -0.265625 C 3.78125 -0.265625 3.6875 -0.265625 3.6875 -0.109375 C 3.6875 -0.078125 3.703125 0 3.8125 0 C 3.953125 0 4.15625 -0.015625 4.296875 -0.03125 L 4.8125 -0.03125 C 5.578125 -0.03125 5.78125 0 5.84375 0 C 5.890625 0 6 0 6 -0.15625 C 6 -0.265625 5.890625 -0.265625 5.765625 -0.265625 C 5.734375 -0.265625 5.59375 -0.265625 5.453125 -0.28125 C 5.296875 -0.296875 5.28125 -0.3125 5.28125 -0.390625 C 5.28125 -0.4375 5.296875 -0.484375 5.296875 -0.515625 L 6.359375 -4.796875 C 6.453125 -5.109375 6.46875 -5.171875 7.015625 -5.171875 C 7.203125 -5.171875 7.296875 -5.171875 7.296875 -5.328125 Z M 7.296875 -5.328125 "/>
</symbol>
</g>
</defs>
<g id="surface1">
<path style="fill:none;stroke-width:0.3985;stroke-linecap:round;stroke-linejoin:round;stroke:rgb(0%,0%,0%);stroke-opacity:1;stroke-miterlimit:10;" d="M -0.00115625 -0.00096875 L -0.00115625 68.038094 L 90.713687 -0.00096875 Z M -0.00115625 -0.00096875 " transform="matrix(1,0,0,-1,21.591,88.292)"/>
<path style="fill:none;stroke-width:0.3985;stroke-linecap:round;stroke-linejoin:round;stroke:rgb(0%,0%,0%);stroke-opacity:1;stroke-miterlimit:10;" d="M -0.00115625 -0.00096875 L 32.659 43.542 " transform="matrix(1,0,0,-1,21.591,88.292)"/>
<path style="fill:none;stroke-width:0.3985;stroke-linecap:round;stroke-linejoin:round;stroke:rgb(0%,0%,0%);stroke-opacity:1;stroke-miterlimit:10;" d="M 6.803531 -0.00096875 L 6.803531 6.803719 L -0.00115625 6.803719 " transform="matrix(1,0,0,-1,21.591,88.292)"/>
<path style="fill:none;stroke-width:0.3985;stroke-linecap:round;stroke-linejoin:round;stroke:rgb(0%,0%,0%);stroke-opacity:1;stroke-miterlimit:10;" d="M 28.576969 38.1045 L 34.022281 34.026375 L 38.100406 39.463875 " transform="matrix(1,0,0,-1,21.591,88.292)"/>
<path style=" stroke:none;fill-rule:nonzero;fill:rgb(0%,0%,0%);fill-opacity:1;" d="M 22.785156 88.292969 C 22.785156 87.632812 22.25 87.097656 21.589844 87.097656 C 20.929688 87.097656 20.394531 87.632812 20.394531 88.292969 C 20.394531 88.953125 20.929688 89.488281 21.589844 89.488281 C 22.25 89.488281 22.785156 88.953125 22.785156 88.292969 Z M 22.785156 88.292969 "/>
<g style="fill:rgb(0%,0%,0%);fill-opacity:1;">
  <use xlink:href="#glyph0-1" x="11.728" y="97.258"/>
</g>
<path style=" stroke:none;fill-rule:nonzero;fill:rgb(0%,0%,0%);fill-opacity:1;" d="M 22.785156 20.253906 C 22.785156 19.59375 22.25 19.058594 21.589844 19.058594 C 20.929688 19.058594 20.394531 19.59375 20.394531 20.253906 C 20.394531 20.917969 20.929688 21.453125 21.589844 21.453125 C 22.25 21.453125 22.785156 20.917969 22.785156 20.253906 Z M 22.785156 20.253906 "/>
<g style="fill:rgb(0%,0%,0%);fill-opacity:1;">
  <use xlink:href="#glyph0-2" x="11.291" y="16.737"/>
</g>
<path style=" stroke:none;fill-rule:nonzero;fill:rgb(0%,0%,0%);fill-opacity:1;" d="M 113.5 88.292969 C 113.5 87.632812 112.964844 87.097656 112.304688 87.097656 C 111.644531 87.097656 111.109375 87.632812 111.109375 88.292969 C 111.109375 88.953125 111.644531 89.488281 112.304688 89.488281 C 112.964844 89.488281 113.5 88.953125 113.5 88.292969 Z M 113.5 88.292969 "/>
<g style="fill:rgb(0%,0%,0%);fill-opacity:1;">
  <use xlink:href="#glyph0-3" x="115.824" y="97.258"/>
</g>
<path style=" stroke:none;fill-rule:nonzero;fill:rgb(0%,0%,0%);fill-opacity:1;" d="M 55.445312 44.75 C 55.445312 44.089844 54.910156 43.554688 54.25 43.554688 C 53.589844 43.554688 53.054688 44.089844 53.054688 44.75 C 53.054688 45.410156 53.589844 45.945312 54.25 45.945312 C 54.910156 45.945312 55.445312 45.410156 55.445312 44.75 Z M 55.445312 44.75 "/>
<g style="fill:rgb(0%,0%,0%);fill-opacity:1;">
  <use xlink:href="#glyph0-4" x="57.767" y="41.23"/>
</g>
</g>
</svg>