<svg xmlns="http://www.w3.org/2000/svg" xmlns:xlink="http://www.w3.org/1999/xlink" width="199.489pt" height="168.072pt" viewBox="0 0 199.489 168.072" version="1.1">
<defs>
<g>
<symbol overflow="visible" id="glyph0-0">
<path style="stroke:none;" d=""/>
</symbol>
<symbol overflow="visible" id="glyph0-1">
<path style="stroke:none;" d="M 1.46875 -0.953125 C 1.109375 -0.359375 0.78125 -0.28125 0.5 -0.265625 C 0.421875 -0.25 0.3125 -0.25 0.3125 -0.109375 C 0.3125 -0.09375 0.328125 0 0.4375 0 C 0.5 0 0.546875 -0.03125 1.109375 -0.03125 C 1.65625 -0.03125 1.828125 0 1.875 0 C 1.90625 0 2.03125 0 2.03125 -0.15625 C 2.03125 -0.25 1.921875 -0.265625 1.890625 -0.265625 C 1.71875 -0.265625 1.546875 -0.328125 1.546875 -0.515625 C 1.546875 -0.625 1.625 -0.734375 1.765625 -0.96875 L 2.3125 -1.84375 L 4.5 -1.84375 L 4.65625 -0.5 C 4.65625 -0.375 4.515625 -0.265625 4.140625 -0.265625 C 4.03125 -0.265625 3.921875 -0.265625 3.921875 -0.109375 C 3.921875 -0.109375 3.921875 0 4.0625 0 C 4.140625 0 4.4375 -0.015625 4.515625 -0.03125 L 5.015625 -0.03125 C 5.734375 -0.03125 5.859375 0 5.921875 0 C 5.953125 0 6.09375 0 6.09375 -0.15625 C 6.09375 -0.265625 5.984375 -0.265625 5.859375 -0.265625 C 5.421875 -0.265625 5.40625 -0.328125 5.390625 -0.53125 L 4.75 -5.453125 C 4.734375 -5.640625 4.71875 -5.6875 4.59375 -5.6875 C 4.453125 -5.6875 4.40625 -5.609375 4.34375 -5.53125 Z M 2.484375 -2.109375 L 4.125 -4.71875 L 4.46875 -2.109375 Z M 2.484375 -2.109375 "/>
</symbol>
<symbol overflow="visible" id="glyph0-2">
<path style="stroke:none;" d="M 1.34375 -0.625 C 1.28125 -0.328125 1.265625 -0.265625 0.671875 -0.265625 C 0.515625 -0.265625 0.421875 -0.265625 0.421875 -0.109375 C 0.421875 0 0.53125 0 0.65625 0 L 3.625 0 C 4.9375 0 5.90625 -0.9375 5.90625 -1.703125 C 5.90625 -2.28125 5.40625 -2.75 4.609375 -2.84375 C 5.53125 -3.015625 6.328125 -3.625 6.328125 -4.328125 C 6.328125 -4.921875 5.75 -5.4375 4.75 -5.4375 L 1.96875 -5.4375 C 1.828125 -5.4375 1.71875 -5.4375 1.71875 -5.296875 C 1.71875 -5.171875 1.8125 -5.171875 1.953125 -5.171875 C 2.21875 -5.171875 2.453125 -5.171875 2.453125 -5.046875 C 2.453125 -5.015625 2.4375 -5.015625 2.421875 -4.90625 Z M 2.59375 -2.9375 L 3.078125 -4.890625 C 3.140625 -5.15625 3.15625 -5.171875 3.484375 -5.171875 L 4.625 -5.171875 C 5.40625 -5.171875 5.59375 -4.671875 5.59375 -4.34375 C 5.59375 -3.671875 4.859375 -2.9375 3.84375 -2.9375 Z M 2.046875 -0.265625 C 1.96875 -0.28125 1.9375 -0.28125 1.9375 -0.328125 C 1.9375 -0.390625 1.953125 -0.46875 1.96875 -0.515625 L 2.53125 -2.71875 L 4.15625 -2.71875 C 4.890625 -2.71875 5.140625 -2.21875 5.140625 -1.765625 C 5.140625 -0.984375 4.375 -0.265625 3.421875 -0.265625 Z M 2.046875 -0.265625 "/>
</symbol>
<symbol overflow="visible" id="glyph0-3">
<path style="stroke:none;" d="M 6.34375 -5.390625 C 6.34375 -5.421875 6.359375 -5.46875 6.359375 -5.515625 C 6.359375 -5.5625 6.3125 -5.609375 6.265625 -5.609375 C 6.203125 -5.609375 6.1875 -5.59375 6.125 -5.515625 L 5.5625 -4.90625 C 5.484375 -5 5.0625 -5.609375 4.140625 -5.609375 C 2.28125 -5.609375 0.421875 -3.890625 0.421875 -2.0625 C 0.421875 -0.671875 1.46875 0.171875 2.734375 0.171875 C 3.78125 0.171875 4.671875 -0.46875 5.09375 -1.09375 C 5.359375 -1.484375 5.46875 -1.859375 5.46875 -1.90625 C 5.46875 -1.984375 5.421875 -2.015625 5.34375 -2.015625 C 5.25 -2.015625 5.234375 -1.96875 5.21875 -1.890625 C 4.875 -0.78125 3.796875 -0.09375 2.84375 -0.09375 C 2.03125 -0.09375 1.171875 -0.578125 1.171875 -1.796875 C 1.171875 -2.046875 1.265625 -3.375 2.15625 -4.375 C 2.75 -5.046875 3.5625 -5.34375 4.1875 -5.34375 C 5.203125 -5.34375 5.609375 -4.546875 5.609375 -3.78125 C 5.609375 -3.671875 5.578125 -3.515625 5.578125 -3.421875 C 5.578125 -3.328125 5.6875 -3.328125 5.71875 -3.328125 C 5.8125 -3.328125 5.828125 -3.359375 5.859375 -3.5 Z M 6.34375 -5.390625 "/>
</symbol>
<symbol overflow="visible" id="glyph0-4">
<path style="stroke:none;" d="M 1.328125 -0.625 C 1.265625 -0.328125 1.25 -0.265625 0.65625 -0.265625 C 0.5 -0.265625 0.40625 -0.265625 0.40625 -0.109375 C 0.40625 0 0.515625 0 0.640625 0 L 3.390625 0 C 5.0625 0 6.734375 -1.609375 6.734375 -3.390625 C 6.734375 -4.609375 5.921875 -5.4375 4.734375 -5.4375 L 1.953125 -5.4375 C 1.8125 -5.4375 1.703125 -5.4375 1.703125 -5.296875 C 1.703125 -5.171875 1.796875 -5.171875 1.9375 -5.171875 C 2.203125 -5.171875 2.4375 -5.171875 2.4375 -5.046875 C 2.4375 -5.015625 2.421875 -5.015625 2.40625 -4.90625 Z M 3.09375 -4.890625 C 3.15625 -5.15625 3.171875 -5.171875 3.5 -5.171875 L 4.46875 -5.171875 C 5.390625 -5.171875 6.03125 -4.640625 6.03125 -3.671875 C 6.03125 -3.40625 5.90625 -2.109375 5.21875 -1.21875 C 4.875 -0.765625 4.1875 -0.265625 3.25 -0.265625 L 2.0625 -0.265625 C 1.984375 -0.28125 1.953125 -0.28125 1.953125 -0.328125 C 1.953125 -0.390625 1.96875 -0.46875 1.984375 -0.515625 Z M 3.09375 -4.890625 "/>
</symbol>
<symbol overflow="visible" id="glyph0-5">
<path style="stroke:none;" d="M 5.34375 -5.390625 C 5.359375 -5.421875 5.375 -5.46875 5.375 -5.515625 C 5.375 -5.5625 5.328125 -5.609375 5.265625 -5.609375 C 5.21875 -5.609375 5.203125 -5.59375 5.109375 -5.5 C 5.015625 -5.390625 4.8125 -5.140625 4.71875 -5.046875 C 4.421875 -5.5 3.90625 -5.609375 3.5 -5.609375 C 2.40625 -5.609375 1.453125 -4.671875 1.453125 -3.765625 C 1.453125 -3.3125 1.703125 -3.03125 1.734375 -2.984375 C 2 -2.703125 2.234375 -2.640625 2.8125 -2.5 C 3.078125 -2.4375 3.09375 -2.4375 3.328125 -2.375 C 3.5625 -2.3125 4.078125 -2.1875 4.078125 -1.53125 C 4.078125 -0.84375 3.390625 -0.09375 2.546875 -0.09375 C 2.03125 -0.09375 1.078125 -0.25 1.078125 -1.25 C 1.078125 -1.265625 1.078125 -1.4375 1.125 -1.625 L 1.140625 -1.703125 C 1.140625 -1.796875 1.046875 -1.8125 1.015625 -1.8125 C 0.921875 -1.8125 0.90625 -1.78125 0.875 -1.59375 L 0.546875 -0.296875 C 0.515625 -0.171875 0.453125 0.046875 0.453125 0.0625 C 0.453125 0.125 0.5 0.171875 0.5625 0.171875 C 0.609375 0.171875 0.625 0.15625 0.703125 0.0625 L 1.09375 -0.390625 C 1.28125 -0.15625 1.734375 0.171875 2.53125 0.171875 C 3.6875 0.171875 4.640625 -0.875 4.640625 -1.828125 C 4.640625 -2.203125 4.515625 -2.484375 4.296875 -2.703125 C 4.0625 -2.96875 3.796875 -3.03125 3.421875 -3.125 C 3.203125 -3.1875 2.890625 -3.265625 2.703125 -3.3125 C 2.46875 -3.359375 2.015625 -3.515625 2.015625 -4.078125 C 2.015625 -4.703125 2.6875 -5.375 3.5 -5.375 C 4.21875 -5.375 4.703125 -5 4.703125 -4.140625 C 4.703125 -3.9375 4.671875 -3.78125 4.671875 -3.75 C 4.671875 -3.65625 4.75 -3.640625 4.8125 -3.640625 C 4.90625 -3.640625 4.90625 -3.671875 4.9375 -3.796875 Z M 5.34375 -5.390625 "/>
</symbol>
<symbol overflow="visible" id="glyph0-6">
<path style="stroke:none;" d="M 7.734375 -4.796875 C 7.8125 -5.109375 7.828125 -5.171875 8.390625 -5.171875 C 8.578125 -5.171875 8.671875 -5.171875 8.671875 -5.328125 C 8.671875 -5.4375 8.5625 -5.4375 8.421875 -5.4375 L 7.390625 -5.4375 C 7.1875 -5.4375 7.15625 -5.4375 7.046875 -5.28125 L 4.046875 -0.734375 L 3.34375 -5.234375 C 3.3125 -5.421875 3.296875 -5.4375 3.0625 -5.4375 L 1.984375 -5.4375 C 1.84375 -5.4375 1.734375 -5.4375 1.734375 -5.296875 C 1.734375 -5.171875 1.84375 -5.171875 1.96875 -5.171875 C 2.234375 -5.171875 2.46875 -5.171875 2.46875 -5.046875 C 2.46875 -5.015625 2.453125 -5.015625 2.4375 -4.90625 L 1.421875 -0.859375 C 1.328125 -0.453125 1.109375 -0.28125 0.578125 -0.265625 C 0.53125 -0.265625 0.4375 -0.25 0.4375 -0.109375 C 0.4375 -0.0625 0.484375 0 0.5625 0 C 0.59375 0 0.765625 -0.03125 1.34375 -0.03125 C 1.96875 -0.03125 2.09375 0 2.171875 0 C 2.203125 0 2.3125 0 2.3125 -0.15625 C 2.3125 -0.25 2.234375 -0.265625 2.171875 -0.265625 C 1.890625 -0.265625 1.65625 -0.3125 1.65625 -0.59375 C 1.65625 -0.640625 1.671875 -0.75 1.671875 -0.75 L 2.75 -5.078125 L 2.765625 -5.078125 L 3.53125 -0.21875 C 3.5625 -0.09375 3.5625 0 3.6875 0 C 3.796875 0 3.84375 -0.09375 3.890625 -0.15625 L 7.171875 -5.140625 L 7.1875 -5.140625 L 6.0625 -0.625 C 5.984375 -0.328125 5.96875 -0.265625 5.375 -0.265625 C 5.234375 -0.265625 5.125 -0.265625 5.125 -0.109375 C 5.125 -0.078125 5.15625 0 5.265625 0 C 5.359375 0 5.609375 -0.015625 5.71875 -0.03125 L 6.21875 -0.03125 C 6.96875 -0.03125 7.15625 0 7.21875 0 C 7.265625 0 7.375 0 7.375 -0.15625 C 7.375 -0.265625 7.265625 -0.265625 7.125 -0.265625 C 7.109375 -0.265625 6.96875 -0.265625 6.828125 -0.28125 C 6.65625 -0.296875 6.640625 -0.3125 6.640625 -0.390625 C 6.640625 -0.4375 6.65625 -0.484375 6.671875 -0.515625 Z M 7.734375 -4.796875 "/>
</symbol>
<symbol overflow="visible" id="glyph0-7">
<path style="stroke:none;" d="M 3.09375 -4.828125 C 3.15625 -5.09375 3.171875 -5.171875 3.78125 -5.171875 C 3.953125 -5.171875 4.0625 -5.171875 4.0625 -5.328125 C 4.0625 -5.34375 4.046875 -5.4375 3.921875 -5.4375 C 3.796875 -5.4375 3.546875 -5.421875 3.421875 -5.421875 L 2.328125 -5.421875 C 2.21875 -5.421875 1.921875 -5.4375 1.8125 -5.4375 C 1.78125 -5.4375 1.65625 -5.4375 1.65625 -5.296875 C 1.65625 -5.171875 1.75 -5.171875 1.90625 -5.171875 C 2.421875 -5.171875 2.421875 -5.125 2.421875 -5.03125 C 2.421875 -5.015625 2.421875 -4.984375 2.375 -4.859375 L 1.328125 -0.625 C 1.25 -0.34375 1.234375 -0.265625 0.640625 -0.265625 C 0.453125 -0.265625 0.359375 -0.265625 0.359375 -0.109375 C 0.359375 -0.078125 0.390625 0 0.484375 0 C 0.59375 0 0.859375 -0.015625 0.984375 -0.03125 L 2.09375 -0.03125 C 2.203125 -0.015625 2.484375 0 2.59375 0 C 2.640625 0 2.75 0 2.75 -0.15625 C 2.75 -0.265625 2.65625 -0.265625 2.5 -0.265625 C 2.375 -0.265625 2.328125 -0.265625 2.1875 -0.28125 C 2.0625 -0.296875 1.984375 -0.296875 1.984375 -0.390625 C 1.984375 -0.4375 2 -0.4375 2.03125 -0.546875 Z M 3.09375 -4.828125 "/>
</symbol>
</g>
</defs>
<g id="surface1">
<path style="fill:none;stroke-width:0.3985;stroke-linecap:round;stroke-linejoin:round;stroke:rgb(0%,0%,0%);stroke-opacity:1;stroke-dasharray:2.98883,2.98883;stroke-miterlimit:10;" d="M 42.518719 42.522031 L -0.0008125 -0.00140625 " transform="matrix(1,0,0,-1,21.993,147.815)"/>
<path style="fill:none;stroke-width:0.3985;stroke-linecap:round;stroke-linejoin:round;stroke:rgb(0%,0%,0%);stroke-opacity:1;stroke-dasharray:2.98883,2.98883;stroke-miterlimit:10;" d="M 42.518719 42.522031 L 155.909344 42.522031 " transform="matrix(1,0,0,-1,21.993,147.815)"/>
<path style="fill:none;stroke-width:0.3985;stroke-linecap:round;stroke-linejoin:round;stroke:rgb(0%,0%,0%);stroke-opacity:1;stroke-dasharray:2.98883,2.98883;stroke-miterlimit:10;" d="M 42.518719 127.561094 L 42.518719 42.522031 " transform="matrix(1,0,0,-1,21.993,147.815)"/>
<path style="fill:none;stroke-width:0.3985;stroke-linecap:round;stroke-linejoin:round;stroke:rgb(0%,0%,0%);stroke-opacity:1;stroke-dasharray:2.98883,2.98883;stroke-miterlimit:10;" d="M 42.518719 42.522031 L 113.385906 -0.00140625 " transform="matrix(1,0,0,-1,21.993,147.815)"/>
<path style="fill:none;stroke-width:0.3985;stroke-linecap:round;stroke-linejoin:round;stroke:rgb(0%,0%,0%);stroke-opacity:1;stroke-dasharray:2.98883,2.98883;stroke-miterlimit:10;" d="M 155.909344 42.522031 L 21.260906 21.260312 " transform="matrix(1,0,0,-1,21.993,147.815)"/>
<path style="fill:none;stroke-width:0.3985;stroke-linecap:round;stroke-linejoin:round;stroke:rgb(0%,0%,0%);stroke-opacity:1;stroke-miterlimit:10;" d="M 42.518719 127.561094 L -0.0008125 -0.00140625 L 113.385906 -0.00140625 L 155.909344 42.522031 Z M 42.518719 127.561094 " transform="matrix(1,0,0,-1,21.993,147.815)"/>
<path style="fill:none;stroke-width:0.3985;stroke-linecap:round;stroke-linejoin:round;stroke:rgb(0%,0%,0%);stroke-opacity:1;stroke-miterlimit:10;" d="M 42.518719 127.561094 L 21.260906 21.260312 " transform="matrix(1,0,0,-1,21.993,147.815)"/>
<path style="fill:none;stroke-width:0.3985;stroke-linecap:round;stroke-linejoin:round;stroke:rgb(0%,0%,0%);stroke-opacity:1;stroke-miterlimit:10;" d="M 42.518719 127.561094 L 113.385906 -0.00140625 " transform="matrix(1,0,0,-1,21.993,147.815)"/>
<path style="fill:none;stroke-width:0.3985;stroke-linecap:round;stroke-linejoin:round;stroke:rgb(0%,0%,0%);stroke-opacity:1;stroke-miterlimit:10;" d="M 42.518719 127.561094 L 155.909344 42.522031 " transform="matrix(1,0,0,-1,21.993,147.815)"/>
<path style=" stroke:none;fill-rule:nonzero;fill:rgb(0%,0%,0%);fill-opacity:1;" d="M 65.507812 105.292969 C 65.507812 104.746094 65.0625 104.296875 64.511719 104.296875 C 63.964844 104.296875 63.515625 104.746094 63.515625 105.292969 C 63.515625 105.84375 63.964844 106.292969 64.511719 106.292969 C 65.0625 106.292969 65.507812 105.84375 65.507812 105.292969 Z M 65.507812 105.292969 "/>
<g style="fill:rgb(0%,0%,0%);fill-opacity:1;">
  <use xlink:href="#glyph0-1" x="54.65" y="114.262"/>
</g>
<path style=" stroke:none;fill-rule:nonzero;fill:rgb(0%,0%,0%);fill-opacity:1;" d="M 178.898438 105.292969 C 178.898438 104.746094 178.449219 104.296875 177.902344 104.296875 C 177.351562 104.296875 176.902344 104.746094 176.902344 105.292969 C 176.902344 105.84375 177.351562 106.292969 177.902344 106.292969 C 178.449219 106.292969 178.898438 105.84375 178.898438 105.292969 Z M 178.898438 105.292969 "/>
<g style="fill:rgb(0%,0%,0%);fill-opacity:1;">
  <use xlink:href="#glyph0-2" x="181.418" y="108.019"/>
</g>
<path style=" stroke:none;fill-rule:nonzero;fill:rgb(0%,0%,0%);fill-opacity:1;" d="M 136.375 147.816406 C 136.375 147.265625 135.929688 146.820312 135.378906 146.820312 C 134.828125 146.820312 134.382812 147.265625 134.382812 147.816406 C 134.382812 148.363281 134.828125 148.8125 135.378906 148.8125 C 135.929688 148.8125 136.375 148.363281 136.375 147.816406 Z M 136.375 147.816406 "/>
<g style="fill:rgb(0%,0%,0%);fill-opacity:1;">
  <use xlink:href="#glyph0-3" x="138.899" y="156.781"/>
</g>
<path style=" stroke:none;fill-rule:nonzero;fill:rgb(0%,0%,0%);fill-opacity:1;" d="M 22.988281 147.816406 C 22.988281 147.265625 22.542969 146.820312 21.992188 146.820312 C 21.441406 146.820312 20.996094 147.265625 20.996094 147.816406 C 20.996094 148.363281 21.441406 148.8125 21.992188 148.8125 C 22.542969 148.8125 22.988281 148.363281 22.988281 147.816406 Z M 22.988281 147.816406 "/>
<g style="fill:rgb(0%,0%,0%);fill-opacity:1;">
  <use xlink:href="#glyph0-4" x="11.291" y="156.781"/>
</g>
<path style=" stroke:none;fill-rule:nonzero;fill:rgb(0%,0%,0%);fill-opacity:1;" d="M 65.507812 20.253906 C 65.507812 19.703125 65.0625 19.257812 64.511719 19.257812 C 63.964844 19.257812 63.515625 19.703125 63.515625 20.253906 C 63.515625 20.804688 63.964844 21.25 64.511719 21.25 C 65.0625 21.25 65.507812 20.804688 65.507812 20.253906 Z M 65.507812 20.253906 "/>
<g style="fill:rgb(0%,0%,0%);fill-opacity:1;">
  <use xlink:href="#glyph0-5" x="61.715" y="16.737"/>
</g>
<path style=" stroke:none;fill-rule:nonzero;fill:rgb(0%,0%,0%);fill-opacity:1;" d="M 44.25 126.554688 C 44.25 126.003906 43.804688 125.558594 43.253906 125.558594 C 42.703125 125.558594 42.257812 126.003906 42.257812 126.554688 C 42.257812 127.105469 42.703125 127.550781 43.253906 127.550781 C 43.804688 127.550781 44.25 127.105469 44.25 126.554688 Z M 44.25 126.554688 "/>
<g style="fill:rgb(0%,0%,0%);fill-opacity:1;">
  <use xlink:href="#glyph0-6" x="30.751" y="135.522"/>
</g>
<path style=" stroke:none;fill-rule:nonzero;fill:rgb(0%,0%,0%);fill-opacity:1;" d="M 93.855469 122.304688 C 93.855469 121.753906 93.410156 121.308594 92.859375 121.308594 C 92.308594 121.308594 91.863281 121.753906 91.863281 122.304688 C 91.863281 122.851562 92.308594 123.300781 92.859375 123.300781 C 93.410156 123.300781 93.855469 122.851562 93.855469 122.304688 Z M 93.855469 122.304688 "/>
<g style="fill:rgb(0%,0%,0%);fill-opacity:1;">
  <use xlink:href="#glyph0-7" x="90.712" y="118.784"/>
</g>
</g>
</svg>