<svg xmlns="http://www.w3.org/2000/svg" xmlns:xlink="http://www.w3.org/1999/xlink" width="148.472pt" height="128.213pt" viewBox="0 0 148.472 128.213" version="1.1">
<defs>
<g>
<symbol overflow="visible" id="glyph0-0">
<path style="stroke:none;" d=""/>
</symbol>
<symbol overflow="visible" id="glyph0-1">
<path style="stroke:none;" d="M 1.46875 -0.953125 C 1.109375 -0.359375 0.78125 -0.28125 0.5 -0.265625 C 0.421875 -0.25 0.3125 -0.25 0.3125 -0.109375 C 0.3125 -0.09375 0.328125 0 0.4375 0 C 0.5 0 0.546875 -0.03125 1.109375 -0.03125 C 1.65625 -0.03125 1.828125 0 1.875 0 C 1.90625 0 2.03125 0 2.03125 -0.15625 C 2.03125 -0.25 1.921875 -0.265625 1.890625 -0.265625 C 1.71875 -0.265625 1.546875 -0.328125 1.546875 -0.515625 C 1.546875 -0.625 1.625 -0.734375 1.765625 -0.96875 L 2.3125 -1.84375 L 4.5 -1.84375 L 4.65625 -0.5 C 4.65625 -0.375 4.515625 -0.265625 4.140625 -0.265625 C 4.03125 -0.265625 3.921875 -0.265625 3.921875 -0.109375 C 3.921875 -0.109375 3.921875 0 4.0625 0 C 4.140625 0 4.4375 -0.015625 4.515625 -0.03125 L 5.015625 -0.03125 C 5.734375 -0.03125 5.859375 0 5.921875 0 C 5.953125 0 6.09375 0 6.09375 -0.15625 C 6.09375 -0.265625 5.984375 -0.265625 5.859375 -0.265625 C 5.421875 -0.265625 5.40625 -0.328125 5.390625 -0.53125 L 4.75 -5.453125 C 4.734375 -5.640625 4.71875 -5.6875 4.59375 -5.6875 C 4.453125 -5.6875 4.40625 -5.609375 4.34375 -5.53125 Z M 2.484375 -2.109375 L 4.125 -4.71875 L 4.46875 -2.109375 Z M 2.484375 -2.109375 "/>
</symbol>
<symbol overflow="visible" id="glyph0-2">
<path style="stroke:none;" d="M 1.34375 -0.625 C 1.28125 -0.328125 1.265625 -0.265625 0.671875 -0.265625 C 0.515625 -0.265625 0.421875 -0.265625 0.421875 -0.109375 C 0.421875 0 0.53125 0 0.65625 0 L 3.625 0 C 4.9375 0 5.90625 -0.9375 5.90625 -1.703125 C 5.90625 -2.28125 5.40625 -2.75 4.609375 -2.84375 C 5.53125 -3.015625 6.328125 -3.625 6.328125 -4.328125 C 6.328125 -4.921875 5.75 -5.4375 4.75 -5.4375 L 1.96875 -5.4375 C 1.828125 -5.4375 1.71875 -5.4375 1.71875 -5.296875 C 1.71875 -5.171875 1.8125 -5.171875 1.953125 -5.171875 C 2.21875 -5.171875 2.453125 -5.171875 2.453125 -5.046875 C 2.453125 -5.015625 2.4375 -5.015625 2.421875 -4.90625 Z M 2.59375 -2.9375 L 3.078125 -4.890625 C 3.140625 -5.15625 3.15625 -5.171875 3.484375 -5.171875 L 4.625 -5.171875 C 5.40625 -5.171875 5.59375 -4.671875 5.59375 -4.34375 C 5.59375 -3.671875 4.859375 -2.9375 3.84375 -2.9375 Z M 2.046875 -0.265625 C 1.96875 -0.28125 1.9375 -0.28125 1.9375 -0.328125 C 1.9375 -0.390625 1.953125 -0.46875 1.96875 -0.515625 L 2.53125 -2.71875 L 4.15625 -2.71875 C 4.890625 -2.71875 5.140625 -2.21875 5.140625 -1.765625 C 5.140625 -0.984375 4.375 -0.265625 3.421875 -0.265625 Z M 2.046875 -0.265625 "/>
</symbol>
<symbol overflow="visible" id="glyph0-3">
<path style="stroke:none;" d="M 6.34375 -5.390625 C 6.34375 -5.421875 6.359375 -5.46875 6.359375 -5.515625 C 6.359375 -5.5625 6.3125 -5.609375 6.265625 -5.609375 C 6.203125 -5.609375 6.1875 -5.59375 6.125 -5.515625 L 5.5625 -4.90625 C 5.484375 -5 5.0625 -5.609375 4.140625 -5.609375 C 2.28125 -5.609375 0.421875 -3.890625 0.421875 -2.0625 C 0.421875 -0.671875 1.46875 0.171875 2.734375 0.171875 C 3.78125 0.171875 4.671875 -0.46875 5.09375 -1.09375 C 5.359375 -1.484375 5.46875 -1.859375 5.46875 -1.90625 C 5.46875 -1.984375 5.421875 -2.015625 5.34375 -2.015625 C 5.25 -2.015625 5.234375 -1.96875 5.21875 -1.890625 C 4.875 -0.78125 3.796875 -0.09375 2.84375 -0.09375 C 2.03125 -0.09375 1.171875 -0.578125 1.171875 -1.796875 C 1.171875 -2.046875 1.265625 -3.375 2.15625 -4.375 C 2.75 -5.046875 3.5625 -5.34375 4.1875 -5.34375 C 5.203125 -5.34375 5.609375 -4.546875 5.609375 -3.78125 C 5.609375 -3.671875 5.578125 -3.515625 5.578125 -3.421875 C 5.578125 -3.328125 5.6875 -3.328125 5.71875 -3.328125 C 5.8125 -3.328125 5.828125 -3.359375 5.859375 -3.5 Z M 6.34375 -5.390625 "/>
</symbol>
<symbol overflow="visible" id="glyph0-4">
<path style="stroke:none;" d="M 1.328125 -0.625 C 1.265625 -0.328125 1.25 -0.265625 0.65625 -0.265625 C 0.5 -0.265625 0.40625 -0.265625 0.40625 -0.109375 C 0.40625 0 0.515625 0 0.640625 0 L 3.390625 0 C 5.0625 0 6.734375 -1.609375 6.734375 -3.390625 C 6.734375 -4.609375 5.921875 -5.4375 4.734375 -5.4375 L 1.953125 -5.4375 C 1.8125 -5.4375 1.703125 -5.4375 1.703125 -5.296875 C 1.703125 -5.171875 1.796875 -5.171875 1.9375 -5.171875 C 2.203125 -5.171875 2.4375 -5.171875 2.4375 -5.046875 C 2.4375 -5.015625 2.421875 -5.015625 2.40625 -4.90625 Z M 3.09375 -4.890625 C 3.15625 -5.15625 3.171875 -5.171875 3.5 -5.171875 L 4.46875 -5.171875 C 5.390625 -5.171875 6.03125 -4.640625 6.03125 -3.671875 C 6.03125 -3.40625 5.90625 -2.109375 5.21875 -1.21875 C 4.875 -0.765625 4.1875 -0.265625 3.25 -0.265625 L 2.0625 -0.265625 C 1.984375 -0.28125 1.953125 -0.28125 1.953125 -0.328125 C 1.953125 -0.390625 1.96875 -0.46875 1.984375 -0.515625 Z M 3.09375 -4.890625 "/>
</symbol>
<symbol overflow="visible" id="glyph1-0">
<path style="stroke:none;" d=""/>
</symbol>
<symbol overflow="visible" id="glyph1-1">
<path style="stroke:none;" d="M 1.875 -2.8125 C 1.921875 -2.90625 1.9375 -2.96875 1.9375 -3 C 1.9375 -3.1875 1.765625 -3.34375 1.5625 -3.34375 C 1.328125 -3.34375 1.25 -3.140625 1.234375 -3.046875 L 0.390625 -0.484375 C 0.390625 -0.453125 0.359375 -0.40625 0.359375 -0.390625 C 0.359375 -0.28125 0.609375 -0.234375 0.609375 -0.234375 C 0.671875 -0.234375 0.6875 -0.28125 0.71875 -0.328125 Z M 1.875 -2.8125 "/>
</symbol>
</g>
</defs>
<g id="surface1">
<path style="fill:none;stroke-width:0.3985;stroke-linecap:round;stroke-linejoin:round;stroke:rgb(0%,0%,0%);stroke-opacity:1;stroke-miterlimit:10;" d="M 0.00134375 69.451625 L 0.00134375 -0.0015 L 79.372438 -0.0015 L 99.216188 15.8735 L 99.220094 85.326625 L 19.845094 85.326625 L 0.00134375 69.451625 L 79.372438 69.451625 L 99.220094 85.326625 M 79.372438 -0.0015 L 79.372438 69.451625 " transform="matrix(1,0,0,-1,24.526,108.186)"/>
<path style="fill:none;stroke-width:0.3985;stroke-linecap:round;stroke-linejoin:round;stroke:rgb(0%,0%,0%);stroke-opacity:1;stroke-dasharray:2.98883,2.98883;stroke-miterlimit:10;" d="M 19.841188 15.8735 L 99.216188 15.8735 M 19.845094 85.326625 L 19.841188 15.8735 L 0.00134375 -0.0015 " transform="matrix(1,0,0,-1,24.526,108.186)"/>
<path style="fill:none;stroke-width:0.3985;stroke-linecap:round;stroke-linejoin:round;stroke:rgb(100%,0%,0%);stroke-opacity:1;stroke-dasharray:2.98883,2.98883;stroke-miterlimit:10;" d="M 19.841188 15.8735 L 99.220094 85.326625 " transform="matrix(1,0,0,-1,24.526,108.186)"/>
<path style="fill:none;stroke-width:0.3985;stroke-linecap:round;stroke-linejoin:round;stroke:rgb(0%,0%,0%);stroke-opacity:1;stroke-dasharray:2.98883,2.98883;stroke-miterlimit:10;" d="M 0.00134375 -0.0015 L 99.216188 15.8735 " transform="matrix(1,0,0,-1,24.526,108.186)"/>
<path style=" stroke:none;fill-rule:nonzero;fill:rgb(0%,0%,0%);fill-opacity:1;" d="M 45.066406 92.3125 C 45.066406 91.925781 44.753906 91.613281 44.367188 91.613281 C 43.984375 91.613281 43.671875 91.925781 43.671875 92.3125 C 43.671875 92.695312 43.984375 93.007812 44.367188 93.007812 C 44.753906 93.007812 45.066406 92.695312 45.066406 92.3125 Z M 45.066406 92.3125 "/>
<g style="fill:rgb(0%,0%,0%);fill-opacity:1;">
  <use xlink:href="#glyph0-1" x="33.207" y="92.126"/>
</g>
<path style=" stroke:none;fill-rule:nonzero;fill:rgb(0%,0%,0%);fill-opacity:1;" d="M 25.222656 108.1875 C 25.222656 107.800781 24.910156 107.488281 24.527344 107.488281 C 24.140625 107.488281 23.828125 107.800781 23.828125 108.1875 C 23.828125 108.570312 24.140625 108.882812 24.527344 108.882812 C 24.910156 108.882812 25.222656 108.570312 25.222656 108.1875 Z M 25.222656 108.1875 "/>
<g style="fill:rgb(0%,0%,0%);fill-opacity:1;">
  <use xlink:href="#glyph0-2" x="15.122" y="116.922"/>
</g>
<path style=" stroke:none;fill-rule:nonzero;fill:rgb(0%,0%,0%);fill-opacity:1;" d="M 104.59375 108.1875 C 104.59375 107.800781 104.285156 107.488281 103.898438 107.488281 C 103.511719 107.488281 103.199219 107.800781 103.199219 108.1875 C 103.199219 108.570312 103.511719 108.882812 103.898438 108.882812 C 104.285156 108.882812 104.59375 108.570312 104.59375 108.1875 Z M 104.59375 108.1875 "/>
<g style="fill:rgb(0%,0%,0%);fill-opacity:1;">
  <use xlink:href="#glyph0-3" x="106.611" y="116.922"/>
</g>
<path style=" stroke:none;fill-rule:nonzero;fill:rgb(0%,0%,0%);fill-opacity:1;" d="M 124.441406 92.3125 C 124.441406 91.925781 124.128906 91.613281 123.742188 91.613281 C 123.359375 91.613281 123.046875 91.925781 123.046875 92.3125 C 123.046875 92.695312 123.359375 93.007812 123.742188 93.007812 C 124.128906 93.007812 124.441406 92.695312 124.441406 92.3125 Z M 124.441406 92.3125 "/>
<g style="fill:rgb(0%,0%,0%);fill-opacity:1;">
  <use xlink:href="#glyph0-4" x="128.655" y="95.035"/>
</g>
<path style=" stroke:none;fill-rule:nonzero;fill:rgb(0%,0%,0%);fill-opacity:1;" d="M 45.066406 22.859375 C 45.066406 22.476562 44.753906 22.164062 44.371094 22.164062 C 43.984375 22.164062 43.671875 22.476562 43.671875 22.859375 C 43.671875 23.246094 43.984375 23.558594 44.371094 23.558594 C 44.753906 23.558594 45.066406 23.246094 45.066406 22.859375 Z M 45.066406 22.859375 "/>
<g style="fill:rgb(0%,0%,0%);fill-opacity:1;">
  <use xlink:href="#glyph0-1" x="39.856" y="17.425"/>
</g>
<g style="fill:rgb(0%,0%,0%);fill-opacity:1;">
  <use xlink:href="#glyph1-1" x="46.199" y="14.612"/>
</g>
<path style=" stroke:none;fill-rule:nonzero;fill:rgb(0%,0%,0%);fill-opacity:1;" d="M 25.222656 38.734375 C 25.222656 38.347656 24.910156 38.035156 24.527344 38.035156 C 24.140625 38.035156 23.828125 38.347656 23.828125 38.734375 C 23.828125 39.117188 24.140625 39.429688 24.527344 39.429688 C 24.910156 39.429688 25.222656 39.117188 25.222656 38.734375 Z M 25.222656 38.734375 "/>
<g style="fill:rgb(0%,0%,0%);fill-opacity:1;">
  <use xlink:href="#glyph0-2" x="11.29" y="41.802"/>
</g>
<g style="fill:rgb(0%,0%,0%);fill-opacity:1;">
  <use xlink:href="#glyph1-1" x="18.07" y="38.989"/>
</g>
<path style=" stroke:none;fill-rule:nonzero;fill:rgb(0%,0%,0%);fill-opacity:1;" d="M 104.597656 38.734375 C 104.597656 38.347656 104.285156 38.035156 103.898438 38.035156 C 103.515625 38.035156 103.203125 38.347656 103.203125 38.734375 C 103.203125 39.117188 103.515625 39.429688 103.898438 39.429688 C 104.285156 39.429688 104.597656 39.117188 104.597656 38.734375 Z M 104.597656 38.734375 "/>
<g style="fill:rgb(0%,0%,0%);fill-opacity:1;">
  <use xlink:href="#glyph0-3" x="107.248" y="44.71"/>
</g>
<g style="fill:rgb(0%,0%,0%);fill-opacity:1;">
  <use xlink:href="#glyph1-1" x="113.847" y="41.897"/>
</g>
<path style=" stroke:none;fill-rule:nonzero;fill:rgb(0%,0%,0%);fill-opacity:1;" d="M 124.441406 22.859375 C 124.441406 22.472656 124.128906 22.160156 123.746094 22.160156 C 123.359375 22.160156 123.046875 22.472656 123.046875 22.859375 C 123.046875 23.242188 123.359375 23.554688 123.746094 23.554688 C 124.128906 23.554688 124.441406 23.242188 124.441406 22.859375 Z M 124.441406 22.859375 "/>
<g style="fill:rgb(0%,0%,0%);fill-opacity:1;">
  <use xlink:href="#glyph0-4" x="127.314" y="25.927"/>
</g>
<g style="fill:rgb(0%,0%,0%);fill-opacity:1;">
  <use xlink:href="#glyph1-1" x="134.496" y="23.114"/>
</g>
</g>
</svg>