<svg xmlns="http://www.w3.org/2000/svg" xmlns:xlink="http://www.w3.org/1999/xlink" width="485.529pt" height="117.402pt" viewBox="0 0 485.529 117.402" version="1.1">
<defs>
<g>
<symbol overflow="visible" id="sv75a8237e-glyph0-0">
<path style="stroke:none;" d=""/>
</symbol>
<symbol overflow="visible" id="sv75a8237e-glyph0-1">
<path style="stroke:none;" d="M 2.65625 -2.40625 C 2.703125 -2.609375 2.890625 -3.34375 3.453125 -3.34375 C 3.484375 -3.34375 3.6875 -3.34375 3.84375 -3.25 C 3.625 -3.203125 3.46875 -3 3.46875 -2.8125 C 3.46875 -2.6875 3.546875 -2.53125 3.765625 -2.53125 C 3.9375 -2.53125 4.203125 -2.671875 4.203125 -3 C 4.203125 -3.40625 3.734375 -3.515625 3.453125 -3.515625 C 3 -3.515625 2.71875 -3.09375 2.625 -2.921875 C 2.421875 -3.4375 1.984375 -3.515625 1.765625 -3.515625 C 0.9375 -3.515625 0.484375 -2.5 0.484375 -2.296875 C 0.484375 -2.21875 0.5625 -2.21875 0.578125 -2.21875 C 0.640625 -2.21875 0.65625 -2.234375 0.671875 -2.296875 C 0.953125 -3.140625 1.46875 -3.34375 1.75 -3.34375 C 1.890625 -3.34375 2.171875 -3.28125 2.171875 -2.8125 C 2.171875 -2.5625 2.046875 -2.03125 1.75 -0.921875 C 1.625 -0.421875 1.34375 -0.09375 0.984375 -0.09375 C 0.9375 -0.09375 0.75 -0.09375 0.59375 -0.1875 C 0.78125 -0.234375 0.96875 -0.390625 0.96875 -0.625 C 0.96875 -0.84375 0.78125 -0.90625 0.671875 -0.90625 C 0.4375 -0.90625 0.234375 -0.6875 0.234375 -0.4375 C 0.234375 -0.078125 0.625 0.09375 0.984375 0.09375 C 1.5 0.09375 1.796875 -0.46875 1.8125 -0.515625 C 1.90625 -0.21875 2.203125 0.09375 2.671875 0.09375 C 3.5 0.09375 3.953125 -0.9375 3.953125 -1.140625 C 3.953125 -1.21875 3.875 -1.21875 3.859375 -1.21875 C 3.78125 -1.21875 3.765625 -1.1875 3.75 -1.125 C 3.484375 -0.28125 2.953125 -0.09375 2.6875 -0.09375 C 2.375 -0.09375 2.25 -0.34375 2.25 -0.609375 C 2.25 -0.78125 2.296875 -0.96875 2.390625 -1.3125 Z M 2.65625 -2.40625 "/>
</symbol>
<symbol overflow="visible" id="sv75a8237e-glyph0-2">
<path style="stroke:none;" d="M 3.875 -3.03125 C 3.90625 -3.140625 3.90625 -3.15625 3.90625 -3.21875 C 3.90625 -3.359375 3.796875 -3.4375 3.671875 -3.4375 C 3.59375 -3.4375 3.46875 -3.390625 3.390625 -3.265625 C 3.375 -3.234375 3.3125 -2.984375 3.28125 -2.84375 C 3.234375 -2.625 3.171875 -2.421875 3.125 -2.203125 L 2.765625 -0.765625 C 2.734375 -0.640625 2.390625 -0.09375 1.859375 -0.09375 C 1.453125 -0.09375 1.375 -0.4375 1.375 -0.734375 C 1.375 -1.09375 1.5 -1.59375 1.78125 -2.296875 C 1.90625 -2.625 1.9375 -2.703125 1.9375 -2.875 C 1.9375 -3.234375 1.6875 -3.515625 1.28125 -3.515625 C 0.53125 -3.515625 0.234375 -2.359375 0.234375 -2.296875 C 0.234375 -2.21875 0.3125 -2.21875 0.328125 -2.21875 C 0.40625 -2.21875 0.421875 -2.234375 0.453125 -2.359375 C 0.671875 -3.109375 0.984375 -3.34375 1.265625 -3.34375 C 1.328125 -3.34375 1.453125 -3.34375 1.453125 -3.09375 C 1.453125 -2.890625 1.375 -2.6875 1.328125 -2.53125 C 1 -1.6875 0.859375 -1.234375 0.859375 -0.859375 C 0.859375 -0.15625 1.359375 0.09375 1.828125 0.09375 C 2.140625 0.09375 2.421875 -0.046875 2.640625 -0.265625 C 2.53125 0.140625 2.4375 0.53125 2.125 0.953125 C 1.90625 1.234375 1.609375 1.453125 1.25 1.453125 C 1.125 1.453125 0.765625 1.4375 0.640625 1.125 C 0.765625 1.125 0.875 1.125 0.984375 1.03125 C 1.0625 0.953125 1.140625 0.859375 1.140625 0.703125 C 1.140625 0.453125 0.921875 0.421875 0.84375 0.421875 C 0.65625 0.421875 0.390625 0.546875 0.390625 0.9375 C 0.390625 1.34375 0.75 1.640625 1.25 1.640625 C 2.0625 1.640625 2.890625 0.90625 3.109375 0.015625 Z M 3.875 -3.03125 "/>
</symbol>
<symbol overflow="visible" id="sv75a8237e-glyph0-3">
<path style="stroke:none;" d="M 5.890625 -3.46875 C 5.890625 -4.75 5.046875 -5.625 3.859375 -5.625 C 2.140625 -5.625 0.390625 -3.8125 0.390625 -1.953125 C 0.390625 -0.625 1.28125 0.171875 2.4375 0.171875 C 4.125 0.171875 5.890625 -1.5625 5.890625 -3.46875 Z M 2.484375 -0.03125 C 1.6875 -0.03125 1.125 -0.671875 1.125 -1.734375 C 1.125 -2.078125 1.25 -3.25 1.859375 -4.171875 C 2.40625 -5 3.1875 -5.421875 3.8125 -5.421875 C 4.46875 -5.421875 5.1875 -4.96875 5.1875 -3.78125 C 5.1875 -3.21875 4.96875 -1.96875 4.1875 -0.984375 C 3.796875 -0.5 3.140625 -0.03125 2.484375 -0.03125 Z M 2.484375 -0.03125 "/>
</symbol>
<symbol overflow="visible" id="sv75a8237e-glyph0-4">
<path style="stroke:none;" d="M 1.625 -0.015625 C 1.625 -0.53125 1.421875 -0.84375 1.109375 -0.84375 C 0.84375 -0.84375 0.6875 -0.640625 0.6875 -0.421875 C 0.6875 -0.203125 0.84375 0 1.109375 0 C 1.203125 0 1.3125 -0.03125 1.390625 -0.109375 C 1.40625 -0.125 1.421875 -0.125 1.421875 -0.125 C 1.4375 -0.125 1.4375 -0.125 1.4375 -0.015625 C 1.4375 0.578125 1.15625 1.0625 0.90625 1.328125 C 0.8125 1.40625 0.8125 1.421875 0.8125 1.453125 C 0.8125 1.5 0.859375 1.53125 0.890625 1.53125 C 0.984375 1.53125 1.625 0.921875 1.625 -0.015625 Z M 1.625 -0.015625 "/>
</symbol>
<symbol overflow="visible" id="sv75a8237e-glyph1-0">
<path style="stroke:none;" d=""/>
</symbol>
<symbol overflow="visible" id="sv75a8237e-glyph1-1">
<path style="stroke:none;" d="M 2.8125 -1.015625 L 2.625 -1.015625 C 2.609375 -0.890625 2.5625 -0.5625 2.484375 -0.5 C 2.4375 -0.46875 2.015625 -0.46875 1.9375 -0.46875 L 0.90625 -0.46875 C 1.484375 -1 1.6875 -1.15625 2.015625 -1.40625 C 2.4375 -1.734375 2.8125 -2.09375 2.8125 -2.609375 C 2.8125 -3.296875 2.21875 -3.703125 1.515625 -3.703125 C 0.8125 -3.703125 0.34375 -3.21875 0.34375 -2.703125 C 0.34375 -2.421875 0.59375 -2.390625 0.640625 -2.390625 C 0.78125 -2.390625 0.9375 -2.484375 0.9375 -2.6875 C 0.9375 -2.78125 0.90625 -2.984375 0.609375 -2.984375 C 0.78125 -3.375 1.171875 -3.5 1.421875 -3.5 C 1.984375 -3.5 2.28125 -3.0625 2.28125 -2.609375 C 2.28125 -2.125 1.9375 -1.75 1.75 -1.546875 L 0.40625 -0.21875 C 0.34375 -0.171875 0.34375 -0.15625 0.34375 0 L 2.65625 0 Z M 2.8125 -1.015625 "/>
</symbol>
<symbol overflow="visible" id="sv75a8237e-glyph2-0">
<path style="stroke:none;" d=""/>
</symbol>
<symbol overflow="visible" id="sv75a8237e-glyph2-1">
<path style="stroke:none;" d="M 2.34375 -5.09375 C 2.34375 -5.296875 2.34375 -5.3125 2.15625 -5.3125 C 1.671875 -4.796875 0.96875 -4.796875 0.703125 -4.796875 L 0.703125 -4.546875 C 0.875 -4.546875 1.34375 -4.546875 1.75 -4.75 L 1.75 -0.625 C 1.75 -0.34375 1.734375 -0.25 1.015625 -0.25 L 0.75 -0.25 L 0.75 0 C 1.03125 -0.03125 1.734375 -0.03125 2.046875 -0.03125 C 2.359375 -0.03125 3.0625 -0.03125 3.34375 0 L 3.34375 -0.25 L 3.078125 -0.25 C 2.359375 -0.25 2.34375 -0.328125 2.34375 -0.625 Z M 2.34375 -5.09375 "/>
</symbol>
<symbol overflow="visible" id="sv75a8237e-glyph2-2">
<path style="stroke:none;" d="M 3.578125 -1.609375 C 3.578125 -2.546875 2.921875 -3.34375 2.0625 -3.34375 C 1.6875 -3.34375 1.34375 -3.21875 1.046875 -2.9375 L 1.046875 -4.5 C 1.21875 -4.453125 1.46875 -4.390625 1.734375 -4.390625 C 2.703125 -4.390625 3.265625 -5.109375 3.265625 -5.21875 C 3.265625 -5.265625 3.25 -5.3125 3.1875 -5.3125 C 3.171875 -5.3125 3.15625 -5.3125 3.125 -5.28125 C 2.96875 -5.21875 2.578125 -5.046875 2.046875 -5.046875 C 1.71875 -5.046875 1.359375 -5.109375 0.984375 -5.28125 C 0.921875 -5.296875 0.90625 -5.296875 0.890625 -5.296875 C 0.8125 -5.296875 0.8125 -5.234375 0.8125 -5.109375 L 0.8125 -2.75 C 0.8125 -2.609375 0.8125 -2.546875 0.921875 -2.546875 C 0.96875 -2.546875 0.984375 -2.5625 1.015625 -2.609375 C 1.109375 -2.734375 1.40625 -3.171875 2.046875 -3.171875 C 2.46875 -3.171875 2.65625 -2.8125 2.71875 -2.65625 C 2.859375 -2.359375 2.875 -2.0625 2.875 -1.65625 C 2.875 -1.375 2.875 -0.90625 2.671875 -0.5625 C 2.484375 -0.25 2.1875 -0.046875 1.828125 -0.046875 C 1.25 -0.046875 0.78125 -0.46875 0.65625 -0.9375 C 0.671875 -0.9375 0.703125 -0.921875 0.78125 -0.921875 C 1.046875 -0.921875 1.1875 -1.125 1.1875 -1.3125 C 1.1875 -1.5 1.046875 -1.703125 0.78125 -1.703125 C 0.671875 -1.703125 0.390625 -1.65625 0.390625 -1.28125 C 0.390625 -0.59375 0.953125 0.171875 1.84375 0.171875 C 2.765625 0.171875 3.578125 -0.59375 3.578125 -1.609375 Z M 3.578125 -1.609375 "/>
</symbol>
<symbol overflow="visible" id="sv75a8237e-glyph2-3">
<path style="stroke:none;" d="M 3.265625 -1.828125 L 5.484375 -1.828125 C 5.59375 -1.828125 5.75 -1.828125 5.75 -1.984375 C 5.75 -2.15625 5.59375 -2.15625 5.484375 -2.15625 L 3.265625 -2.15625 L 3.265625 -4.375 C 3.265625 -4.5 3.265625 -4.640625 3.09375 -4.640625 C 2.9375 -4.640625 2.9375 -4.5 2.9375 -4.375 L 2.9375 -2.15625 L 0.703125 -2.15625 C 0.59375 -2.15625 0.453125 -2.15625 0.453125 -1.984375 C 0.453125 -1.828125 0.59375 -1.828125 0.703125 -1.828125 L 2.9375 -1.828125 L 2.9375 0.390625 C 2.9375 0.515625 2.9375 0.65625 3.09375 0.65625 C 3.265625 0.65625 3.265625 0.515625 3.265625 0.390625 Z M 3.265625 -1.828125 "/>
</symbol>
<symbol overflow="visible" id="sv75a8237e-glyph2-4">
<path style="stroke:none;" d="M 5.46875 -2.609375 C 5.59375 -2.609375 5.75 -2.609375 5.75 -2.765625 C 5.75 -2.921875 5.59375 -2.921875 5.484375 -2.921875 L 0.703125 -2.921875 C 0.59375 -2.921875 0.453125 -2.921875 0.453125 -2.765625 C 0.453125 -2.609375 0.59375 -2.609375 0.71875 -2.609375 Z M 5.484375 -1.0625 C 5.59375 -1.0625 5.75 -1.0625 5.75 -1.21875 C 5.75 -1.375 5.59375 -1.375 5.46875 -1.375 L 0.71875 -1.375 C 0.59375 -1.375 0.453125 -1.375 0.453125 -1.21875 C 0.453125 -1.0625 0.59375 -1.0625 0.703125 -1.0625 Z M 5.484375 -1.0625 "/>
</symbol>
<symbol overflow="visible" id="sv75a8237e-glyph2-5">
<path style="stroke:none;" d="M 3.671875 -2.546875 C 3.671875 -3.1875 3.625 -3.828125 3.34375 -4.421875 C 2.984375 -5.171875 2.328125 -5.3125 1.984375 -5.3125 C 1.515625 -5.3125 0.9375 -5.09375 0.609375 -4.359375 C 0.34375 -3.8125 0.3125 -3.1875 0.3125 -2.546875 C 0.3125 -1.953125 0.34375 -1.234375 0.671875 -0.625 C 1.015625 0.015625 1.59375 0.171875 1.984375 0.171875 C 2.421875 0.171875 3.015625 0.015625 3.375 -0.75 C 3.625 -1.296875 3.671875 -1.921875 3.671875 -2.546875 Z M 1.984375 0 C 1.671875 0 1.203125 -0.203125 1.0625 -0.96875 C 0.96875 -1.4375 0.96875 -2.171875 0.96875 -2.640625 C 0.96875 -3.15625 0.96875 -3.6875 1.03125 -4.109375 C 1.1875 -5.0625 1.78125 -5.125 1.984375 -5.125 C 2.25 -5.125 2.765625 -4.984375 2.921875 -4.203125 C 3 -3.75 3 -3.140625 3 -2.640625 C 3 -2.046875 3 -1.5 2.921875 -1 C 2.796875 -0.234375 2.34375 0 1.984375 0 Z M 1.984375 0 "/>
</symbol>
<symbol overflow="visible" id="sv75a8237e-glyph3-0">
<path style="stroke:none;" d=""/>
</symbol>
<symbol overflow="visible" id="sv75a8237e-glyph3-1">
<path style="stroke:none;" d="M 8.375 0 L 8.375 -0.375 L 7.515625 -0.375 L 7.515625 -5.09375 L 8.375 -5.09375 L 8.375 -5.46875 L 6.609375 -5.46875 C 6.4375 -5.46875 6.34375 -5.46875 6.265625 -5.265625 L 4.34375 -1.046875 L 2.4375 -5.265625 C 2.34375 -5.46875 2.265625 -5.46875 2.09375 -5.46875 L 0.3125 -5.46875 L 0.3125 -5.09375 L 1.171875 -5.09375 L 1.171875 -0.609375 C 1.171875 -0.4375 1.171875 -0.421875 0.953125 -0.390625 C 0.75 -0.375 0.734375 -0.375 0.515625 -0.375 L 0.3125 -0.375 L 0.3125 0 C 0.625 -0.03125 1.078125 -0.03125 1.390625 -0.03125 C 1.71875 -0.03125 2.140625 -0.03125 2.46875 0 L 2.46875 -0.375 L 2.265625 -0.375 C 2.125 -0.375 1.984375 -0.375 1.84375 -0.390625 C 1.609375 -0.421875 1.609375 -0.4375 1.609375 -0.609375 L 1.609375 -4.984375 L 3.78125 -0.203125 C 3.84375 -0.046875 3.9375 0 4.03125 0 C 4.1875 0 4.25 -0.125 4.28125 -0.1875 L 6.515625 -5.09375 L 6.515625 -0.375 L 5.65625 -0.375 L 5.65625 0 C 5.9375 -0.03125 6.6875 -0.03125 7.015625 -0.03125 C 7.34375 -0.03125 8.09375 -0.03125 8.375 0 Z M 8.375 0 "/>
</symbol>
<symbol overflow="visible" id="sv75a8237e-glyph3-2">
<path style="stroke:none;" d="M 4.90625 0 L 4.90625 -0.375 C 4.40625 -0.375 4.34375 -0.375 4.34375 -0.6875 L 4.34375 -3.578125 L 2.890625 -3.515625 L 2.890625 -3.140625 C 3.390625 -3.140625 3.4375 -3.140625 3.4375 -2.84375 L 3.4375 -1.3125 C 3.4375 -0.65625 3.03125 -0.234375 2.453125 -0.234375 C 1.84375 -0.234375 1.8125 -0.4375 1.8125 -0.875 L 1.8125 -3.578125 L 0.359375 -3.515625 L 0.359375 -3.140625 C 0.859375 -3.140625 0.90625 -3.140625 0.90625 -2.84375 L 0.90625 -0.984375 C 0.90625 -0.125 1.546875 0.046875 2.34375 0.046875 C 2.546875 0.046875 3.125 0.046875 3.484375 -0.578125 L 3.484375 0.046875 Z M 4.078125 -5.0625 L 3.859375 -5.265625 C 3.625 -5 3.34375 -5 3.265625 -5 C 3.09375 -5 2.96875 -5.015625 2.625 -5.125 C 2.25 -5.25 2.109375 -5.265625 1.984375 -5.265625 C 1.84375 -5.265625 1.640625 -5.234375 1.421875 -5.015625 C 1.328125 -4.9375 1.109375 -4.6875 1.03125 -4.609375 L 1.234375 -4.40625 C 1.46875 -4.671875 1.75 -4.671875 1.84375 -4.671875 C 2 -4.671875 2.140625 -4.65625 2.484375 -4.546875 C 2.84375 -4.421875 3 -4.40625 3.109375 -4.40625 C 3.25 -4.40625 3.46875 -4.4375 3.6875 -4.65625 C 3.765625 -4.734375 3.984375 -4.984375 4.078125 -5.0625 Z M 4.078125 -5.0625 "/>
</symbol>
<symbol overflow="visible" id="sv75a8237e-glyph3-3">
<path style="stroke:none;" d="M 2.28125 0 L 2.28125 -0.375 L 1.78125 -0.375 L 1.78125 -3.578125 L 0.390625 -3.515625 L 0.390625 -3.140625 C 0.875 -3.140625 0.921875 -3.140625 0.921875 -2.84375 L 0.921875 -0.375 L 0.375 -0.375 L 0.375 0 L 1.34375 -0.03125 Z M 1.890625 -4.84375 C 1.890625 -5.171875 1.625 -5.453125 1.28125 -5.453125 C 0.9375 -5.453125 0.65625 -5.171875 0.65625 -4.84375 C 0.65625 -4.5 0.9375 -4.21875 1.28125 -4.21875 C 1.625 -4.21875 1.890625 -4.5 1.890625 -4.84375 Z M 1.890625 -4.84375 "/>
</symbol>
<symbol overflow="visible" id="sv75a8237e-glyph3-4">
<path style="stroke:none;" d="M 4.671875 0 L 4.671875 -0.375 L 4.546875 -0.375 C 4.203125 -0.375 4.171875 -0.40625 4.078125 -0.53125 L 2.71875 -2.21875 L 3.765625 -3.015625 C 3.875 -3.109375 3.9375 -3.15625 4.484375 -3.15625 L 4.484375 -3.53125 C 4.265625 -3.515625 4.0625 -3.515625 3.859375 -3.515625 L 2.9375 -3.53125 L 2.9375 -3.15625 C 3.125 -3.15625 3.140625 -3.140625 3.21875 -3.078125 L 1.703125 -1.890625 L 1.703125 -5.53125 L 0.296875 -5.46875 L 0.296875 -5.09375 C 0.78125 -5.09375 0.84375 -5.09375 0.84375 -4.78125 L 0.84375 -0.375 L 0.296875 -0.375 L 0.296875 0 L 1.25 -0.03125 L 2.21875 0 L 2.21875 -0.375 L 1.671875 -0.375 L 1.671875 -1.390625 C 1.890625 -1.5625 1.953125 -1.625 2.125 -1.734375 L 2.921875 -0.71875 C 3 -0.625 3.125 -0.46875 3.125 -0.453125 C 3.125 -0.375 2.984375 -0.375 2.875 -0.375 L 2.875 0 C 3.109375 -0.015625 3.8125 -0.03125 3.84375 -0.03125 C 4.140625 -0.03125 4.40625 -0.015625 4.671875 0 Z M 4.671875 0 "/>
</symbol>
<symbol overflow="visible" id="sv75a8237e-glyph3-5">
<path style="stroke:none;" d="M 4.90625 0 L 4.90625 -0.375 L 4.34375 -0.375 L 4.34375 -2.4375 C 4.34375 -3.28125 3.921875 -3.578125 3.125 -3.578125 C 2.359375 -3.578125 1.953125 -3.125 1.78125 -2.828125 L 1.765625 -2.828125 L 1.765625 -5.53125 L 0.359375 -5.46875 L 0.359375 -5.09375 C 0.859375 -5.09375 0.90625 -5.09375 0.90625 -4.78125 L 0.90625 -0.375 L 0.359375 -0.375 L 0.359375 0 L 1.359375 -0.03125 L 2.359375 0 L 2.359375 -0.375 L 1.8125 -0.375 L 1.8125 -2.046875 C 1.8125 -2.90625 2.5 -3.296875 3 -3.296875 C 3.28125 -3.296875 3.4375 -3.125 3.4375 -2.53125 L 3.4375 -0.375 L 2.890625 -0.375 L 2.890625 0 L 3.890625 -0.03125 Z M 4.90625 0 "/>
</symbol>
<symbol overflow="visible" id="sv75a8237e-glyph3-6">
<path style="stroke:none;" d="M 4.3125 -1.734375 C 4.3125 -2.8125 3.578125 -3.609375 2.28125 -3.609375 C 0.984375 -3.609375 0.25 -2.796875 0.25 -1.734375 C 0.25 -0.75 0.953125 0.046875 2.28125 0.046875 C 3.625 0.046875 4.3125 -0.75 4.3125 -1.734375 Z M 3.296875 -1.828125 C 3.296875 -1.125 3.296875 -0.265625 2.28125 -0.265625 C 1.28125 -0.265625 1.28125 -1.125 1.28125 -1.828125 C 1.28125 -2.1875 1.28125 -2.59375 1.40625 -2.859375 C 1.5625 -3.15625 1.890625 -3.328125 2.28125 -3.328125 C 2.625 -3.328125 2.953125 -3.203125 3.125 -2.921875 C 3.296875 -2.640625 3.296875 -2.203125 3.296875 -1.828125 Z M 3.296875 -1.828125 "/>
</symbol>
<symbol overflow="visible" id="sv75a8237e-glyph3-7">
<path style="stroke:none;" d="M 4.40625 -0.1875 C 4.40625 -0.375 4.296875 -0.375 4.203125 -0.375 C 3.71875 -0.375 3.71875 -0.484375 3.71875 -0.671875 L 3.71875 -2.375 C 3.71875 -3.09375 3.140625 -3.609375 1.953125 -3.609375 C 1.5 -3.609375 0.53125 -3.578125 0.53125 -2.875 C 0.53125 -2.53125 0.8125 -2.375 1.03125 -2.375 C 1.28125 -2.375 1.53125 -2.546875 1.53125 -2.875 C 1.53125 -3.109375 1.375 -3.25 1.359375 -3.265625 C 1.578125 -3.3125 1.828125 -3.328125 1.921875 -3.328125 C 2.53125 -3.328125 2.8125 -2.984375 2.8125 -2.375 L 2.8125 -2.109375 C 2.234375 -2.09375 0.21875 -2.015625 0.21875 -0.859375 C 0.21875 -0.09375 1.203125 0.046875 1.75 0.046875 C 2.390625 0.046875 2.765625 -0.28125 2.9375 -0.609375 C 2.9375 -0.359375 2.9375 0 3.765625 0 L 4.15625 0 C 4.3125 0 4.40625 0 4.40625 -0.1875 Z M 2.8125 -1.109375 C 2.8125 -0.34375 2.078125 -0.234375 1.875 -0.234375 C 1.46875 -0.234375 1.140625 -0.515625 1.140625 -0.875 C 1.140625 -1.734375 2.40625 -1.84375 2.8125 -1.859375 Z M 2.8125 -1.109375 "/>
</symbol>
<symbol overflow="visible" id="sv75a8237e-glyph3-8">
<path style="stroke:none;" d="M 4.90625 0 L 4.90625 -0.375 L 4.34375 -0.375 L 4.34375 -2.4375 C 4.34375 -3.28125 3.921875 -3.578125 3.125 -3.578125 C 2.359375 -3.578125 1.9375 -3.125 1.734375 -2.71875 L 1.734375 -3.578125 L 0.359375 -3.515625 L 0.359375 -3.140625 C 0.859375 -3.140625 0.90625 -3.140625 0.90625 -2.84375 L 0.90625 -0.375 L 0.359375 -0.375 L 0.359375 0 L 1.359375 -0.03125 L 2.359375 0 L 2.359375 -0.375 L 1.8125 -0.375 L 1.8125 -2.046875 C 1.8125 -2.90625 2.5 -3.296875 3 -3.296875 C 3.28125 -3.296875 3.4375 -3.125 3.4375 -2.53125 L 3.4375 -0.375 L 2.890625 -0.375 L 2.890625 0 L 3.890625 -0.03125 Z M 4.90625 0 "/>
</symbol>
<symbol overflow="visible" id="sv75a8237e-glyph3-9">
<path style="stroke:none;" d="M 6.03125 -3.453125 L 5.859375 -5.375 L 0.5 -5.375 L 0.328125 -3.453125 L 0.703125 -3.453125 C 0.78125 -4.359375 0.859375 -5 2.015625 -5 L 2.625 -5 L 2.625 -0.375 L 1.40625 -0.375 L 1.40625 0 C 1.828125 -0.03125 2.71875 -0.03125 3.1875 -0.03125 C 3.65625 -0.03125 4.546875 -0.03125 4.96875 0 L 4.96875 -0.375 L 3.75 -0.375 L 3.75 -5 L 4.359375 -5 C 5.5 -5 5.578125 -4.359375 5.65625 -3.453125 Z M 6.03125 -3.453125 "/>
</symbol>
<symbol overflow="visible" id="sv75a8237e-glyph3-10">
<path style="stroke:none;" d="M 3.515625 -2.9375 C 3.515625 -3.359375 3.09375 -3.578125 2.671875 -3.578125 C 2.125 -3.578125 1.796875 -3.1875 1.625 -2.6875 L 1.625 -3.578125 L 0.296875 -3.515625 L 0.296875 -3.140625 C 0.78125 -3.140625 0.84375 -3.140625 0.84375 -2.84375 L 0.84375 -0.375 L 0.296875 -0.375 L 0.296875 0 L 1.296875 -0.03125 C 1.609375 -0.03125 2.109375 -0.03125 2.40625 0 L 2.40625 -0.375 L 1.703125 -0.375 L 1.703125 -1.765625 C 1.703125 -2.328125 1.90625 -3.296875 2.703125 -3.296875 C 2.703125 -3.296875 2.546875 -3.15625 2.546875 -2.9375 C 2.546875 -2.609375 2.8125 -2.453125 3.03125 -2.453125 C 3.265625 -2.453125 3.515625 -2.609375 3.515625 -2.9375 Z M 3.515625 -2.9375 "/>
</symbol>
<symbol overflow="visible" id="sv75a8237e-glyph3-11">
<path style="stroke:none;" d="M 4.90625 0 L 4.90625 -0.375 C 4.40625 -0.375 4.34375 -0.375 4.34375 -0.6875 L 4.34375 -3.578125 L 2.890625 -3.515625 L 2.890625 -3.140625 C 3.390625 -3.140625 3.4375 -3.140625 3.4375 -2.84375 L 3.4375 -1.3125 C 3.4375 -0.65625 3.03125 -0.234375 2.453125 -0.234375 C 1.84375 -0.234375 1.8125 -0.4375 1.8125 -0.875 L 1.8125 -3.578125 L 0.359375 -3.515625 L 0.359375 -3.140625 C 0.859375 -3.140625 0.90625 -3.140625 0.90625 -2.84375 L 0.90625 -0.984375 C 0.90625 -0.125 1.546875 0.046875 2.34375 0.046875 C 2.546875 0.046875 3.125 0.046875 3.484375 -0.578125 L 3.484375 0.046875 Z M 3.171875 0.96875 C 3.171875 0.625 2.890625 0.34375 2.546875 0.34375 C 2.203125 0.34375 1.921875 0.625 1.921875 0.96875 C 1.921875 1.3125 2.203125 1.59375 2.546875 1.59375 C 2.890625 1.59375 3.171875 1.3125 3.171875 0.96875 Z M 3.171875 0.96875 "/>
</symbol>
<symbol overflow="visible" id="sv75a8237e-glyph3-12">
<path style="stroke:none;" d="M 3.8125 -0.9375 C 3.8125 -1.046875 3.703125 -1.046875 3.625 -1.046875 C 3.46875 -1.046875 3.46875 -1.03125 3.421875 -0.921875 C 3.21875 -0.421875 2.84375 -0.265625 2.4375 -0.265625 C 1.328125 -0.265625 1.328125 -1.4375 1.328125 -1.8125 C 1.328125 -2.25 1.328125 -3.296875 2.34375 -3.296875 C 2.625 -3.296875 2.765625 -3.265625 2.875 -3.25 C 2.71875 -3.109375 2.703125 -2.953125 2.703125 -2.875 C 2.703125 -2.53125 2.984375 -2.375 3.203125 -2.375 C 3.453125 -2.375 3.703125 -2.546875 3.703125 -2.875 C 3.703125 -3.5625 2.78125 -3.609375 2.3125 -3.609375 C 0.890625 -3.609375 0.296875 -2.6875 0.296875 -1.765625 C 0.296875 -0.703125 1.046875 0.046875 2.28125 0.046875 C 3.5625 0.046875 3.8125 -0.875 3.8125 -0.9375 Z M 3.8125 -0.9375 "/>
</symbol>
<symbol overflow="visible" id="sv75a8237e-glyph3-13">
<path style="stroke:none;" d="M 4.65625 0 L 4.65625 -0.375 L 4.09375 -0.375 L 2.75 -1.953125 L 3.6875 -3 C 3.796875 -3.109375 3.84375 -3.15625 4.5 -3.15625 L 4.5 -3.53125 L 3.765625 -3.515625 L 2.953125 -3.53125 L 2.953125 -3.15625 C 3.0625 -3.15625 3.15625 -3.140625 3.25 -3.09375 C 3.21875 -3.046875 3.21875 -3.03125 3.1875 -3 L 2.515625 -2.25 L 1.734375 -3.15625 L 2.0625 -3.15625 L 2.0625 -3.53125 L 1.09375 -3.515625 L 0.21875 -3.53125 L 0.21875 -3.15625 L 0.78125 -3.15625 L 2.03125 -1.703125 L 0.984375 -0.53125 C 0.84375 -0.375 0.5625 -0.375 0.171875 -0.375 L 0.171875 0 L 0.90625 -0.03125 L 1.734375 0 L 1.734375 -0.375 C 1.578125 -0.375 1.4375 -0.421875 1.4375 -0.46875 C 1.4375 -0.46875 1.4375 -0.484375 1.484375 -0.546875 L 2.265625 -1.40625 L 3.140625 -0.375 L 2.828125 -0.375 L 2.828125 0 L 3.78125 -0.03125 Z M 4.65625 0 "/>
</symbol>
<symbol overflow="visible" id="sv75a8237e-glyph3-14">
<path style="stroke:none;" d="M 4.625 -3.15625 L 4.625 -3.53125 C 4.4375 -3.515625 4.1875 -3.515625 4 -3.515625 L 3.265625 -3.53125 L 3.265625 -3.15625 C 3.265625 -3.15625 3.640625 -3.15625 3.640625 -3.0625 L 3.609375 -2.96875 L 2.6875 -1.015625 L 1.671875 -3.15625 L 2.109375 -3.15625 L 2.109375 -3.53125 L 1.109375 -3.515625 L 0.203125 -3.53125 L 0.203125 -3.15625 L 0.71875 -3.15625 L 2.203125 0 L 2.03125 0.375 C 1.84375 0.765625 1.59375 1.3125 1.03125 1.3125 C 0.921875 1.3125 0.90625 1.296875 0.84375 1.28125 C 0.90625 1.25 1.09375 1.125 1.09375 0.859375 C 1.09375 0.59375 0.90625 0.390625 0.625 0.390625 C 0.40625 0.390625 0.171875 0.546875 0.171875 0.859375 C 0.171875 1.265625 0.546875 1.59375 1.03125 1.59375 C 1.640625 1.59375 2.109375 1.09375 2.3125 0.640625 L 4.03125 -3 C 4.09375 -3.109375 4.109375 -3.15625 4.625 -3.15625 Z M 4.625 -3.15625 "/>
</symbol>
<symbol overflow="visible" id="sv75a8237e-glyph3-15">
<path style="stroke:none;" d="M 6 -1.484375 C 6 -2.25 5.3125 -2.78125 4.359375 -2.859375 C 5.234375 -3 5.75 -3.484375 5.75 -4.09375 C 5.75 -4.828125 5.046875 -5.46875 3.765625 -5.46875 L 0.3125 -5.46875 L 0.3125 -5.09375 L 1.171875 -5.09375 L 1.171875 -0.375 L 0.3125 -0.375 L 0.3125 0 L 4.015625 0 C 5.328125 0 6 -0.703125 6 -1.484375 Z M 4.609375 -4.09375 C 4.609375 -3.484375 4.234375 -2.984375 3.453125 -2.984375 L 2.21875 -2.984375 L 2.21875 -5.09375 L 3.671875 -5.09375 C 4.46875 -5.09375 4.609375 -4.46875 4.609375 -4.09375 Z M 4.828125 -1.484375 C 4.828125 -1.390625 4.828125 -0.375 3.6875 -0.375 L 2.21875 -0.375 L 2.21875 -2.703125 L 3.765625 -2.703125 C 3.921875 -2.703125 4.296875 -2.703125 4.5625 -2.359375 C 4.828125 -2.03125 4.828125 -1.578125 4.828125 -1.484375 Z M 4.828125 -1.484375 "/>
</symbol>
<symbol overflow="visible" id="sv75a8237e-glyph3-16">
<path style="stroke:none;" d="M 4.40625 -0.1875 C 4.40625 -0.375 4.296875 -0.375 4.203125 -0.375 C 3.71875 -0.375 3.71875 -0.484375 3.71875 -0.671875 L 3.71875 -2.375 C 3.71875 -3.09375 3.140625 -3.609375 1.953125 -3.609375 C 1.5 -3.609375 0.53125 -3.578125 0.53125 -2.875 C 0.53125 -2.53125 0.8125 -2.375 1.03125 -2.375 C 1.28125 -2.375 1.53125 -2.546875 1.53125 -2.875 C 1.53125 -3.109375 1.375 -3.25 1.359375 -3.265625 C 1.578125 -3.3125 1.828125 -3.328125 1.921875 -3.328125 C 2.53125 -3.328125 2.8125 -2.984375 2.8125 -2.375 L 2.8125 -2.109375 C 2.234375 -2.09375 0.21875 -2.015625 0.21875 -0.859375 C 0.21875 -0.09375 1.203125 0.046875 1.75 0.046875 C 2.390625 0.046875 2.765625 -0.28125 2.9375 -0.609375 C 2.9375 -0.359375 2.9375 0 3.765625 0 L 4.15625 0 C 4.3125 0 4.40625 0 4.40625 -0.1875 Z M 2.8125 -1.109375 C 2.8125 -0.34375 2.078125 -0.234375 1.875 -0.234375 C 1.46875 -0.234375 1.140625 -0.515625 1.140625 -0.875 C 1.140625 -1.734375 2.40625 -1.84375 2.8125 -1.859375 Z M 3.390625 -5.109375 C 3.390625 -5.359375 3.171875 -5.609375 2.921875 -5.609375 C 2.734375 -5.609375 2.640625 -5.5 2.546875 -5.40625 L 1.65625 -4.34375 L 1.890625 -4.0625 L 3.09375 -4.703125 C 3.21875 -4.765625 3.390625 -4.859375 3.390625 -5.109375 Z M 3.390625 -5.109375 "/>
</symbol>
<symbol overflow="visible" id="sv75a8237e-glyph3-17">
<path style="stroke:none;" d="M 2.28125 0 L 2.28125 -0.375 L 1.78125 -0.375 L 1.78125 -3.578125 L 0.390625 -3.515625 L 0.390625 -3.140625 C 0.875 -3.140625 0.921875 -3.140625 0.921875 -2.84375 L 0.921875 -0.375 L 0.375 -0.375 L 0.375 0 L 1.34375 -0.03125 Z M 2.4375 -5.109375 C 2.4375 -5.359375 2.21875 -5.609375 1.953125 -5.609375 C 1.78125 -5.609375 1.6875 -5.5 1.578125 -5.40625 L 0.6875 -4.34375 L 0.9375 -4.0625 L 2.140625 -4.703125 C 2.265625 -4.765625 2.4375 -4.859375 2.4375 -5.109375 Z M 2.4375 -5.109375 "/>
</symbol>
<symbol overflow="visible" id="sv75a8237e-glyph3-18">
<path style="stroke:none;" d="M 2.328125 0 L 2.328125 -0.375 L 1.78125 -0.375 L 1.78125 -5.53125 L 0.375 -5.46875 L 0.375 -5.09375 C 0.875 -5.09375 0.921875 -5.09375 0.921875 -4.78125 L 0.921875 -0.375 L 0.375 -0.375 L 0.375 0 L 1.359375 -0.03125 Z M 2.328125 0 "/>
</symbol>
<symbol overflow="visible" id="sv75a8237e-glyph3-19">
<path style="stroke:none;" d="M 4.3125 -1.734375 C 4.3125 -2.8125 3.578125 -3.609375 2.28125 -3.609375 C 0.984375 -3.609375 0.25 -2.796875 0.25 -1.734375 C 0.25 -0.75 0.953125 0.046875 2.28125 0.046875 C 3.625 0.046875 4.3125 -0.75 4.3125 -1.734375 Z M 3.296875 -1.828125 C 3.296875 -1.125 3.296875 -0.265625 2.28125 -0.265625 C 1.28125 -0.265625 1.28125 -1.125 1.28125 -1.828125 C 1.28125 -2.1875 1.28125 -2.59375 1.40625 -2.859375 C 1.5625 -3.15625 1.890625 -3.328125 2.28125 -3.328125 C 2.625 -3.328125 2.953125 -3.203125 3.125 -2.921875 C 3.296875 -2.640625 3.296875 -2.203125 3.296875 -1.828125 Z M 3.6875 -4.203125 L 2.296875 -5.328125 L 0.90625 -4.203125 L 1.015625 -4.015625 L 2.28125 -4.46875 L 3.5625 -4.015625 Z M 3.8125 -6.421875 L 3.609375 -6.625 C 3.375 -6.34375 3.09375 -6.34375 3 -6.34375 C 2.84375 -6.34375 2.703125 -6.375 2.359375 -6.484375 C 2 -6.609375 1.84375 -6.625 1.734375 -6.625 C 1.59375 -6.625 1.375 -6.59375 1.15625 -6.375 C 1.078125 -6.28125 0.859375 -6.046875 0.765625 -5.953125 L 0.984375 -5.765625 C 1.21875 -6.03125 1.5 -6.03125 1.578125 -6.03125 C 1.75 -6.03125 1.875 -6.015625 2.21875 -5.890625 C 2.59375 -5.78125 2.734375 -5.765625 2.859375 -5.765625 C 3 -5.765625 3.21875 -5.796875 3.421875 -6.015625 C 3.515625 -6.09375 3.734375 -6.328125 3.8125 -6.421875 Z M 3.8125 -6.421875 "/>
</symbol>
</g>
<clipPath id="sv75a8237e-clip1">
  <path d="M 370 37 L 448 37 L 448 59.285156 L 370 59.285156 Z M 370 37 "/>
</clipPath>
<clipPath id="sv75a8237e-clip2">
  <path d="M 370 37 L 448 37 L 448 63.113281 L 370 63.113281 Z M 370 37 "/>
</clipPath>
</defs>
<g id="sv75a8237e-surface1">
<path style="fill:none;stroke-width:0.79701;stroke-linecap:round;stroke-linejoin:round;stroke:rgb(0%,0%,0%);stroke-opacity:1;stroke-miterlimit:10;" d="M -56.128156 -0.00128125 L -38.268781 -0.00128125 " transform="matrix(1,0,0,-1,128.218,63.112)"/>
<path style="fill:none;stroke-width:0.3985;stroke-linecap:round;stroke-linejoin:round;stroke:rgb(0%,0%,0%);stroke-opacity:1;stroke-dasharray:2.98883,2.98883;stroke-miterlimit:10;" d="M -38.268781 -0.00128125 L 38.266375 -0.00128125 " transform="matrix(1,0,0,-1,128.218,63.112)"/>
<path style="fill:none;stroke-width:0.79701;stroke-linecap:round;stroke-linejoin:round;stroke:rgb(0%,0%,0%);stroke-opacity:1;stroke-miterlimit:10;" d="M 38.266375 -0.00128125 L 61.18825 -0.00128125 " transform="matrix(1,0,0,-1,128.218,63.112)"/>
<path style=" stroke:none;fill-rule:nonzero;fill:rgb(0%,0%,0%);fill-opacity:1;" d="M 191.996094 63.113281 L 187.851562 61.039062 L 189.40625 63.113281 L 187.851562 65.183594 "/>
<g style="fill:rgb(0%,0%,0%);fill-opacity:1;">
  <use xlink:href="#sv75a8237e-glyph0-1" x="189.719" y="69.519"/>
</g>
<path style="fill:none;stroke-width:0.79701;stroke-linecap:round;stroke-linejoin:round;stroke:rgb(0%,0%,0%);stroke-opacity:1;stroke-miterlimit:10;" d="M 0.00075 -45.923156 L 0.00075 -25.513 " transform="matrix(1,0,0,-1,128.218,63.112)"/>
<path style="fill:none;stroke-width:0.3985;stroke-linecap:round;stroke-linejoin:round;stroke:rgb(0%,0%,0%);stroke-opacity:1;stroke-dasharray:2.98883,2.98883;stroke-miterlimit:10;" d="M 0.00075 -25.513 L 0.00075 25.510437 " transform="matrix(1,0,0,-1,128.218,63.112)"/>
<path style="fill:none;stroke-width:0.79701;stroke-linecap:round;stroke-linejoin:round;stroke:rgb(0%,0%,0%);stroke-opacity:1;stroke-miterlimit:10;" d="M 0.00075 25.510437 L 0.00075 43.33075 " transform="matrix(1,0,0,-1,128.218,63.112)"/>
<path style=" stroke:none;fill-rule:nonzero;fill:rgb(0%,0%,0%);fill-opacity:1;" d="M 128.21875 17.191406 L 126.144531 21.335938 L 128.21875 19.78125 L 130.289062 21.335938 "/>
<g style="fill:rgb(0%,0%,0%);fill-opacity:1;">
  <use xlink:href="#sv75a8237e-glyph0-2" x="121.049" y="18.132"/>
</g>
<g style="fill:rgb(0%,0%,0%);fill-opacity:1;">
  <use xlink:href="#sv75a8237e-glyph0-3" x="118.942" y="71.534"/>
</g>
<path style="fill:none;stroke-width:0.79701;stroke-linecap:round;stroke-linejoin:round;stroke:rgb(0%,0%,0%);stroke-opacity:1;stroke-miterlimit:10;" d="M 38.266375 -0.00128125 C 38.266375 14.088562 21.133563 25.510437 0.00075 25.510437 C -21.135969 25.510437 -38.268781 14.088562 -38.268781 -0.00128125 C -38.268781 -14.091125 -21.135969 -25.513 0.00075 -25.513 C 21.133563 -25.513 38.266375 -14.091125 38.266375 -0.00128125 Z M 38.266375 -0.00128125 " transform="matrix(1,0,0,-1,128.218,63.112)"/>
<g style="fill:rgb(0%,0%,0%);fill-opacity:1;">
  <use xlink:href="#sv75a8237e-glyph0-1" x="140.0662" y="17.1148"/>
</g>
<g style="fill:rgb(0%,0%,0%);fill-opacity:1;">
  <use xlink:href="#sv75a8237e-glyph1-1" x="144.6214" y="14.222"/>
</g>
<path style="fill:none;stroke-width:0.398;stroke-linecap:butt;stroke-linejoin:round;stroke:rgb(0%,0%,0%);stroke-opacity:1;stroke-miterlimit:10;" d="M -0.00225 -0.00203125 L 17.199898 -0.00203125 " transform="matrix(0.8,0,0,-0.8,137.2518,20.514)"/>
<g style="fill:rgb(0%,0%,0%);fill-opacity:1;">
  <use xlink:href="#sv75a8237e-glyph2-1" x="137.2518" y="27.9732"/>
</g>
<g style="fill:rgb(0%,0%,0%);fill-opacity:1;">
  <use xlink:href="#sv75a8237e-glyph0-4" x="141.2366" y="27.9732"/>
</g>
<g style="fill:rgb(0%,0%,0%);fill-opacity:1;">
  <use xlink:href="#sv75a8237e-glyph2-2" x="143.451" y="27.9732"/>
</g>
<g style="fill:rgb(0%,0%,0%);fill-opacity:1;">
  <use xlink:href="#sv75a8237e-glyph1-1" x="147.4358" y="25.6708"/>
</g>
<g style="fill:rgb(0%,0%,0%);fill-opacity:1;">
  <use xlink:href="#sv75a8237e-glyph2-3" x="153.739" y="22.506"/>
</g>
<g style="fill:rgb(0%,0%,0%);fill-opacity:1;">
  <use xlink:href="#sv75a8237e-glyph0-2" x="162.6654" y="17.1148"/>
</g>
<g style="fill:rgb(0%,0%,0%);fill-opacity:1;">
  <use xlink:href="#sv75a8237e-glyph1-1" x="166.859" y="14.222"/>
</g>
<path style="fill:none;stroke-width:0.398;stroke-linecap:butt;stroke-linejoin:round;stroke:rgb(0%,0%,0%);stroke-opacity:1;stroke-miterlimit:10;" d="M -0.00167187 -0.00203125 L 9.710242 -0.00203125 " transform="matrix(0.8,0,0,-0.8,162.6654,20.514)"/>
<g style="fill:rgb(0%,0%,0%);fill-opacity:1;">
  <use xlink:href="#sv75a8237e-glyph2-1" x="162.7694" y="27.9732"/>
</g>
<g style="fill:rgb(0%,0%,0%);fill-opacity:1;">
  <use xlink:href="#sv75a8237e-glyph1-1" x="166.7542" y="25.6708"/>
</g>
<g style="fill:rgb(0%,0%,0%);fill-opacity:1;">
  <use xlink:href="#sv75a8237e-glyph2-4" x="173.6046" y="22.506"/>
</g>
<g style="fill:rgb(0%,0%,0%);fill-opacity:1;">
  <use xlink:href="#sv75a8237e-glyph2-1" x="182.011474" y="22.506"/>
</g>
<path style="fill:none;stroke-width:0.3985;stroke-linecap:round;stroke-linejoin:round;stroke:rgb(0%,0%,0%);stroke-opacity:1;stroke-dasharray:2.98883,2.98883;stroke-miterlimit:10;" d="M -38.010969 3.826844 L 38.012469 3.826844 " transform="matrix(1,0,0,-1,128.218,63.112)"/>
<path style="fill:none;stroke-width:0.3985;stroke-linecap:round;stroke-linejoin:round;stroke:rgb(0%,0%,0%);stroke-opacity:1;stroke-dasharray:2.98883,2.98883;stroke-miterlimit:10;" d="M -38.010969 -3.8255 L 38.012469 -3.8255 " transform="matrix(1,0,0,-1,128.218,63.112)"/>
<path style="fill:none;stroke-width:0.3985;stroke-linecap:round;stroke-linejoin:round;stroke:rgb(0%,0%,0%);stroke-opacity:1;stroke-dasharray:2.98883,2.98883;stroke-miterlimit:10;" d="M 0.00075 -25.513 C 2.114031 -25.513 3.824969 -14.091125 3.824969 -0.00128125 C 3.824969 14.088562 2.114031 25.510437 0.00075 25.510437 " transform="matrix(1,0,0,-1,128.218,63.112)"/>
<path style="fill:none;stroke-width:0.79701;stroke-linecap:round;stroke-linejoin:round;stroke:rgb(0%,0%,0%);stroke-opacity:1;stroke-miterlimit:10;" d="M 0.00075 25.510437 C -2.112531 25.510437 -3.827375 14.088562 -3.827375 -0.00128125 C -3.827375 -14.091125 -2.112531 -25.513 0.00075 -25.513 " transform="matrix(1,0,0,-1,128.218,63.112)"/>
<path style="fill:none;stroke-width:0.3985;stroke-linecap:round;stroke-linejoin:round;stroke:rgb(0%,0%,0%);stroke-opacity:1;stroke-dasharray:2.98883,2.98883;stroke-miterlimit:10;" d="M -20.409406 -21.430969 C -18.296125 -21.430969 -16.581281 -11.837219 -16.581281 -0.00128125 C -16.581281 11.834656 -18.296125 21.428406 -20.409406 21.428406 " transform="matrix(1,0,0,-1,128.218,63.112)"/>
<path style="fill:none;stroke-width:0.79701;stroke-linecap:round;stroke-linejoin:round;stroke:rgb(0%,0%,0%);stroke-opacity:1;stroke-miterlimit:10;" d="M -20.409406 21.428406 C -22.522687 21.428406 -24.237531 11.834656 -24.237531 -0.00128125 C -24.237531 -11.837219 -22.522687 -21.430969 -20.409406 -21.430969 " transform="matrix(1,0,0,-1,128.218,63.112)"/>
<path style="fill:none;stroke-width:0.3985;stroke-linecap:round;stroke-linejoin:round;stroke:rgb(0%,0%,0%);stroke-opacity:1;stroke-dasharray:2.98883,2.98883;stroke-miterlimit:10;" d="M 20.410906 -21.430969 C 22.524188 -21.430969 24.235125 -11.837219 24.235125 -0.00128125 C 24.235125 11.834656 22.524188 21.428406 20.410906 21.428406 " transform="matrix(1,0,0,-1,128.218,63.112)"/>
<path style="fill:none;stroke-width:0.79701;stroke-linecap:round;stroke-linejoin:round;stroke:rgb(0%,0%,0%);stroke-opacity:1;stroke-miterlimit:10;" d="M 20.410906 21.428406 C 18.297625 21.428406 16.582781 11.834656 16.582781 -0.00128125 C 16.582781 -11.837219 18.297625 -21.430969 20.410906 -21.430969 " transform="matrix(1,0,0,-1,128.218,63.112)"/>
<path style=" stroke:none;fill-rule:nonzero;fill:rgb(25%,25%,25%);fill-opacity:1;" d="M 26.171875 66.9375 L 26.171875 59.285156 L 51.683594 59.285156 L 51.683594 66.9375 Z M 26.171875 66.9375 "/>
<path style=" stroke:none;fill-rule:nonzero;fill:rgb(25%,25%,25%);fill-opacity:1;" d="M 51.683594 59.285156 L 61.886719 63.113281 L 51.683594 66.9375 Z M 51.683594 59.285156 "/>
<path style="fill:none;stroke-width:0.79701;stroke-linecap:round;stroke-linejoin:round;stroke:rgb(100%,100%,100%);stroke-opacity:1;stroke-miterlimit:10;" d="M -96.944562 -3.8255 L -89.292219 3.826844 " transform="matrix(1,0,0,-1,128.218,63.112)"/>
<path style="fill:none;stroke-width:0.79701;stroke-linecap:round;stroke-linejoin:round;stroke:rgb(100%,100%,100%);stroke-opacity:1;stroke-miterlimit:10;" d="M -86.741437 -3.8255 L -79.089094 3.826844 " transform="matrix(1,0,0,-1,128.218,63.112)"/>
<g style="fill:rgb(0%,0%,0%);fill-opacity:1;">
  <use xlink:href="#sv75a8237e-glyph3-1" x="17.201" y="52.436"/>
  <use xlink:href="#sv75a8237e-glyph3-2" x="25.904362" y="52.436"/>
  <use xlink:href="#sv75a8237e-glyph3-3" x="30.997264" y="52.436"/>
</g>
<g style="fill:rgb(0%,0%,0%);fill-opacity:1;">
  <use xlink:href="#sv75a8237e-glyph3-4" x="36.592282" y="52.436"/>
  <use xlink:href="#sv75a8237e-glyph3-5" x="41.43014" y="52.436"/>
  <use xlink:href="#sv75a8237e-glyph3-6" x="46.523042" y="52.436"/>
  <use xlink:href="#sv75a8237e-glyph3-7" x="51.105856" y="52.436"/>
  <use xlink:href="#sv75a8237e-glyph3-8" x="55.561149" y="52.436"/>
</g>
<g style="fill:rgb(0%,0%,0%);fill-opacity:1;">
  <use xlink:href="#sv75a8237e-glyph3-9" x="18.846" y="86.775"/>
</g>
<g style="fill:rgb(0%,0%,0%);fill-opacity:1;">
  <use xlink:href="#sv75a8237e-glyph3-10" x="24.456959" y="86.775"/>
  <use xlink:href="#sv75a8237e-glyph3-11" x="28.234792" y="86.775"/>
  <use xlink:href="#sv75a8237e-glyph3-12" x="33.327694" y="86.775"/>
</g>
<g style="fill:rgb(0%,0%,0%);fill-opacity:1;">
  <use xlink:href="#sv75a8237e-glyph3-13" x="40.452974" y="86.775"/>
  <use xlink:href="#sv75a8237e-glyph3-6" x="45.290832" y="86.775"/>
  <use xlink:href="#sv75a8237e-glyph3-7" x="49.873646" y="86.775"/>
</g>
<g style="fill:rgb(0%,0%,0%);fill-opacity:1;">
  <use xlink:href="#sv75a8237e-glyph3-14" x="54.073895" y="86.775"/>
</g>
<path style="fill:none;stroke-width:0.79701;stroke-linecap:round;stroke-linejoin:round;stroke:rgb(0%,0%,0%);stroke-opacity:1;stroke-miterlimit:10;" d="M -66.331281 -15.305969 L -48.057844 -2.743469 " transform="matrix(1,0,0,-1,128.218,63.112)"/>
<path style=" stroke:none;fill-rule:nonzero;fill:rgb(0%,0%,0%);fill-opacity:1;" d="M 82.296875 64.386719 L 77.707031 65.027344 L 80.160156 65.855469 L 80.054688 68.441406 "/>
<path style="fill:none;stroke-width:0.3985;stroke-linecap:round;stroke-linejoin:round;stroke:rgb(0%,0%,0%);stroke-opacity:1;stroke-miterlimit:10;" d="M -30.612531 -0.00128125 L -30.612531 3.826844 " transform="matrix(1,0,0,-1,128.218,63.112)"/>
<path style="fill:none;stroke-width:0.3985;stroke-linecap:round;stroke-linejoin:round;stroke:rgb(0%,0%,0%);stroke-opacity:1;stroke-miterlimit:10;" d="M -32.104719 2.596375 L -63.7805 30.615906 " transform="matrix(1,0,0,-1,128.218,63.112)"/>
<path style=" stroke:none;fill-rule:nonzero;fill:rgb(0%,0%,0%);fill-opacity:1;" d="M 97.605469 61.835938 L 96.273438 58.53125 L 96.113281 60.515625 L 94.160156 60.917969 "/>
<g style="fill:rgb(0%,0%,0%);fill-opacity:1;">
  <use xlink:href="#sv75a8237e-glyph3-15" x="10.627" y="27.974"/>
  <use xlink:href="#sv75a8237e-glyph3-16" x="17.146552" y="27.974"/>
  <use xlink:href="#sv75a8237e-glyph3-8" x="21.601844" y="27.974"/>
</g>
<g style="fill:rgb(0%,0%,0%);fill-opacity:1;">
  <use xlink:href="#sv75a8237e-glyph3-4" x="29.747299" y="27.974"/>
  <use xlink:href="#sv75a8237e-glyph3-17" x="34.585157" y="27.974"/>
  <use xlink:href="#sv75a8237e-glyph3-8" x="37.127622" y="27.974"/>
  <use xlink:href="#sv75a8237e-glyph3-5" x="42.220524" y="27.974"/>
</g>
<g style="fill:rgb(0%,0%,0%);fill-opacity:1;">
  <use xlink:href="#sv75a8237e-glyph3-18" x="50.365978" y="27.974"/>
  <use xlink:href="#sv75a8237e-glyph3-19" x="52.908444" y="27.974"/>
</g>
<g style="fill:rgb(0%,0%,0%);fill-opacity:1;">
  <use xlink:href="#sv75a8237e-glyph3-4" x="60.543811" y="27.974"/>
  <use xlink:href="#sv75a8237e-glyph3-5" x="65.381669" y="27.974"/>
  <use xlink:href="#sv75a8237e-glyph3-6" x="70.474571" y="27.974"/>
  <use xlink:href="#sv75a8237e-glyph3-7" x="75.057385" y="27.974"/>
  <use xlink:href="#sv75a8237e-glyph3-8" x="79.512678" y="27.974"/>
</g>
<g style="fill:rgb(0%,0%,0%);fill-opacity:1;">
  <use xlink:href="#sv75a8237e-glyph2-5" x="87.6574" y="27.974"/>
</g>
<g style="fill:rgb(0%,0%,0%);fill-opacity:1;">
  <use xlink:href="#sv75a8237e-glyph0-4" x="91.643" y="27.974"/>
</g>
<g style="fill:rgb(0%,0%,0%);fill-opacity:1;">
  <use xlink:href="#sv75a8237e-glyph2-1" x="93.8566" y="27.974"/>
</g>
<path style=" stroke:none;fill-rule:nonzero;fill:rgb(69.999695%,69.999695%,69.999695%);fill-opacity:1;" d="M 306.800781 63.113281 C 306.800781 49.023438 289.667969 37.601562 268.535156 37.601562 C 247.398438 37.601562 230.265625 49.023438 230.265625 63.113281 C 230.265625 77.203125 247.398438 88.625 268.535156 88.625 C 289.667969 88.625 306.800781 77.203125 306.800781 63.113281 Z M 306.800781 63.113281 "/>
<path style=" stroke:none;fill-rule:nonzero;fill:rgb(100%,100%,100%);fill-opacity:1;" d="M 230.519531 66.9375 L 230.519531 59.285156 L 306.546875 59.285156 L 306.546875 66.9375 Z M 230.519531 66.9375 "/>
<path style="fill:none;stroke-width:0.79701;stroke-linecap:round;stroke-linejoin:round;stroke:rgb(0%,0%,0%);stroke-opacity:1;stroke-miterlimit:10;" d="M 178.582781 -0.00128125 C 178.582781 14.088562 161.449969 25.510437 140.317156 25.510437 C 119.180438 25.510437 102.047625 14.088562 102.047625 -0.00128125 C 102.047625 -14.091125 119.180438 -25.513 140.317156 -25.513 C 161.449969 -25.513 178.582781 -14.091125 178.582781 -0.00128125 Z M 178.582781 -0.00128125 " transform="matrix(1,0,0,-1,128.218,63.112)"/>
<path style="fill:none;stroke-width:0.3985;stroke-linecap:round;stroke-linejoin:round;stroke:rgb(0%,0%,0%);stroke-opacity:1;stroke-dasharray:2.98883,2.98883;stroke-miterlimit:10;" d="M 102.301531 3.826844 L 178.328875 3.826844 " transform="matrix(1,0,0,-1,128.218,63.112)"/>
<path style="fill:none;stroke-width:0.3985;stroke-linecap:round;stroke-linejoin:round;stroke:rgb(0%,0%,0%);stroke-opacity:1;stroke-dasharray:2.98883,2.98883;stroke-miterlimit:10;" d="M 102.301531 -3.8255 L 178.328875 -3.8255 " transform="matrix(1,0,0,-1,128.218,63.112)"/>
<path style="fill:none;stroke-width:0.3985;stroke-linecap:round;stroke-linejoin:round;stroke:rgb(0%,0%,0%);stroke-opacity:1;stroke-dasharray:2.98883,2.98883;stroke-miterlimit:10;" d="M 140.317156 -25.513 C 142.430438 -25.513 144.141375 -14.091125 144.141375 -0.00128125 C 144.141375 14.088562 142.430438 25.510437 140.317156 25.510437 " transform="matrix(1,0,0,-1,128.218,63.112)"/>
<path style="fill:none;stroke-width:0.79701;stroke-linecap:round;stroke-linejoin:round;stroke:rgb(0%,0%,0%);stroke-opacity:1;stroke-miterlimit:10;" d="M 140.317156 25.510437 C 138.203875 25.510437 136.489031 14.088562 136.489031 -0.00128125 C 136.489031 -14.091125 138.203875 -25.513 140.317156 -25.513 " transform="matrix(1,0,0,-1,128.218,63.112)"/>
<path style="fill:none;stroke-width:0.3985;stroke-linecap:round;stroke-linejoin:round;stroke:rgb(0%,0%,0%);stroke-opacity:1;stroke-miterlimit:10;" d="M 177.817156 3.826844 C 177.114031 3.826844 176.543719 2.112 176.543719 -0.00128125 C 176.543719 -2.114563 177.114031 -3.8255 177.817156 -3.8255 " transform="matrix(1,0,0,-1,128.218,63.112)"/>
<path style="fill:none;stroke-width:0.3985;stroke-linecap:round;stroke-linejoin:round;stroke:rgb(0%,0%,0%);stroke-opacity:1;stroke-dasharray:2.98883,2.98883;stroke-miterlimit:10;" d="M 102.81325 -3.8255 C 103.516375 -3.8255 104.090594 -2.114563 104.090594 -0.00128125 C 104.090594 2.112 103.516375 3.826844 102.81325 3.826844 " transform="matrix(1,0,0,-1,128.218,63.112)"/>
<path style="fill:none;stroke-width:0.3985;stroke-linecap:round;stroke-linejoin:round;stroke:rgb(0%,0%,0%);stroke-opacity:1;stroke-dasharray:2.98883,2.98883;stroke-miterlimit:10;" d="M 102.301531 -0.00128125 L 178.328875 -0.00128125 " transform="matrix(1,0,0,-1,128.218,63.112)"/>
<g clip-path="url(#clip1)" clip-rule="nonzero">
<path style=" stroke:none;fill-rule:nonzero;fill:rgb(69.999695%,69.999695%,69.999695%);fill-opacity:1;" d="M 447.117188 63.113281 C 447.117188 49.023438 429.984375 37.601562 408.847656 37.601562 C 387.714844 37.601562 370.582031 49.023438 370.582031 63.113281 C 370.582031 77.203125 387.714844 88.625 408.847656 88.625 C 429.984375 88.625 447.117188 77.203125 447.117188 63.113281 Z M 447.117188 63.113281 "/>
</g>
<g clip-path="url(#clip2)" clip-rule="nonzero">
<path style="fill:none;stroke-width:0.79701;stroke-linecap:round;stroke-linejoin:round;stroke:rgb(0%,0%,0%);stroke-opacity:1;stroke-miterlimit:10;" d="M 318.899188 -0.00128125 C 318.899188 14.088562 301.766375 25.510437 280.629656 25.510437 C 259.496844 25.510437 242.364031 14.088562 242.364031 -0.00128125 C 242.364031 -14.091125 259.496844 -25.513 280.629656 -25.513 C 301.766375 -25.513 318.899188 -14.091125 318.899188 -0.00128125 Z M 318.899188 -0.00128125 " transform="matrix(1,0,0,-1,128.218,63.112)"/>
</g>
<path style=" stroke:none;fill-rule:nonzero;fill:rgb(100%,100%,100%);fill-opacity:1;" d="M 368.03125 63.113281 L 368.03125 59.285156 L 449.667969 59.285156 L 449.667969 63.113281 Z M 368.03125 63.113281 "/>
<path style="fill:none;stroke-width:0.79701;stroke-linecap:round;stroke-linejoin:round;stroke:rgb(0%,0%,0%);stroke-opacity:1;stroke-miterlimit:10;" d="M 224.504656 -0.00128125 L 344.410906 -0.00128125 " transform="matrix(1,0,0,-1,128.218,63.112)"/>
<g style="fill:rgb(0%,0%,0%);fill-opacity:1;">
  <use xlink:href="#sv75a8237e-glyph0-1" x="470.347" y="69.519"/>
</g>
<path style="fill:none;stroke-width:0.79701;stroke-linecap:round;stroke-linejoin:round;stroke:rgb(0%,0%,0%);stroke-opacity:1;stroke-miterlimit:10;" d="M 280.629656 -12.755188 L 280.629656 43.33075 " transform="matrix(1,0,0,-1,128.218,63.112)"/>
<path style=" stroke:none;fill-rule:nonzero;fill:rgb(0%,0%,0%);fill-opacity:1;" d="M 408.847656 17.191406 L 406.777344 21.335938 L 408.847656 19.78125 L 410.921875 21.335938 "/>
<g style="fill:rgb(0%,0%,0%);fill-opacity:1;">
  <use xlink:href="#sv75a8237e-glyph0-2" x="401.677" y="18.132"/>
</g>
<g style="fill:rgb(0%,0%,0%);fill-opacity:1;">
  <use xlink:href="#sv75a8237e-glyph0-3" x="399.57" y="71.534"/>
</g>
<g style="fill:rgb(0%,0%,0%);fill-opacity:1;">
  <use xlink:href="#sv75a8237e-glyph0-1" x="420.6942" y="17.1148"/>
</g>
<g style="fill:rgb(0%,0%,0%);fill-opacity:1;">
  <use xlink:href="#sv75a8237e-glyph1-1" x="425.2494" y="14.222"/>
</g>
<path style="fill:none;stroke-width:0.398;stroke-linecap:butt;stroke-linejoin:round;stroke:rgb(0%,0%,0%);stroke-opacity:1;stroke-miterlimit:10;" d="M -0.00111719 -0.00203125 L 17.201031 -0.00203125 " transform="matrix(0.8,0,0,-0.8,417.8798,20.514)"/>
<g style="fill:rgb(0%,0%,0%);fill-opacity:1;">
  <use xlink:href="#sv75a8237e-glyph2-1" x="417.8798" y="27.9732"/>
</g>
<g style="fill:rgb(0%,0%,0%);fill-opacity:1;">
  <use xlink:href="#sv75a8237e-glyph0-4" x="421.8646" y="27.9732"/>
</g>
<g style="fill:rgb(0%,0%,0%);fill-opacity:1;">
  <use xlink:href="#sv75a8237e-glyph2-2" x="424.079" y="27.9732"/>
</g>
<g style="fill:rgb(0%,0%,0%);fill-opacity:1;">
  <use xlink:href="#sv75a8237e-glyph1-1" x="428.0638" y="25.6708"/>
</g>
<g style="fill:rgb(0%,0%,0%);fill-opacity:1;">
  <use xlink:href="#sv75a8237e-glyph2-3" x="434.367" y="22.506"/>
</g>
<g style="fill:rgb(0%,0%,0%);fill-opacity:1;">
  <use xlink:href="#sv75a8237e-glyph0-2" x="443.2934" y="17.1148"/>
</g>
<g style="fill:rgb(0%,0%,0%);fill-opacity:1;">
  <use xlink:href="#sv75a8237e-glyph1-1" x="447.487" y="14.222"/>
</g>
<path style="fill:none;stroke-width:0.398;stroke-linecap:butt;stroke-linejoin:round;stroke:rgb(0%,0%,0%);stroke-opacity:1;stroke-miterlimit:10;" d="M -0.000539062 -0.00203125 L 9.711375 -0.00203125 " transform="matrix(0.8,0,0,-0.8,443.2934,20.514)"/>
<g style="fill:rgb(0%,0%,0%);fill-opacity:1;">
  <use xlink:href="#sv75a8237e-glyph2-1" x="443.3974" y="27.9732"/>
</g>
<g style="fill:rgb(0%,0%,0%);fill-opacity:1;">
  <use xlink:href="#sv75a8237e-glyph1-1" x="447.3822" y="25.6708"/>
</g>
<g style="fill:rgb(0%,0%,0%);fill-opacity:1;">
  <use xlink:href="#sv75a8237e-glyph2-4" x="454.2326" y="22.506"/>
</g>
<g style="fill:rgb(0%,0%,0%);fill-opacity:1;">
  <use xlink:href="#sv75a8237e-glyph2-1" x="462.639474" y="22.506"/>
</g>
<path style="fill:none;stroke-width:0.79701;stroke-linecap:round;stroke-linejoin:round;stroke:rgb(0%,0%,0%);stroke-opacity:1;stroke-miterlimit:10;" d="M 242.617938 3.826844 L 318.645281 3.826844 " transform="matrix(1,0,0,-1,128.218,63.112)"/>
<path style="fill:none;stroke-width:0.79701;stroke-linecap:round;stroke-linejoin:round;stroke:rgb(0%,0%,0%);stroke-opacity:1;stroke-miterlimit:10;" d="M 224.504656 3.826844 L 242.617938 3.826844 " transform="matrix(1,0,0,-1,128.218,63.112)"/>
<path style="fill:none;stroke-width:0.79701;stroke-linecap:round;stroke-linejoin:round;stroke:rgb(0%,0%,0%);stroke-opacity:1;stroke-miterlimit:10;" d="M 318.645281 3.826844 L 344.410906 3.826844 " transform="matrix(1,0,0,-1,128.218,63.112)"/>
<g style="fill:rgb(0%,0%,0%);fill-opacity:1;">
  <use xlink:href="#sv75a8237e-glyph0-2" x="449.833" y="56.036"/>
</g>
<g style="fill:rgb(0%,0%,0%);fill-opacity:1;">
  <use xlink:href="#sv75a8237e-glyph2-4" x="456.241" y="56.036"/>
</g>
<g style="fill:rgb(0%,0%,0%);fill-opacity:1;">
  <use xlink:href="#sv75a8237e-glyph2-5" x="464.647874" y="56.036"/>
</g>
<g style="fill:rgb(0%,0%,0%);fill-opacity:1;">
  <use xlink:href="#sv75a8237e-glyph0-4" x="468.6386" y="56.036"/>
</g>
<g style="fill:rgb(0%,0%,0%);fill-opacity:1;">
  <use xlink:href="#sv75a8237e-glyph2-1" x="470.853" y="56.036"/>
</g>
</g>
</svg>