<svg xmlns="http://www.w3.org/2000/svg" xmlns:xlink="http://www.w3.org/1999/xlink" width="135.18pt" height="128.376pt" viewBox="0 0 135.18 128.376" version="1.1">
<g id="surface1">
<path style="fill:none;stroke-width:0.3985;stroke-linecap:round;stroke-linejoin:round;stroke:rgb(0%,0%,0%);stroke-opacity:1;stroke-dasharray:2.98883,2.98883;stroke-miterlimit:10;" d="M -0.00165625 -0.00134375 L 81.638969 -0.00134375 " transform="matrix(1,0,0,-1,43.779,91.401)"/>
<path style="fill:none;stroke-width:0.3985;stroke-linecap:round;stroke-linejoin:round;stroke:rgb(0%,0%,0%);stroke-opacity:1;stroke-dasharray:2.98883,2.98883;stroke-miterlimit:10;" d="M -17.009469 -13.606812 L 64.631156 -13.606812 " transform="matrix(1,0,0,-1,43.779,91.401)"/>
<path style="fill:none;stroke-width:0.3985;stroke-linecap:round;stroke-linejoin:round;stroke:rgb(0%,0%,0%);stroke-opacity:1;stroke-dasharray:2.98883,2.98883;stroke-miterlimit:10;" d="M -0.00165625 40.818969 L 81.638969 40.818969 " transform="matrix(1,0,0,-1,43.779,91.401)"/>
<path style="fill:none;stroke-width:0.3985;stroke-linecap:round;stroke-linejoin:round;stroke:rgb(0%,0%,0%);stroke-opacity:1;stroke-dasharray:2.98883,2.98883;stroke-miterlimit:10;" d="M -17.009469 27.2135 L 64.631156 27.2135 " transform="matrix(1,0,0,-1,43.779,91.401)"/>
<path style="fill:none;stroke-width:0.3985;stroke-linecap:round;stroke-linejoin:round;stroke:rgb(0%,0%,0%);stroke-opacity:1;stroke-dasharray:2.98883,2.98883;stroke-miterlimit:10;" d="M -0.00165625 -0.00134375 L -0.00165625 81.639281 " transform="matrix(1,0,0,-1,43.779,91.401)"/>
<path style="fill:none;stroke-width:0.3985;stroke-linecap:round;stroke-linejoin:round;stroke:rgb(0%,0%,0%);stroke-opacity:1;stroke-dasharray:2.98883,2.98883;stroke-miterlimit:10;" d="M -17.009469 -13.606812 L -17.009469 68.033813 " transform="matrix(1,0,0,-1,43.779,91.401)"/>
<path style="fill:none;stroke-width:0.3985;stroke-linecap:round;stroke-linejoin:round;stroke:rgb(0%,0%,0%);stroke-opacity:1;stroke-dasharray:2.98883,2.98883;stroke-miterlimit:10;" d="M 40.818656 -0.00134375 L 40.818656 81.639281 " transform="matrix(1,0,0,-1,43.779,91.401)"/>
<path style="fill:none;stroke-width:0.3985;stroke-linecap:round;stroke-linejoin:round;stroke:rgb(0%,0%,0%);stroke-opacity:1;stroke-dasharray:2.98883,2.98883;stroke-miterlimit:10;" d="M 23.810844 -13.606812 L 23.810844 68.033813 " transform="matrix(1,0,0,-1,43.779,91.401)"/>
<path style="fill:none;stroke-width:0.3985;stroke-linecap:round;stroke-linejoin:round;stroke:rgb(0%,0%,0%);stroke-opacity:1;stroke-dasharray:2.98883,2.98883;stroke-miterlimit:10;" d="M -0.00165625 -0.00134375 L -34.017281 -27.212281 " transform="matrix(1,0,0,-1,43.779,91.401)"/>
<path style="fill:none;stroke-width:0.3985;stroke-linecap:round;stroke-linejoin:round;stroke:rgb(0%,0%,0%);stroke-opacity:1;stroke-dasharray:2.98883,2.98883;stroke-miterlimit:10;" d="M -0.00165625 40.818969 L -34.017281 13.608031 " transform="matrix(1,0,0,-1,43.779,91.401)"/>
<path style="fill:none;stroke-width:0.3985;stroke-linecap:round;stroke-linejoin:round;stroke:rgb(0%,0%,0%);stroke-opacity:1;stroke-dasharray:2.98883,2.98883;stroke-miterlimit:10;" d="M 40.818656 -0.00134375 L 6.803031 -27.212281 " transform="matrix(1,0,0,-1,43.779,91.401)"/>
<path style="fill:none;stroke-width:0.3985;stroke-linecap:round;stroke-linejoin:round;stroke:rgb(0%,0%,0%);stroke-opacity:1;stroke-dasharray:2.98883,2.98883;stroke-miterlimit:10;" d="M 40.818656 40.818969 L 6.803031 13.608031 " transform="matrix(1,0,0,-1,43.779,91.401)"/>
<path style="fill:none;stroke-width:0.3985;stroke-linecap:round;stroke-linejoin:round;stroke:rgb(0%,0%,0%);stroke-opacity:1;stroke-miterlimit:10;" d="M -34.017281 -27.212281 L 47.623344 -27.212281 " transform="matrix(1,0,0,-1,43.779,91.401)"/>
<path style="fill:none;stroke-width:0.3985;stroke-linecap:round;stroke-linejoin:round;stroke:rgb(0%,0%,0%);stroke-opacity:1;stroke-miterlimit:10;" d="M -34.017281 13.608031 L 47.623344 13.608031 " transform="matrix(1,0,0,-1,43.779,91.401)"/>
<path style="fill:none;stroke-width:0.3985;stroke-linecap:round;stroke-linejoin:round;stroke:rgb(0%,0%,0%);stroke-opacity:1;stroke-miterlimit:10;" d="M -34.017281 54.424438 L 47.623344 54.424438 " transform="matrix(1,0,0,-1,43.779,91.401)"/>
<path style="fill:none;stroke-width:0.3985;stroke-linecap:round;stroke-linejoin:round;stroke:rgb(0%,0%,0%);stroke-opacity:1;stroke-miterlimit:10;" d="M -34.017281 -27.212281 L -34.017281 54.424438 " transform="matrix(1,0,0,-1,43.779,91.401)"/>
<path style="fill:none;stroke-width:0.3985;stroke-linecap:round;stroke-linejoin:round;stroke:rgb(0%,0%,0%);stroke-opacity:1;stroke-miterlimit:10;" d="M 6.803031 -27.212281 L 6.803031 54.424438 " transform="matrix(1,0,0,-1,43.779,91.401)"/>
<path style="fill:none;stroke-width:0.3985;stroke-linecap:round;stroke-linejoin:round;stroke:rgb(0%,0%,0%);stroke-opacity:1;stroke-miterlimit:10;" d="M 47.623344 -27.212281 L 47.623344 54.424438 " transform="matrix(1,0,0,-1,43.779,91.401)"/>
<path style="fill:none;stroke-width:0.3985;stroke-linecap:round;stroke-linejoin:round;stroke:rgb(0%,0%,0%);stroke-opacity:1;stroke-miterlimit:10;" d="M 81.638969 -0.00134375 L 47.623344 -27.212281 " transform="matrix(1,0,0,-1,43.779,91.401)"/>
<path style="fill:none;stroke-width:0.3985;stroke-linecap:round;stroke-linejoin:round;stroke:rgb(0%,0%,0%);stroke-opacity:1;stroke-miterlimit:10;" d="M 81.638969 40.818969 L 47.623344 13.608031 " transform="matrix(1,0,0,-1,43.779,91.401)"/>
<path style="fill:none;stroke-width:0.3985;stroke-linecap:round;stroke-linejoin:round;stroke:rgb(0%,0%,0%);stroke-opacity:1;stroke-miterlimit:10;" d="M 81.638969 81.639281 L 47.623344 54.424438 " transform="matrix(1,0,0,-1,43.779,91.401)"/>
<path style="fill:none;stroke-width:0.3985;stroke-linecap:round;stroke-linejoin:round;stroke:rgb(0%,0%,0%);stroke-opacity:1;stroke-miterlimit:10;" d="M 81.638969 -0.00134375 L 81.638969 81.639281 " transform="matrix(1,0,0,-1,43.779,91.401)"/>
<path style="fill:none;stroke-width:0.3985;stroke-linecap:round;stroke-linejoin:round;stroke:rgb(0%,0%,0%);stroke-opacity:1;stroke-miterlimit:10;" d="M 64.631156 -13.606812 L 64.631156 68.033813 " transform="matrix(1,0,0,-1,43.779,91.401)"/>
<path style="fill:none;stroke-width:0.3985;stroke-linecap:round;stroke-linejoin:round;stroke:rgb(0%,0%,0%);stroke-opacity:1;stroke-miterlimit:10;" d="M 47.623344 -27.212281 L 47.623344 54.424438 " transform="matrix(1,0,0,-1,43.779,91.401)"/>
<path style="fill:none;stroke-width:0.3985;stroke-linecap:round;stroke-linejoin:round;stroke:rgb(0%,0%,0%);stroke-opacity:1;stroke-miterlimit:10;" d="M -0.00165625 81.639281 L -34.017281 54.424438 " transform="matrix(1,0,0,-1,43.779,91.401)"/>
<path style="fill:none;stroke-width:0.3985;stroke-linecap:round;stroke-linejoin:round;stroke:rgb(0%,0%,0%);stroke-opacity:1;stroke-miterlimit:10;" d="M 40.818656 81.639281 L 6.803031 54.424438 " transform="matrix(1,0,0,-1,43.779,91.401)"/>
<path style="fill:none;stroke-width:0.3985;stroke-linecap:round;stroke-linejoin:round;stroke:rgb(0%,0%,0%);stroke-opacity:1;stroke-miterlimit:10;" d="M 81.638969 81.639281 L 47.623344 54.424438 " transform="matrix(1,0,0,-1,43.779,91.401)"/>
<path style="fill:none;stroke-width:0.3985;stroke-linecap:round;stroke-linejoin:round;stroke:rgb(0%,0%,0%);stroke-opacity:1;stroke-miterlimit:10;" d="M -0.00165625 81.639281 L 81.638969 81.639281 " transform="matrix(1,0,0,-1,43.779,91.401)"/>
<path style="fill:none;stroke-width:0.3985;stroke-linecap:round;stroke-linejoin:round;stroke:rgb(0%,0%,0%);stroke-opacity:1;stroke-miterlimit:10;" d="M -17.009469 68.033813 L 64.631156 68.033813 " transform="matrix(1,0,0,-1,43.779,91.401)"/>
<path style="fill:none;stroke-width:0.3985;stroke-linecap:round;stroke-linejoin:round;stroke:rgb(0%,0%,0%);stroke-opacity:1;stroke-miterlimit:10;" d="M -34.017281 54.424438 L 47.623344 54.424438 " transform="matrix(1,0,0,-1,43.779,91.401)"/>
<path style=" stroke:none;fill-rule:nonzero;fill:rgb(0%,0%,0%);fill-opacity:1;" d="M 45.574219 91.402344 C 45.574219 90.410156 44.769531 89.609375 43.777344 89.609375 C 42.789062 89.609375 41.984375 90.410156 41.984375 91.402344 C 41.984375 92.390625 42.789062 93.195312 43.777344 93.195312 C 44.769531 93.195312 45.574219 92.390625 45.574219 91.402344 Z M 45.574219 91.402344 "/>
<path style=" stroke:none;fill-rule:nonzero;fill:rgb(0%,0%,0%);fill-opacity:1;" d="M 28.5625 105.007812 C 28.5625 104.015625 27.761719 103.214844 26.769531 103.214844 C 25.78125 103.214844 24.976562 104.015625 24.976562 105.007812 C 24.976562 105.996094 25.78125 106.800781 26.769531 106.800781 C 27.761719 106.800781 28.5625 105.996094 28.5625 105.007812 Z M 28.5625 105.007812 "/>
<path style=" stroke:none;fill-rule:nonzero;fill:rgb(0%,0%,0%);fill-opacity:1;" d="M 11.554688 118.613281 C 11.554688 117.621094 10.753906 116.820312 9.761719 116.820312 C 8.773438 116.820312 7.96875 117.621094 7.96875 118.613281 C 7.96875 119.605469 8.773438 120.40625 9.761719 120.40625 C 10.753906 120.40625 11.554688 119.605469 11.554688 118.613281 Z M 11.554688 118.613281 "/>
<path style=" stroke:none;fill-rule:nonzero;fill:rgb(0%,0%,0%);fill-opacity:1;" d="M 45.574219 50.582031 C 45.574219 49.589844 44.769531 48.789062 43.777344 48.789062 C 42.789062 48.789062 41.984375 49.589844 41.984375 50.582031 C 41.984375 51.570312 42.789062 52.375 43.777344 52.375 C 44.769531 52.375 45.574219 51.570312 45.574219 50.582031 Z M 45.574219 50.582031 "/>
<path style=" stroke:none;fill-rule:nonzero;fill:rgb(0%,0%,0%);fill-opacity:1;" d="M 28.5625 64.1875 C 28.5625 63.199219 27.761719 62.394531 26.769531 62.394531 C 25.78125 62.394531 24.976562 63.199219 24.976562 64.1875 C 24.976562 65.179688 25.78125 65.980469 26.769531 65.980469 C 27.761719 65.980469 28.5625 65.179688 28.5625 64.1875 Z M 28.5625 64.1875 "/>
<path style=" stroke:none;fill-rule:nonzero;fill:rgb(0%,0%,0%);fill-opacity:1;" d="M 11.554688 77.792969 C 11.554688 76.804688 10.753906 76 9.761719 76 C 8.773438 76 7.96875 76.804688 7.96875 77.792969 C 7.96875 78.785156 8.773438 79.585938 9.761719 79.585938 C 10.753906 79.585938 11.554688 78.785156 11.554688 77.792969 Z M 11.554688 77.792969 "/>
<path style=" stroke:none;fill-rule:nonzero;fill:rgb(0%,0%,0%);fill-opacity:1;" d="M 45.574219 9.761719 C 45.574219 8.773438 44.769531 7.96875 43.777344 7.96875 C 42.789062 7.96875 41.984375 8.773438 41.984375 9.761719 C 41.984375 10.753906 42.789062 11.554688 43.777344 11.554688 C 44.769531 11.554688 45.574219 10.753906 45.574219 9.761719 Z M 45.574219 9.761719 "/>
<path style=" stroke:none;fill-rule:nonzero;fill:rgb(0%,0%,0%);fill-opacity:1;" d="M 28.5625 23.367188 C 28.5625 22.378906 27.761719 21.574219 26.769531 21.574219 C 25.78125 21.574219 24.976562 22.378906 24.976562 23.367188 C 24.976562 24.359375 25.78125 25.160156 26.769531 25.160156 C 27.761719 25.160156 28.5625 24.359375 28.5625 23.367188 Z M 28.5625 23.367188 "/>
<path style=" stroke:none;fill-rule:nonzero;fill:rgb(0%,0%,0%);fill-opacity:1;" d="M 11.554688 36.976562 C 11.554688 35.984375 10.753906 35.183594 9.761719 35.183594 C 8.773438 35.183594 7.96875 35.984375 7.96875 36.976562 C 7.96875 37.964844 8.773438 38.769531 9.761719 38.769531 C 10.753906 38.769531 11.554688 37.964844 11.554688 36.976562 Z M 11.554688 36.976562 "/>
<path style=" stroke:none;fill-rule:nonzero;fill:rgb(0%,0%,0%);fill-opacity:1;" d="M 86.390625 91.402344 C 86.390625 90.410156 85.589844 89.609375 84.597656 89.609375 C 83.609375 89.609375 82.804688 90.410156 82.804688 91.402344 C 82.804688 92.390625 83.609375 93.195312 84.597656 93.195312 C 85.589844 93.195312 86.390625 92.390625 86.390625 91.402344 Z M 86.390625 91.402344 "/>
<path style=" stroke:none;fill-rule:nonzero;fill:rgb(0%,0%,0%);fill-opacity:1;" d="M 69.382812 105.007812 C 69.382812 104.015625 68.582031 103.214844 67.589844 103.214844 C 66.601562 103.214844 65.796875 104.015625 65.796875 105.007812 C 65.796875 105.996094 66.601562 106.800781 67.589844 106.800781 C 68.582031 106.800781 69.382812 105.996094 69.382812 105.007812 Z M 69.382812 105.007812 "/>
<path style=" stroke:none;fill-rule:nonzero;fill:rgb(0%,0%,0%);fill-opacity:1;" d="M 52.375 118.613281 C 52.375 117.621094 51.574219 116.820312 50.582031 116.820312 C 49.589844 116.820312 48.789062 117.621094 48.789062 118.613281 C 48.789062 119.605469 49.589844 120.40625 50.582031 120.40625 C 51.574219 120.40625 52.375 119.605469 52.375 118.613281 Z M 52.375 118.613281 "/>
<path style=" stroke:none;fill-rule:nonzero;fill:rgb(0%,0%,0%);fill-opacity:1;" d="M 86.390625 50.582031 C 86.390625 49.589844 85.589844 48.789062 84.597656 48.789062 C 83.609375 48.789062 82.804688 49.589844 82.804688 50.582031 C 82.804688 51.570312 83.609375 52.375 84.597656 52.375 C 85.589844 52.375 86.390625 51.570312 86.390625 50.582031 Z M 86.390625 50.582031 "/>
<path style=" stroke:none;fill-rule:nonzero;fill:rgb(0%,0%,0%);fill-opacity:1;" d="M 69.382812 64.1875 C 69.382812 63.199219 68.582031 62.394531 67.589844 62.394531 C 66.601562 62.394531 65.796875 63.199219 65.796875 64.1875 C 65.796875 65.179688 66.601562 65.980469 67.589844 65.980469 C 68.582031 65.980469 69.382812 65.179688 69.382812 64.1875 Z M 69.382812 64.1875 "/>
<path style=" stroke:none;fill-rule:nonzero;fill:rgb(0%,0%,0%);fill-opacity:1;" d="M 52.375 77.792969 C 52.375 76.804688 51.574219 76 50.582031 76 C 49.589844 76 48.789062 76.804688 48.789062 77.792969 C 48.789062 78.785156 49.589844 79.585938 50.582031 79.585938 C 51.574219 79.585938 52.375 78.785156 52.375 77.792969 Z M 52.375 77.792969 "/>
<path style=" stroke:none;fill-rule:nonzero;fill:rgb(0%,0%,0%);fill-opacity:1;" d="M 86.390625 9.761719 C 86.390625 8.773438 85.589844 7.96875 84.597656 7.96875 C 83.609375 7.96875 82.804688 8.773438 82.804688 9.761719 C 82.804688 10.753906 83.609375 11.554688 84.597656 11.554688 C 85.589844 11.554688 86.390625 10.753906 86.390625 9.761719 Z M 86.390625 9.761719 "/>
<path style=" stroke:none;fill-rule:nonzero;fill:rgb(0%,0%,0%);fill-opacity:1;" d="M 69.382812 23.367188 C 69.382812 22.378906 68.582031 21.574219 67.589844 21.574219 C 66.601562 21.574219 65.796875 22.378906 65.796875 23.367188 C 65.796875 24.359375 66.601562 25.160156 67.589844 25.160156 C 68.582031 25.160156 69.382812 24.359375 69.382812 23.367188 Z M 69.382812 23.367188 "/>
<path style=" stroke:none;fill-rule:nonzero;fill:rgb(0%,0%,0%);fill-opacity:1;" d="M 52.375 36.976562 C 52.375 35.984375 51.574219 35.183594 50.582031 35.183594 C 49.589844 35.183594 48.789062 35.984375 48.789062 36.976562 C 48.789062 37.964844 49.589844 38.769531 50.582031 38.769531 C 51.574219 38.769531 52.375 37.964844 52.375 36.976562 Z M 52.375 36.976562 "/>
<path style=" stroke:none;fill-rule:nonzero;fill:rgb(0%,0%,0%);fill-opacity:1;" d="M 127.210938 91.402344 C 127.210938 90.410156 126.40625 89.609375 125.417969 89.609375 C 124.425781 89.609375 123.625 90.410156 123.625 91.402344 C 123.625 92.390625 124.425781 93.195312 125.417969 93.195312 C 126.40625 93.195312 127.210938 92.390625 127.210938 91.402344 Z M 127.210938 91.402344 "/>
<path style=" stroke:none;fill-rule:nonzero;fill:rgb(0%,0%,0%);fill-opacity:1;" d="M 110.203125 105.007812 C 110.203125 104.015625 109.398438 103.214844 108.410156 103.214844 C 107.417969 103.214844 106.617188 104.015625 106.617188 105.007812 C 106.617188 105.996094 107.417969 106.800781 108.410156 106.800781 C 109.398438 106.800781 110.203125 105.996094 110.203125 105.007812 Z M 110.203125 105.007812 "/>
<path style=" stroke:none;fill-rule:nonzero;fill:rgb(0%,0%,0%);fill-opacity:1;" d="M 93.195312 118.613281 C 93.195312 117.621094 92.390625 116.820312 91.402344 116.820312 C 90.410156 116.820312 89.609375 117.621094 89.609375 118.613281 C 89.609375 119.605469 90.410156 120.40625 91.402344 120.40625 C 92.390625 120.40625 93.195312 119.605469 93.195312 118.613281 Z M 93.195312 118.613281 "/>
<path style=" stroke:none;fill-rule:nonzero;fill:rgb(0%,0%,0%);fill-opacity:1;" d="M 127.210938 50.582031 C 127.210938 49.589844 126.40625 48.789062 125.417969 48.789062 C 124.425781 48.789062 123.625 49.589844 123.625 50.582031 C 123.625 51.570312 124.425781 52.375 125.417969 52.375 C 126.40625 52.375 127.210938 51.570312 127.210938 50.582031 Z M 127.210938 50.582031 "/>
<path style=" stroke:none;fill-rule:nonzero;fill:rgb(0%,0%,0%);fill-opacity:1;" d="M 110.203125 64.1875 C 110.203125 63.199219 109.398438 62.394531 108.410156 62.394531 C 107.417969 62.394531 106.617188 63.199219 106.617188 64.1875 C 106.617188 65.179688 107.417969 65.980469 108.410156 65.980469 C 109.398438 65.980469 110.203125 65.179688 110.203125 64.1875 Z M 110.203125 64.1875 "/>
<path style=" stroke:none;fill-rule:nonzero;fill:rgb(0%,0%,0%);fill-opacity:1;" d="M 93.195312 77.792969 C 93.195312 76.804688 92.390625 76 91.402344 76 C 90.410156 76 89.609375 76.804688 89.609375 77.792969 C 89.609375 78.785156 90.410156 79.585938 91.402344 79.585938 C 92.390625 79.585938 93.195312 78.785156 93.195312 77.792969 Z M 93.195312 77.792969 "/>
<path style=" stroke:none;fill-rule:nonzero;fill:rgb(0%,0%,0%);fill-opacity:1;" d="M 127.210938 9.761719 C 127.210938 8.773438 126.40625 7.96875 125.417969 7.96875 C 124.425781 7.96875 123.625 8.773438 123.625 9.761719 C 123.625 10.753906 124.425781 11.554688 125.417969 11.554688 C 126.40625 11.554688 127.210938 10.753906 127.210938 9.761719 Z M 127.210938 9.761719 "/>
<path style=" stroke:none;fill-rule:nonzero;fill:rgb(0%,0%,0%);fill-opacity:1;" d="M 110.203125 23.367188 C 110.203125 22.378906 109.398438 21.574219 108.410156 21.574219 C 107.417969 21.574219 106.617188 22.378906 106.617188 23.367188 C 106.617188 24.359375 107.417969 25.160156 108.410156 25.160156 C 109.398438 25.160156 110.203125 24.359375 110.203125 23.367188 Z M 110.203125 23.367188 "/>
<path style=" stroke:none;fill-rule:nonzero;fill:rgb(0%,0%,0%);fill-opacity:1;" d="M 93.195312 36.976562 C 93.195312 35.984375 92.390625 35.183594 91.402344 35.183594 C 90.410156 35.183594 89.609375 35.984375 89.609375 36.976562 C 89.609375 37.964844 90.410156 38.769531 91.402344 38.769531 C 92.390625 38.769531 93.195312 37.964844 93.195312 36.976562 Z M 93.195312 36.976562 "/>
</g>
</svg>