<svg xmlns="http://www.w3.org/2000/svg" xmlns:xlink="http://www.w3.org/1999/xlink" width="191.137pt" height="166.925pt" viewBox="0 0 191.137 166.925" version="1.1">
<defs>
<g>
<symbol overflow="visible" id="glyph0-0">
<path style="stroke:none;" d=""/>
</symbol>
<symbol overflow="visible" id="glyph0-1">
<path style="stroke:none;" d="M 5.34375 -5.390625 C 5.359375 -5.421875 5.375 -5.46875 5.375 -5.515625 C 5.375 -5.5625 5.328125 -5.609375 5.265625 -5.609375 C 5.21875 -5.609375 5.203125 -5.59375 5.109375 -5.5 C 5.015625 -5.390625 4.8125 -5.140625 4.71875 -5.046875 C 4.421875 -5.5 3.90625 -5.609375 3.5 -5.609375 C 2.40625 -5.609375 1.453125 -4.671875 1.453125 -3.765625 C 1.453125 -3.3125 1.703125 -3.03125 1.734375 -2.984375 C 2 -2.703125 2.234375 -2.640625 2.8125 -2.5 C 3.078125 -2.4375 3.09375 -2.4375 3.328125 -2.375 C 3.5625 -2.3125 4.078125 -2.1875 4.078125 -1.53125 C 4.078125 -0.84375 3.390625 -0.09375 2.546875 -0.09375 C 2.03125 -0.09375 1.078125 -0.25 1.078125 -1.25 C 1.078125 -1.265625 1.078125 -1.4375 1.125 -1.625 L 1.140625 -1.703125 C 1.140625 -1.796875 1.046875 -1.8125 1.015625 -1.8125 C 0.921875 -1.8125 0.90625 -1.78125 0.875 -1.59375 L 0.546875 -0.296875 C 0.515625 -0.171875 0.453125 0.046875 0.453125 0.0625 C 0.453125 0.125 0.5 0.171875 0.5625 0.171875 C 0.609375 0.171875 0.625 0.15625 0.703125 0.0625 L 1.09375 -0.390625 C 1.28125 -0.15625 1.734375 0.171875 2.53125 0.171875 C 3.6875 0.171875 4.640625 -0.875 4.640625 -1.828125 C 4.640625 -2.203125 4.515625 -2.484375 4.296875 -2.703125 C 4.0625 -2.96875 3.796875 -3.03125 3.421875 -3.125 C 3.203125 -3.1875 2.890625 -3.265625 2.703125 -3.3125 C 2.46875 -3.359375 2.015625 -3.515625 2.015625 -4.078125 C 2.015625 -4.703125 2.6875 -5.375 3.5 -5.375 C 4.21875 -5.375 4.703125 -5 4.703125 -4.140625 C 4.703125 -3.9375 4.671875 -3.78125 4.671875 -3.75 C 4.671875 -3.65625 4.75 -3.640625 4.8125 -3.640625 C 4.90625 -3.640625 4.90625 -3.671875 4.9375 -3.796875 Z M 5.34375 -5.390625 "/>
</symbol>
<symbol overflow="visible" id="glyph0-2">
<path style="stroke:none;" d="M 1.46875 -0.953125 C 1.109375 -0.359375 0.78125 -0.28125 0.5 -0.265625 C 0.421875 -0.25 0.3125 -0.25 0.3125 -0.109375 C 0.3125 -0.09375 0.328125 0 0.4375 0 C 0.5 0 0.546875 -0.03125 1.109375 -0.03125 C 1.65625 -0.03125 1.828125 0 1.875 0 C 1.90625 0 2.03125 0 2.03125 -0.15625 C 2.03125 -0.25 1.921875 -0.265625 1.890625 -0.265625 C 1.71875 -0.265625 1.546875 -0.328125 1.546875 -0.515625 C 1.546875 -0.625 1.625 -0.734375 1.765625 -0.96875 L 2.3125 -1.84375 L 4.5 -1.84375 L 4.65625 -0.5 C 4.65625 -0.375 4.515625 -0.265625 4.140625 -0.265625 C 4.03125 -0.265625 3.921875 -0.265625 3.921875 -0.109375 C 3.921875 -0.109375 3.921875 0 4.0625 0 C 4.140625 0 4.4375 -0.015625 4.515625 -0.03125 L 5.015625 -0.03125 C 5.734375 -0.03125 5.859375 0 5.921875 0 C 5.953125 0 6.09375 0 6.09375 -0.15625 C 6.09375 -0.265625 5.984375 -0.265625 5.859375 -0.265625 C 5.421875 -0.265625 5.40625 -0.328125 5.390625 -0.53125 L 4.75 -5.453125 C 4.734375 -5.640625 4.71875 -5.6875 4.59375 -5.6875 C 4.453125 -5.6875 4.40625 -5.609375 4.34375 -5.53125 Z M 2.484375 -2.109375 L 4.125 -4.71875 L 4.46875 -2.109375 Z M 2.484375 -2.109375 "/>
</symbol>
<symbol overflow="visible" id="glyph0-3">
<path style="stroke:none;" d="M 1.34375 -0.625 C 1.28125 -0.328125 1.265625 -0.265625 0.671875 -0.265625 C 0.515625 -0.265625 0.421875 -0.265625 0.421875 -0.109375 C 0.421875 0 0.53125 0 0.65625 0 L 3.625 0 C 4.9375 0 5.90625 -0.9375 5.90625 -1.703125 C 5.90625 -2.28125 5.40625 -2.75 4.609375 -2.84375 C 5.53125 -3.015625 6.328125 -3.625 6.328125 -4.328125 C 6.328125 -4.921875 5.75 -5.4375 4.75 -5.4375 L 1.96875 -5.4375 C 1.828125 -5.4375 1.71875 -5.4375 1.71875 -5.296875 C 1.71875 -5.171875 1.8125 -5.171875 1.953125 -5.171875 C 2.21875 -5.171875 2.453125 -5.171875 2.453125 -5.046875 C 2.453125 -5.015625 2.4375 -5.015625 2.421875 -4.90625 Z M 2.59375 -2.9375 L 3.078125 -4.890625 C 3.140625 -5.15625 3.15625 -5.171875 3.484375 -5.171875 L 4.625 -5.171875 C 5.40625 -5.171875 5.59375 -4.671875 5.59375 -4.34375 C 5.59375 -3.671875 4.859375 -2.9375 3.84375 -2.9375 Z M 2.046875 -0.265625 C 1.96875 -0.28125 1.9375 -0.28125 1.9375 -0.328125 C 1.9375 -0.390625 1.953125 -0.46875 1.96875 -0.515625 L 2.53125 -2.71875 L 4.15625 -2.71875 C 4.890625 -2.71875 5.140625 -2.21875 5.140625 -1.765625 C 5.140625 -0.984375 4.375 -0.265625 3.421875 -0.265625 Z M 2.046875 -0.265625 "/>
</symbol>
<symbol overflow="visible" id="glyph0-4">
<path style="stroke:none;" d="M 6.34375 -5.390625 C 6.34375 -5.421875 6.359375 -5.46875 6.359375 -5.515625 C 6.359375 -5.5625 6.3125 -5.609375 6.265625 -5.609375 C 6.203125 -5.609375 6.1875 -5.59375 6.125 -5.515625 L 5.5625 -4.90625 C 5.484375 -5 5.0625 -5.609375 4.140625 -5.609375 C 2.28125 -5.609375 0.421875 -3.890625 0.421875 -2.0625 C 0.421875 -0.671875 1.46875 0.171875 2.734375 0.171875 C 3.78125 0.171875 4.671875 -0.46875 5.09375 -1.09375 C 5.359375 -1.484375 5.46875 -1.859375 5.46875 -1.90625 C 5.46875 -1.984375 5.421875 -2.015625 5.34375 -2.015625 C 5.25 -2.015625 5.234375 -1.96875 5.21875 -1.890625 C 4.875 -0.78125 3.796875 -0.09375 2.84375 -0.09375 C 2.03125 -0.09375 1.171875 -0.578125 1.171875 -1.796875 C 1.171875 -2.046875 1.265625 -3.375 2.15625 -4.375 C 2.75 -5.046875 3.5625 -5.34375 4.1875 -5.34375 C 5.203125 -5.34375 5.609375 -4.546875 5.609375 -3.78125 C 5.609375 -3.671875 5.578125 -3.515625 5.578125 -3.421875 C 5.578125 -3.328125 5.6875 -3.328125 5.71875 -3.328125 C 5.8125 -3.328125 5.828125 -3.359375 5.859375 -3.5 Z M 6.34375 -5.390625 "/>
</symbol>
<symbol overflow="visible" id="glyph0-5">
<path style="stroke:none;" d="M 1.328125 -0.625 C 1.265625 -0.328125 1.25 -0.265625 0.65625 -0.265625 C 0.5 -0.265625 0.40625 -0.265625 0.40625 -0.109375 C 0.40625 0 0.515625 0 0.640625 0 L 3.390625 0 C 5.0625 0 6.734375 -1.609375 6.734375 -3.390625 C 6.734375 -4.609375 5.921875 -5.4375 4.734375 -5.4375 L 1.953125 -5.4375 C 1.8125 -5.4375 1.703125 -5.4375 1.703125 -5.296875 C 1.703125 -5.171875 1.796875 -5.171875 1.9375 -5.171875 C 2.203125 -5.171875 2.4375 -5.171875 2.4375 -5.046875 C 2.4375 -5.015625 2.421875 -5.015625 2.40625 -4.90625 Z M 3.09375 -4.890625 C 3.15625 -5.15625 3.171875 -5.171875 3.5 -5.171875 L 4.46875 -5.171875 C 5.390625 -5.171875 6.03125 -4.640625 6.03125 -3.671875 C 6.03125 -3.40625 5.90625 -2.109375 5.21875 -1.21875 C 4.875 -0.765625 4.1875 -0.265625 3.25 -0.265625 L 2.0625 -0.265625 C 1.984375 -0.28125 1.953125 -0.28125 1.953125 -0.328125 C 1.953125 -0.390625 1.96875 -0.46875 1.984375 -0.515625 Z M 3.09375 -4.890625 "/>
</symbol>
<symbol overflow="visible" id="glyph0-6">
<path style="stroke:none;" d="M 6.21875 -3.421875 C 6.21875 -4.734375 5.3125 -5.609375 4.046875 -5.609375 C 2.1875 -5.609375 0.40625 -3.765625 0.40625 -1.984375 C 0.40625 -0.765625 1.265625 0.171875 2.609375 0.171875 C 4.390625 0.171875 6.21875 -1.546875 6.21875 -3.421875 Z M 2.671875 -0.09375 C 1.859375 -0.09375 1.1875 -0.671875 1.1875 -1.8125 C 1.1875 -1.9375 1.1875 -3.28125 2.109375 -4.40625 C 2.40625 -4.765625 3.125 -5.359375 3.984375 -5.359375 C 4.78125 -5.359375 5.484375 -4.8125 5.484375 -3.703125 C 5.484375 -3.265625 5.3125 -2.03125 4.5 -1.046875 C 4.03125 -0.5 3.34375 -0.09375 2.671875 -0.09375 Z M 2.671875 -0.09375 "/>
</symbol>
</g>
</defs>
<g id="surface1">
<path style="fill:none;stroke-width:0.3985;stroke-linecap:round;stroke-linejoin:round;stroke:rgb(0%,0%,0%);stroke-opacity:1;stroke-miterlimit:10;" d="M 22.675844 76.537375 L -53.859313 -45.35325 L 45.355531 -45.35325 L 99.214906 -0.0016875 Z M 22.675844 76.537375 L 45.355531 -45.35325 " transform="matrix(1,0,0,-1,68.539,99.053)"/>
<path style="fill:none;stroke-width:0.3985;stroke-linecap:round;stroke-linejoin:round;stroke:rgb(0%,0%,0%);stroke-opacity:1;stroke-dasharray:2.98883,2.98883;stroke-miterlimit:10;" d="M 22.675844 -22.677469 L 22.675844 76.537375 L 0.0000625 -0.0016875 L 99.214906 -0.0016875 M 45.355531 -45.35325 L 0.0000625 -0.0016875 L -53.859313 -45.35325 L 99.214906 -0.0016875 " transform="matrix(1,0,0,-1,68.539,99.053)"/>
<path style=" stroke:none;fill-rule:nonzero;fill:rgb(0%,0%,0%);fill-opacity:1;" d="M 92.210938 22.515625 C 92.210938 21.964844 91.765625 21.519531 91.214844 21.519531 C 90.667969 21.519531 90.21875 21.964844 90.21875 22.515625 C 90.21875 23.066406 90.667969 23.511719 91.214844 23.511719 C 91.765625 23.511719 92.210938 23.066406 92.210938 22.515625 Z M 92.210938 22.515625 "/>
<g style="fill:rgb(0%,0%,0%);fill-opacity:1;">
  <use xlink:href="#glyph0-1" x="88.418" y="16.737"/>
</g>
<path style=" stroke:none;fill-rule:nonzero;fill:rgb(0%,0%,0%);fill-opacity:1;" d="M 69.535156 99.054688 C 69.535156 98.503906 69.089844 98.058594 68.539062 98.058594 C 67.988281 98.058594 67.542969 98.503906 67.542969 99.054688 C 67.542969 99.601562 67.988281 100.050781 68.539062 100.050781 C 69.089844 100.050781 69.535156 99.601562 69.535156 99.054688 Z M 69.535156 99.054688 "/>
<g style="fill:rgb(0%,0%,0%);fill-opacity:1;">
  <use xlink:href="#glyph0-2" x="63.891" y="110.151"/>
</g>
<path style=" stroke:none;fill-rule:nonzero;fill:rgb(0%,0%,0%);fill-opacity:1;" d="M 15.675781 144.40625 C 15.675781 143.859375 15.230469 143.410156 14.679688 143.410156 C 14.128906 143.410156 13.683594 143.859375 13.683594 144.40625 C 13.683594 144.957031 14.128906 145.40625 14.679688 145.40625 C 15.230469 145.40625 15.675781 144.957031 15.675781 144.40625 Z M 15.675781 144.40625 "/>
<g style="fill:rgb(0%,0%,0%);fill-opacity:1;">
  <use xlink:href="#glyph0-3" x="11.291" y="155.634"/>
</g>
<path style=" stroke:none;fill-rule:nonzero;fill:rgb(0%,0%,0%);fill-opacity:1;" d="M 114.890625 144.40625 C 114.890625 143.859375 114.445312 143.410156 113.894531 143.410156 C 113.34375 143.410156 112.898438 143.859375 112.898438 144.40625 C 112.898438 144.957031 113.34375 145.40625 113.894531 145.40625 C 114.445312 145.40625 114.890625 144.957031 114.890625 144.40625 Z M 114.890625 144.40625 "/>
<g style="fill:rgb(0%,0%,0%);fill-opacity:1;">
  <use xlink:href="#glyph0-4" x="110.594" y="155.634"/>
</g>
<path style=" stroke:none;fill-rule:nonzero;fill:rgb(0%,0%,0%);fill-opacity:1;" d="M 168.75 99.054688 C 168.75 98.503906 168.304688 98.058594 167.753906 98.058594 C 167.203125 98.058594 166.757812 98.503906 166.757812 99.054688 C 166.757812 99.601562 167.203125 100.050781 167.753906 100.050781 C 168.304688 100.050781 168.75 99.601562 168.75 99.054688 Z M 168.75 99.054688 "/>
<g style="fill:rgb(0%,0%,0%);fill-opacity:1;">
  <use xlink:href="#glyph0-5" x="172.664" y="101.776"/>
</g>
<path style=" stroke:none;fill-rule:nonzero;fill:rgb(0%,0%,0%);fill-opacity:1;" d="M 92.210938 121.730469 C 92.210938 121.179688 91.765625 120.734375 91.214844 120.734375 C 90.667969 120.734375 90.21875 121.179688 90.21875 121.730469 C 90.21875 122.28125 90.667969 122.726562 91.214844 122.726562 C 91.765625 122.726562 92.210938 122.28125 92.210938 121.730469 Z M 92.210938 121.730469 "/>
<g style="fill:rgb(0%,0%,0%);fill-opacity:1;">
  <use xlink:href="#glyph0-6" x="87.886" y="132.957"/>
</g>
<path style="fill:none;stroke-width:0.3985;stroke-linecap:round;stroke-linejoin:round;stroke:rgb(0%,0%,0%);stroke-opacity:1;stroke-miterlimit:10;" d="M 22.675844 -17.0095 L 18.668031 -12.997781 L 18.668031 -18.669656 " transform="matrix(1,0,0,-1,68.539,99.053)"/>
<path style="fill:none;stroke-width:0.3985;stroke-linecap:round;stroke-linejoin:round;stroke:rgb(0%,0%,0%);stroke-opacity:1;stroke-miterlimit:10;" d="M 22.675844 -17.0095 L 28.113344 -15.396219 L 28.113344 -21.068094 " transform="matrix(1,0,0,-1,68.539,99.053)"/>
</g>
</svg>